SplineFontDB: 3.0
FontName: Parastoo-Bold
FullName: Parastoo Bold
FamilyName: Parastoo
Weight: Bold
Copyright: Copyright (c) 2003 by Bitstream, Inc. All Rights Reserved.\nDejaVu changes are in public domain\nCopyright (c) 2015 by Saber Rastikerdar. All Rights Reserved.
Version: 0.1
ItalicAngle: 0
UnderlinePosition: -100
UnderlineWidth: 100
Ascent: 1536
Descent: 512
LayerCount: 2
Layer: 0 1 "Back"  1
Layer: 1 1 "Fore"  0
XUID: [1021 502 1027637223 14414591]
UniqueID: 4180367
UseUniqueID: 1
FSType: 0
OS2Version: 1
OS2_WeightWidthSlopeOnly: 0
OS2_UseTypoMetrics: 1
CreationTime: 1431850356
ModificationTime: 1448653441
PfmFamily: 17
TTFWeight: 600
TTFWidth: 5
LineGap: 0
VLineGap: 0
Panose: 2 11 6 3 3 8 4 2 2 4
OS2TypoAscent: 2000
OS2TypoAOffset: 0
OS2TypoDescent: -1000
OS2TypoDOffset: 0
OS2TypoLinegap: 0
OS2WinAscent: 2000
OS2WinAOffset: 0
OS2WinDescent: 1000
OS2WinDOffset: 0
HheadAscent: 2000
HheadAOffset: 0
HheadDescent: -1000
HheadDOffset: 0
OS2SubXSize: 1331
OS2SubYSize: 1433
OS2SubXOff: 0
OS2SubYOff: 286
OS2SupXSize: 1331
OS2SupYSize: 1433
OS2SupXOff: 0
OS2SupYOff: 983
OS2StrikeYSize: 102
OS2StrikeYPos: 530
OS2Vendor: 'PfEd'
OS2CodePages: 600001ff.dfff0000
Lookup: 1 0 0 "'case' Case-Sensitive Forms in Latin lookup 0"  {"'case' Case-Sensitive Forms in Latin lookup 0 subtable"  } ['case' ('DFLT' <'dflt' > 'latn' <'CAT ' 'ESP ' 'GAL ' 'dflt' > ) ]
Lookup: 6 1 0 "'ccmp' Glyph Composition/Decomposition lookup 2"  {"'ccmp' Glyph Composition/Decomposition lookup 2 subtable"  } ['ccmp' ('arab' <'KUR ' 'SND ' 'URD ' 'dflt' > 'hebr' <'dflt' > 'nko ' <'dflt' > ) ]
Lookup: 6 0 0 "'ccmp' Glyph Composition/Decomposition lookup 3"  {"'ccmp' Glyph Composition/Decomposition lookup 3 subtable"  } ['ccmp' ('cyrl' <'MKD ' 'SRB ' 'dflt' > 'grek' <'dflt' > 'latn' <'ISM ' 'KSM ' 'LSM ' 'MOL ' 'NSM ' 'ROM ' 'SKS ' 'SSM ' 'dflt' > ) ]

StartChar: afii57388
Encoding: 1548 1548 2
Width: 664
VWidth: 2054
GlyphClass: 2
Flags: W
LayerCount: 2
Fore
SplineSet
363.627 242.681 m 5,0,-1
 402.518 242.681 l 6,1,2
 471.258 242.681 471.258 242.681 471.258 190.32 c 6,3,-1
 471.258 59.6504 l 6,4,5
 471.258 -0.859375 471.258 -0.859375 418.357 -0.859375 c 6,6,-1
 297.148 -0.859375 l 6,7,8
 236.328 1.96618 236.328 1.96618 236.328 56.8809 c 6,9,-1
 236.328 203.32 l 4,10,11
 255.127 406.729 255.127 406.729 445.768 568.84 c 5,12,-1
 504.168 539.669 l 5,13,14
 365.127 386.729 365.127 386.729 363.627 242.681 c 5,0,-1
EndSplineSet
EndChar

StartChar: uni0615
Encoding: 1557 1557 3
Width: 0
VWidth: 2186
GlyphClass: 4
Flags: W
AnchorPoint: "Anchor-10" 547.84 1279.5 mark 0
AnchorPoint: "Anchor-9" 547.84 1279.5 mark 0
AnchorPoint: "Anchor-1" 547.84 1975 basemark 0
AnchorPoint: "Anchor-1" 547.84 1279.5 mark 0
LayerCount: 2
Fore
SplineSet
466.096 1456.96 m 1,0,-1
 552.12 1456.96 l 2,1,2
 639.138 1456.96 639.138 1456.96 665.862 1472.75 c 0,3,4
 697.288 1492.32 697.288 1492.32 713.059 1508.3 c 128,-1,5
 728.83 1524.27 728.83 1524.27 728.83 1541.65 c 0,6,7
 728.83 1583.09 728.83 1583.09 689.03 1604.94 c 1,8,9
 681.399 1607.6 681.399 1607.6 672.751 1605.46 c 128,-1,10
 664.102 1603.31 664.102 1603.31 640.309 1592.64 c 128,-1,11
 616.515 1581.97 616.515 1581.97 601.865 1576.19 c 0,12,13
 543.049 1552.44 543.049 1552.44 483.147 1478.12 c 2,14,-1
 466.096 1456.96 l 1,0,-1
576.73 1374.89 m 2,15,-1
 282.64 1374.89 l 1,16,-1
 282.64 1456.96 l 1,17,-1
 369.31 1456.96 l 1,18,-1
 369.31 1883.89 l 1,19,-1
 452.45 1883.89 l 1,20,-1
 452.45 1497.67 l 1,21,-1
 477.109 1547.67 l 2,22,23
 513.381 1621.22 513.381 1621.22 619.878 1662.18 c 0,24,25
 682.718 1686.12 682.718 1686.12 752.956 1660.03 c 0,26,27
 814.11 1636.51 814.11 1636.51 814.11 1557.7 c 0,28,29
 814.11 1466.67 814.11 1466.67 750.648 1417.09 c 0,30,31
 696.384 1374.89 696.384 1374.89 576.73 1374.89 c 2,15,-1
EndSplineSet
EndChar

StartChar: uni061B
Encoding: 1563 1563 4
Width: 654
VWidth: 2054
GlyphClass: 2
Flags: W
LayerCount: 2
Fore
SplineSet
344.574 597.451 m 1,0,-1
 383.466 597.451 l 2,1,2
 452.205 597.451 452.205 597.451 452.205 545.091 c 2,3,-1
 452.205 425.421 l 6,4,5
 452.205 353.911 452.205 353.911 399.305 353.911 c 2,6,-1
 278.096 353.911 l 2,7,8
 217.275 353.911 217.275 353.911 217.275 411.651 c 2,9,-1
 217.275 558.091 l 0,10,11
 236.074 761.499 236.074 761.499 426.716 923.61 c 1,12,-1
 485.115 894.439 l 1,13,14
 346.074 741.499 346.074 741.499 344.574 597.451 c 1,0,-1
428.5 172.3 m 2,15,-1
 428.5 29.2998 l 2,16,17
 428.5 0.299805 428.5 0.299805 405.5 0.299805 c 2,18,-1
 263.5 0.299805 l 2,19,20
 237.5 0.299805 237.5 0.299805 237.5 29.2998 c 2,21,-1
 237.5 171.3 l 2,22,23
 237.5 198.3 237.5 198.3 263.5 198.3 c 2,24,-1
 402.5 198.3 l 2,25,26
 428.5 198.3 428.5 198.3 428.5 172.3 c 2,15,-1
EndSplineSet
EndChar

StartChar: uni061F
Encoding: 1567 1567 5
Width: 1087
GlyphClass: 2
Flags: W
LayerCount: 2
Fore
SplineSet
694.5 172.3 m 2,0,-1
 694.5 29.2998 l 2,1,2
 694.5 0.299805 694.5 0.299805 671.5 0.299805 c 2,3,-1
 529.5 0.299805 l 2,4,5
 503.5 0.299805 503.5 0.299805 503.5 29.2998 c 2,6,-1
 503.5 171.3 l 2,7,8
 503.5 198.3 503.5 198.3 529.5 198.3 c 2,9,-1
 668.5 198.3 l 2,10,11
 694.5 198.3 694.5 198.3 694.5 172.3 c 2,0,-1
503 351 m 1,12,-1
 503 474 l 2,13,14
 503 526 503 526 500 556 c 128,-1,15
 497 586 497 586 491 607 c 0,16,17
 483 632 483 632 463.5 658.5 c 0,18,19
 441.196 688.809 441.196 688.809 397 732 c 2,20,-1
 309 818 l 1,21,22
 219 904 219 904 183 972.5 c 128,-1,23
 147 1041 147 1041 147 1117 c 0,24,25
 147 1276 147 1276 258.5 1373 c 128,-1,26
 370 1470 370 1470 554 1470 c 0,27,28
 657 1470 657 1470 753.5 1442 c 128,-1,29
 850 1414 850 1414 944 1357 c 1,30,-1
 873 1215.1 l 1,31,32
 703.809 1305 703.809 1305 589 1306 c 0,33,34
 481 1306 481 1306 415.5 1251 c 128,-1,35
 350 1196 350 1196 350 1107 c 0,36,37
 350 1058 350 1058 375.5 1011 c 128,-1,38
 401 964 401 964 458 911 c 1,39,-1
 548 822 l 1,40,41
 638 736 638 736 666 671 c 128,-1,42
 694 606 694 606 694 505 c 2,43,-1
 694 351 l 1,44,-1
 503 351 l 1,12,-1
EndSplineSet
EndChar

StartChar: uni0621
Encoding: 1569 1569 6
Width: 764
VWidth: 2329
GlyphClass: 2
Flags: W
AnchorPoint: "Anchor-7" 356.254 -193.511 basechar 0
AnchorPoint: "Anchor-10" 305.904 1069.48 basechar 0
LayerCount: 2
Fore
SplineSet
35.5352 -30.3037 m 1,0,-1
 35.5352 178.191 l 1,1,-1
 64.7861 186.352 l 2,2,3
 142.354 207.992 142.354 207.992 187.355 223.234 c 0,4,5
 203.231 228.612 203.231 228.612 220.668 235.895 c 1,6,7
 132.246 271.405 132.246 271.405 85.7969 340.546 c 128,-1,8
 39.3477 409.687 39.3477 409.687 39.3477 505.469 c 0,9,10
 39.3477 701.454 39.3477 701.454 192.359 795.739 c 0,11,12
 340.156 886.812 340.156 886.812 563.147 837.465 c 2,13,-1
 594.505 830.526 l 1,14,-1
 594.505 608.562 l 1,15,-1
 543.639 622.921 l 2,16,17
 467.764 644.339 467.764 644.339 414.379 642.813 c 0,18,19
 373.675 642.049 373.675 642.049 332.721 621.572 c 0,20,21
 294.428 602.426 294.428 602.426 276.804 572.802 c 128,-1,22
 259.179 543.178 259.179 543.178 259.179 496.566 c 0,23,24
 259.179 442.787 259.179 442.787 290.203 412.231 c 128,-1,25
 321.228 381.675 321.228 381.675 395.889 368.889 c 0,26,27
 413.116 366.428 413.116 366.428 508.479 372.109 c 0,28,29
 557.152 374.784 557.152 374.784 608.714 403.162 c 2,30,-1
 668.001 435.793 l 1,31,-1
 668.001 210.996 l 1,32,-1
 649.55 199.197 l 2,33,34
 563.337 144.069 563.337 144.069 381.35 73.0508 c 0,35,36
 185.764 -3.15625 185.764 -3.15625 82.6484 -21.79 c 2,37,-1
 35.5352 -30.3037 l 1,0,-1
EndSplineSet
EndChar

StartChar: uni0627
Encoding: 1575 1575 12
Width: 471
VWidth: 2307
GlyphClass: 2
Flags: W
AnchorPoint: "Anchor-10" 201.033 1456.03 basechar 0
AnchorPoint: "Anchor-7" 208.453 -210.144 basechar 0
LayerCount: 2
Fore
SplineSet
324.18 1428.27 m 1,0,-1
 324.18 263 l 2,1,2
 324.18 101.135 324.18 101.135 233.968 38.5508 c 2,3,-1
 176.612 -1.23926 l 1,4,-1
 71.3047 1218.21 l 1,5,-1
 258.621 1373.81 l 2,6,7
 291.4 1401.04 291.4 1401.04 324.18 1428.27 c 1,0,-1
EndSplineSet
Substitution2: "'fina' Terminal Forms in Arabic lookup 9 subtable" uniFE8E
EndChar

StartChar: uni062D
Encoding: 1581 1581 18
Width: 1419
VWidth: 2327
GlyphClass: 2
Flags: W
AnchorPoint: "Anchor-10" 525.88 1312.22 basechar 0
AnchorPoint: "Anchor-7" 369.835 -755.086 basechar 0
LayerCount: 2
Fore
SplineSet
452.116 317.347 m 0,0,1
 272.061 177.713 272.061 177.713 275.726 -45.8848 c 0,2,3
 278.645 -224.648 278.645 -224.648 422.491 -315.081 c 0,4,5
 576.827 -412.107 576.827 -412.107 889.782 -381.912 c 0,6,7
 1112.56 -360.417 1112.56 -360.417 1249.97 -261.362 c 2,8,-1
 1321.82 -209.57 l 1,9,-1
 1310.43 -325.634 l 2,10,11
 1298.8 -444.124 1298.8 -444.124 1213.68 -520.686 c 128,-1,12
 1128.56 -597.247 1128.56 -597.247 980.196 -629.798 c 0,13,14
 895.794 -648.315 895.794 -648.315 805.142 -651.698 c 0,15,16
 656.898 -657.394 656.898 -657.394 541.352 -635.262 c 0,17,18
 326.45 -592.702 326.45 -592.702 202.9 -467.875 c 128,-1,19
 79.3506 -343.048 79.3506 -343.048 54.8184 -141.64 c 0,20,21
 31.2705 51.6846 31.2705 51.6846 111.83 214.289 c 128,-1,22
 192.39 376.895 192.39 376.895 372.662 503.741 c 0,23,24
 545.57 624.768 545.57 624.768 859.119 708.771 c 1,25,26
 832.168 721.292 832.168 721.292 801.867 737.012 c 0,27,28
 657.27 812.546 657.27 812.546 561.452 804.471 c 0,29,30
 459.363 795.866 459.363 795.866 364.197 607.606 c 2,31,-1
 352.382 584.232 l 1,32,-1
 312.453 586.498 l 2,33,34
 296.315 587.415 296.315 587.415 285.06 594.243 c 128,-1,35
 273.804 601.071 273.804 601.071 267.708 610.063 c 128,-1,36
 261.612 619.055 261.612 619.055 259.424 634.582 c 128,-1,37
 257.234 650.11 257.234 650.11 257.221 662.158 c 128,-1,38
 257.205 674.207 257.205 674.207 260.258 693.834 c 128,-1,39
 263.31 713.46 263.31 713.46 265.55 723.965 c 128,-1,40
 267.789 734.471 267.789 734.471 272.122 753.178 c 0,41,42
 274.625 763.988 274.625 763.988 275.703 768.878 c 0,43,44
 285.584 813.697 285.584 813.697 318.692 881.941 c 0,45,46
 354.084 955.08 354.084 955.08 414.769 994.739 c 128,-1,47
 475.452 1034.4 475.452 1034.4 555.546 1036.48 c 0,48,49
 694.468 1040.83 694.468 1040.83 939.836 900.494 c 0,50,51
 1046.57 839.46 1046.57 839.46 1260.03 815.999 c 2,52,-1
 1301.89 811.398 l 1,53,-1
 1267.18 597.446 l 1,54,-1
 1238.5 592.976 l 2,55,56
 700.643 509.113 700.643 509.113 452.116 317.347 c 0,0,1
EndSplineSet
Substitution2: "'fina' Terminal Forms in Arabic lookup 9 subtable" uniFEA2
Substitution2: "'medi' Medial Forms in Arabic lookup 11 subtable" uniFEA4
Substitution2: "'init' Initial Forms in Arabic lookup 13 subtable" uniFEA3
EndChar

StartChar: uni062F
Encoding: 1583 1583 20
Width: 966
VWidth: 2325
GlyphClass: 2
Flags: W
AnchorPoint: "Anchor-10" 228.131 1183.75 basechar 0
AnchorPoint: "Anchor-7" 280.202 -206.157 basechar 0
LayerCount: 2
Fore
SplineSet
677.032 343.323 m 1,0,1
 611.014 524.079 611.014 524.079 372.418 683.593 c 2,2,-1
 346.276 701.069 l 1,3,-1
 452.323 990.727 l 1,4,-1
 496.101 953.165 l 2,5,6
 759.666 727.021 759.666 727.021 832.828 516.965 c 0,7,8
 885.583 365.5 885.583 365.5 873.797 272.822 c 0,9,10
 865.473 207.34 865.473 207.34 841.285 155.321 c 1,11,12
 796.068 47.1328 796.068 47.1328 663.729 3.06641 c 128,-1,13
 531.39 -41.001 531.39 -41.001 317.479 -31.333 c 1,14,-1
 277.887 -28.6221 l 1,15,-1
 276.398 -28.4072 l 2,16,17
 168.512 -12.8164 168.512 -12.8164 109.433 50.3926 c 128,-1,18
 50.3535 113.602 50.3535 113.602 50.6172 216.232 c 2,19,-1
 51.0176 372.013 l 1,20,-1
 73.0137 383.051 l 2,21,22
 89.5869 391.368 89.5869 391.368 108.075 390.179 c 0,23,24
 120.513 389.378 120.513 389.378 132.888 384.203 c 2,25,-1
 154.06 375.348 l 1,26,-1
 157.102 352.602 l 2,27,28
 164.898 294.29 164.898 294.29 205.475 264.262 c 128,-1,29
 246.05 234.234 246.05 234.234 332.431 229.812 c 0,30,31
 567.714 217.351 567.714 217.351 661.593 271.454 c 0,32,33
 677.713 280.853 677.713 280.853 681.559 294.405 c 128,-1,34
 685.404 307.958 685.404 307.958 677.032 343.323 c 1,0,1
EndSplineSet
Substitution2: "'fina' Terminal Forms in Arabic lookup 9 subtable" uniFEAA
EndChar

StartChar: uni0631
Encoding: 1585 1585 22
Width: 896
VWidth: 2330
GlyphClass: 2
Flags: W
AnchorPoint: "Anchor-7" 574.396 -631.688 basechar 0
AnchorPoint: "Anchor-10" 487.274 1036.23 basechar 0
LayerCount: 2
Fore
SplineSet
528.867 422.81 m 5,0,-1
 677.234 691.323 l 5,1,-1
 711.706 625.373 l 6,2,3
 812.936 431.691 812.936 431.691 808.776 165.544 c 6,4,-1
 808.751 163.93 l 5,5,-1
 808.539 161.733 l 6,6,7
 784.899 -80.5537 784.899 -80.5537 675.023 -218.737 c 132,-1,8
 565.147 -356.921 565.147 -356.921 371.635 -379.725 c 4,9,10
 188.276 -401.333 188.276 -401.333 32.457 -257.28 c 6,11,-1
 -31.7783 -197.896 l 5,12,-1
 55.1582 -188.157 l 6,13,14
 350.425 -155.085 350.425 -155.085 490.507 -48.3809 c 132,-1,15
 630.59 58.3232 630.59 58.3232 631.953 238.465 c 4,16,17
 631.953 245.68 631.953 245.68 623.571 265.755 c 132,-1,18
 615.189 285.831 615.189 285.831 593.844 323.188 c 132,-1,19
 572.497 360.546 572.497 360.546 543.195 402.362 c 6,20,-1
 528.867 422.81 l 5,0,-1
EndSplineSet
PairPos2: "'kern' Horizontal Kerning lookup 15-1" uni06CC dx=-141 dy=0 dh=-141 dv=0 dx=0 dy=0 dh=0 dv=0
PairPos2: "'kern' Horizontal Kerning lookup 15-1" uniFEEB dx=-213 dy=0 dh=-213 dv=0 dx=0 dy=0 dh=0 dv=0
PairPos2: "'kern' Horizontal Kerning lookup 15-1" uniFB7C dx=-141 dy=0 dh=-141 dv=0 dx=0 dy=0 dh=0 dv=0
PairPos2: "'kern' Horizontal Kerning lookup 15-1" uniFB58 dx=71 dy=0 dh=71 dv=0 dx=0 dy=0 dh=0 dv=0
PairPos2: "'kern' Horizontal Kerning lookup 15-1" uniFEF3 dx=99 dy=0 dh=99 dv=0 dx=0 dy=0 dh=0 dv=0
PairPos2: "'kern' Horizontal Kerning lookup 15-1" uniFBFE dx=99 dy=0 dh=99 dv=0 dx=0 dy=0 dh=0 dv=0
PairPos2: "'kern' Horizontal Kerning lookup 15-1" uniFEDF dx=-213 dy=0 dh=-213 dv=0 dx=0 dy=0 dh=0 dv=0
PairPos2: "'kern' Horizontal Kerning lookup 15-1" uniFB90 dx=-213 dy=0 dh=-213 dv=0 dx=0 dy=0 dh=0 dv=0
PairPos2: "'kern' Horizontal Kerning lookup 15-1" uni06A9 dx=-213 dy=0 dh=-213 dv=0 dx=0 dy=0 dh=0 dv=0
PairPos2: "'kern' Horizontal Kerning lookup 15-1" uni0649 dx=-141 dy=0 dh=-141 dv=0 dx=0 dy=0 dh=0 dv=0
PairPos2: "'kern' Horizontal Kerning lookup 15-1" uni0647 dx=-213 dy=0 dh=-213 dv=0 dx=0 dy=0 dh=0 dv=0
PairPos2: "'kern' Horizontal Kerning lookup 15-1" uniFEE7 dx=-213 dy=0 dh=-213 dv=0 dx=0 dy=0 dh=0 dv=0
PairPos2: "'kern' Horizontal Kerning lookup 15-1" uniFEE3 dx=-213 dy=0 dh=-213 dv=0 dx=0 dy=0 dh=0 dv=0
PairPos2: "'kern' Horizontal Kerning lookup 15-1" uni0645 dx=-213 dy=0 dh=-213 dv=0 dx=0 dy=0 dh=0 dv=0
PairPos2: "'kern' Horizontal Kerning lookup 15-1" uni0644 dx=-141 dy=0 dh=-141 dv=0 dx=0 dy=0 dh=0 dv=0
PairPos2: "'kern' Horizontal Kerning lookup 15-1" uniFEDB dx=-213 dy=0 dh=-213 dv=0 dx=0 dy=0 dh=0 dv=0
PairPos2: "'kern' Horizontal Kerning lookup 15-1" uniFED7 dx=-213 dy=0 dh=-213 dv=0 dx=0 dy=0 dh=0 dv=0
PairPos2: "'kern' Horizontal Kerning lookup 15-1" uni0642 dx=-141 dy=0 dh=-141 dv=0 dx=0 dy=0 dh=0 dv=0
PairPos2: "'kern' Horizontal Kerning lookup 15-1" uniFED3 dx=-213 dy=0 dh=-213 dv=0 dx=0 dy=0 dh=0 dv=0
PairPos2: "'kern' Horizontal Kerning lookup 15-1" uni0641 dx=-213 dy=0 dh=-213 dv=0 dx=0 dy=0 dh=0 dv=0
PairPos2: "'kern' Horizontal Kerning lookup 15-1" uniFECF dx=-213 dy=0 dh=-213 dv=0 dx=0 dy=0 dh=0 dv=0
PairPos2: "'kern' Horizontal Kerning lookup 15-1" uniFECB dx=-213 dy=0 dh=-213 dv=0 dx=0 dy=0 dh=0 dv=0
PairPos2: "'kern' Horizontal Kerning lookup 15-1" uniFEC7 dx=-213 dy=0 dh=-213 dv=0 dx=0 dy=0 dh=0 dv=0
PairPos2: "'kern' Horizontal Kerning lookup 15-1" uni0638 dx=-213 dy=0 dh=-213 dv=0 dx=0 dy=0 dh=0 dv=0
PairPos2: "'kern' Horizontal Kerning lookup 15-1" uniFEC3 dx=-213 dy=0 dh=-213 dv=0 dx=0 dy=0 dh=0 dv=0
PairPos2: "'kern' Horizontal Kerning lookup 15-1" uni0637 dx=-213 dy=0 dh=-213 dv=0 dx=0 dy=0 dh=0 dv=0
PairPos2: "'kern' Horizontal Kerning lookup 15-1" uniFEBF dx=-213 dy=0 dh=-213 dv=0 dx=0 dy=0 dh=0 dv=0
PairPos2: "'kern' Horizontal Kerning lookup 15-1" uni0636 dx=-213 dy=0 dh=-213 dv=0 dx=0 dy=0 dh=0 dv=0
PairPos2: "'kern' Horizontal Kerning lookup 15-1" uniFEBB dx=-213 dy=0 dh=-213 dv=0 dx=0 dy=0 dh=0 dv=0
PairPos2: "'kern' Horizontal Kerning lookup 15-1" uni0635 dx=-213 dy=0 dh=-213 dv=0 dx=0 dy=0 dh=0 dv=0
PairPos2: "'kern' Horizontal Kerning lookup 15-1" uniFEB7 dx=-213 dy=0 dh=-213 dv=0 dx=0 dy=0 dh=0 dv=0
PairPos2: "'kern' Horizontal Kerning lookup 15-1" uni0634 dx=-213 dy=0 dh=-213 dv=0 dx=0 dy=0 dh=0 dv=0
PairPos2: "'kern' Horizontal Kerning lookup 15-1" uniFEB3 dx=-213 dy=0 dh=-213 dv=0 dx=0 dy=0 dh=0 dv=0
PairPos2: "'kern' Horizontal Kerning lookup 15-1" uni0633 dx=-213 dy=0 dh=-213 dv=0 dx=0 dy=0 dh=0 dv=0
PairPos2: "'kern' Horizontal Kerning lookup 15-1" uni0630 dx=-213 dy=0 dh=-213 dv=0 dx=0 dy=0 dh=0 dv=0
PairPos2: "'kern' Horizontal Kerning lookup 15-1" uni062F dx=-213 dy=0 dh=-213 dv=0 dx=0 dy=0 dh=0 dv=0
PairPos2: "'kern' Horizontal Kerning lookup 15-1" uniFEA7 dx=-213 dy=0 dh=-213 dv=0 dx=0 dy=0 dh=0 dv=0
PairPos2: "'kern' Horizontal Kerning lookup 15-1" uniFEA3 dx=-213 dy=0 dh=-213 dv=0 dx=0 dy=0 dh=0 dv=0
PairPos2: "'kern' Horizontal Kerning lookup 15-1" uniFE9F dx=-213 dy=0 dh=-213 dv=0 dx=0 dy=0 dh=0 dv=0
PairPos2: "'kern' Horizontal Kerning lookup 15-1" uniFE9B dx=-213 dy=0 dh=-213 dv=0 dx=0 dy=0 dh=0 dv=0
PairPos2: "'kern' Horizontal Kerning lookup 15-1" uni062B dx=-213 dy=0 dh=-213 dv=0 dx=0 dy=0 dh=0 dv=0
PairPos2: "'kern' Horizontal Kerning lookup 15-1" uniFE97 dx=-213 dy=0 dh=-213 dv=0 dx=0 dy=0 dh=0 dv=0
PairPos2: "'kern' Horizontal Kerning lookup 15-1" uni062A dx=-213 dy=0 dh=-213 dv=0 dx=0 dy=0 dh=0 dv=0
PairPos2: "'kern' Horizontal Kerning lookup 15-1" uni0629 dx=-99 dy=0 dh=-99 dv=0 dx=0 dy=0 dh=0 dv=0
PairPos2: "'kern' Horizontal Kerning lookup 15-1" uniFE91 dx=-99 dy=0 dh=-99 dv=0 dx=0 dy=0 dh=0 dv=0
PairPos2: "'kern' Horizontal Kerning lookup 15-1" uni0628 dx=-213 dy=0 dh=-213 dv=0 dx=0 dy=0 dh=0 dv=0
PairPos2: "'kern' Horizontal Kerning lookup 15-1" uni0627 dx=-241 dy=0 dh=-241 dv=0 dx=0 dy=0 dh=0 dv=0
PairPos2: "'kern' Horizontal Kerning lookup 15-1" uni0622 dx=-241 dy=0 dh=-241 dv=0 dx=0 dy=0 dh=0 dv=0
PairPos2: "'kern' Horizontal Kerning lookup 15-1" uniFB94 dx=-213 dy=0 dh=-213 dv=0 dx=0 dy=0 dh=0 dv=0
PairPos2: "'kern' Horizontal Kerning lookup 15-1" afii57509 dx=-213 dy=0 dh=-213 dv=0 dx=0 dy=0 dh=0 dv=0
PairPos2: "'kern' Horizontal Kerning lookup 15-1" uniFB56 dx=-213 dy=0 dh=-213 dv=0 dx=0 dy=0 dh=0 dv=0
PairPos2: "'kern' Horizontal Kerning lookup 15-1" afii57506 dx=-213 dy=0 dh=-213 dv=0 dx=0 dy=0 dh=0 dv=0
Substitution2: "'fina' Terminal Forms in Arabic lookup 9 subtable" uniFEAE
EndChar

StartChar: uni0633
Encoding: 1587 1587 24
Width: 2305
VWidth: 2330
GlyphClass: 2
Flags: W
AnchorPoint: "Anchor-7" 296.459 -670.369 basechar 0
AnchorPoint: "Anchor-10" 499.989 930.793 basechar 0
LayerCount: 2
Fore
SplineSet
1422.29 -0.000976562 m 1,0,-1
 1384.77 -0.954102 l 2,1,2
 1340.04 -2.08984 1340.04 -2.08984 1303.09 16.9629 c 1,3,4
 1257.31 -224.814 1257.31 -224.814 1096.03 -350.535 c 128,-1,5
 934.753 -476.255 934.753 -476.255 667.816 -481.355 c 0,6,7
 282.611 -488.41 282.611 -488.41 130.827 -270.362 c 0,8,9
 11.9824 -98.2607 11.9824 -98.2607 75.3242 156.867 c 0,10,11
 91.6172 221.885 91.6172 221.885 127.059 326.217 c 0,12,13
 149.657 392.74 149.657 392.74 169.72 435.952 c 2,14,-1
 189.239 477.996 l 1,15,-1
 322.611 390.317 l 1,16,-1
 312.16 360.771 l 2,17,18
 213.931 83.0527 213.931 83.0527 273.371 -43.2744 c 0,19,20
 364.426 -236.79 364.426 -236.79 662.172 -231.81 c 0,21,22
 883.814 -228.042 883.814 -228.042 992.79 -160.665 c 128,-1,23
 1101.77 -93.2881 1101.77 -93.2881 1115.01 35.4668 c 1,24,-1
 977.753 459.815 l 1,25,-1
 1199.14 669.28 l 1,26,-1
 1212.65 597.157 l 2,27,28
 1249.69 399.357 1249.69 399.357 1274.71 333.344 c 0,29,30
 1277.54 325.862 1277.54 325.862 1280.06 320.556 c 0,31,32
 1299.14 280.392 1299.14 280.392 1324.94 263.949 c 128,-1,33
 1350.75 247.507 1350.75 247.507 1389.56 249.347 c 2,34,-1
 1424.45 251.001 l 1,35,-1
 1425.6 250.99 l 2,36,37
 1488.53 250.365 1488.53 250.365 1524.65 272.475 c 128,-1,38
 1560.76 294.585 1560.76 294.585 1578.8 342.091 c 0,39,40
 1580.74 347.196 1580.74 347.196 1582.49 352.673 c 2,41,-1
 1599 473.637 l 1,42,-1
 1599.12 474.998 l 2,43,44
 1602.44 511.855 1602.44 511.855 1621.36 539.424 c 128,-1,45
 1640.29 566.992 1640.29 566.992 1677.11 567.301 c 0,46,47
 1714.15 567.628 1714.15 567.628 1737.03 542.231 c 128,-1,48
 1759.92 516.834 1759.92 516.834 1762.88 479.48 c 1,49,-1
 1764.03 456.094 l 2,50,51
 1769.16 351.212 1769.16 351.212 1801.76 306.438 c 128,-1,52
 1834.36 261.664 1834.36 261.664 1894.95 259.643 c 0,53,54
 1899.87 259.657 1899.87 259.657 1904.31 259.81 c 0,55,56
 1968.89 262.026 1968.89 262.026 1994.36 289.495 c 128,-1,57
 2019.82 316.964 2019.82 316.964 2017.45 382.171 c 0,58,59
 2016.86 389.487 2016.86 389.487 2004.61 418.984 c 128,-1,60
 1992.36 448.48 1992.36 448.48 1964.26 505.523 c 128,-1,61
 1936.15 562.566 1936.15 562.566 1899.9 628.306 c 2,62,-1
 1884.63 655.996 l 1,63,-1
 2091.41 843.611 l 1,64,65
 2095.57 835.472 2095.57 835.472 2103.13 819.18 c 128,-1,66
 2110.69 802.887 2110.69 802.887 2114.56 795.047 c 0,67,68
 2203.44 608.536 2203.44 608.536 2213.47 433.909 c 0,69,70
 2224.67 239.084 2224.67 239.084 2127.9 124 c 0,71,72
 2021.48 -3.96484 2021.48 -3.96484 1887.59 0.518555 c 1,73,74
 1817.13 0.101562 1817.13 0.101562 1774.85 20.3896 c 0,75,76
 1703.01 54.8574 1703.01 54.8574 1659.16 119.885 c 1,77,78
 1580.43 0.245117 1580.43 0.245117 1422.29 -0.000976562 c 1,0,-1
EndSplineSet
Substitution2: "'fina' Terminal Forms in Arabic lookup 9 subtable" uniFEB2
Substitution2: "'medi' Medial Forms in Arabic lookup 11 subtable" uniFEB4
Substitution2: "'init' Initial Forms in Arabic lookup 13 subtable" uniFEB3
EndChar

StartChar: uni0635
Encoding: 1589 1589 26
Width: 2444
VWidth: 2331
GlyphClass: 2
Flags: W
AnchorPoint: "Anchor-10" 388.398 932.124 basechar 0
AnchorPoint: "Anchor-7" 351.298 -708.756 basechar 0
LayerCount: 2
Fore
SplineSet
191.025 482.759 m 1,0,-1
 318.638 379.249 l 1,1,-1
 309.734 352.899 l 2,2,3
 217.456 79.8125 217.456 79.8125 275.371 -43.2744 c 0,4,5
 366.426 -236.79 366.426 -236.79 664.172 -231.81 c 0,6,7
 885.814 -228.042 885.814 -228.042 994.79 -160.665 c 128,-1,8
 1103.77 -93.2881 1103.77 -93.2881 1117.01 35.4668 c 1,9,-1
 979.753 459.815 l 1,10,-1
 1201.14 669.279 l 1,11,-1
 1214.65 597.157 l 2,12,13
 1257.2 369.919 1257.2 369.919 1281.65 321.396 c 0,14,15
 1291.92 301.009 1291.92 301.009 1301.12 298.369 c 128,-1,16
 1310.32 295.729 1310.32 295.729 1336.88 307.664 c 1,17,18
 1459.16 447.816 1459.16 447.816 1682.47 623.817 c 0,19,20
 1861.88 765.22 1861.88 765.22 1999.88 780.166 c 0,21,22
 2147.12 796.331 2147.12 796.331 2236.82 717.796 c 128,-1,23
 2326.52 639.26 2326.52 639.26 2348.8 478.974 c 0,24,25
 2366.9 348.778 2366.9 348.778 2312.41 249.043 c 128,-1,26
 2257.92 149.309 2257.92 149.309 2136.06 87.9229 c 0,27,28
 1958.98 -1.27148 1958.98 -1.27148 1742.71 -0.710938 c 2,29,-1
 1468.18 0 l 2,30,31
 1373.12 0.246094 1373.12 0.246094 1307.95 32.9033 c 1,32,33
 1265.35 -216.352 1265.35 -216.352 1103.29 -346.261 c 128,-1,34
 941.235 -476.169 941.235 -476.169 669.816 -481.355 c 0,35,36
 284.611 -488.41 284.611 -488.41 132.827 -270.362 c 0,37,38
 13.9824 -98.2607 13.9824 -98.2607 77.3242 156.867 c 0,39,40
 93.6152 221.876 93.6152 221.876 129.059 326.217 c 0,41,42
 156.385 406.662 156.385 406.662 169.595 435.68 c 2,43,-1
 191.025 482.759 l 1,0,-1
1577.94 259.099 m 1,44,-1
 1681.56 259.099 l 2,45,46
 1887.33 259.099 1887.33 259.099 2056.7 313.738 c 0,47,48
 2112.72 331.812 2112.72 331.812 2133.74 360.198 c 128,-1,49
 2154.75 388.585 2154.75 388.585 2150.07 434.866 c 0,50,51
 2141.6 518.719 2141.6 518.719 2107.32 549.573 c 128,-1,52
 2073.05 580.428 2073.05 580.428 2002.53 572.163 c 0,53,54
 1905.32 560.771 1905.32 560.771 1761.65 434.489 c 0,55,56
 1643.69 329.752 1643.69 329.752 1577.94 259.099 c 1,44,-1
EndSplineSet
Substitution2: "'fina' Terminal Forms in Arabic lookup 9 subtable" uniFEBA
Substitution2: "'medi' Medial Forms in Arabic lookup 11 subtable" uniFEBC
Substitution2: "'init' Initial Forms in Arabic lookup 13 subtable" uniFEBB
EndChar

StartChar: uni0637
Encoding: 1591 1591 28
Width: 1434
VWidth: 2331
GlyphClass: 2
Flags: W
AnchorPoint: "Anchor-10" 258.828 1441.61 basechar 0
AnchorPoint: "Anchor-7" 706.148 -277.606 basechar 0
LayerCount: 2
Fore
SplineSet
144.003 1220.12 m 5,0,-1
 395.805 1429.29 l 1,1,-1
 395.111 371.386 l 1,2,3
 511.122 494.857 511.122 494.857 676.285 624.451 c 0,4,5
 855.612 765.814 855.612 765.814 993.648 780.763 c 0,6,7
 1140.89 796.928 1140.89 796.928 1230.59 718.393 c 128,-1,8
 1320.29 639.856 1320.29 639.856 1342.57 479.569 c 0,9,10
 1360.67 349.374 1360.67 349.374 1306.18 249.64 c 128,-1,11
 1251.69 149.905 1251.69 149.905 1129.83 88.5205 c 0,12,13
 952.766 -0.674535 952.766 -0.674535 736.481 -0.114258 c 2,14,-1
 462.037 0.59668 l 1,15,-1
 204.199 0.140625 l 2,16,17
 113.159 -0.0204033 113.159 -0.0204033 62.7793 54.6426 c 0,18,19
 12.6963 108.982 12.6963 108.982 12.6963 204 c 2,20,-1
 12.6963 258.951 l 1,21,-1
 216.221 258.985 l 1,22,23
 144.003 1220.12 l 5,0,-1
572.408 259.695 m 1,25,-1
 675.335 259.695 l 2,26,27
 835.604 259.695 835.604 259.695 901.797 271.189 c 0,28,29
 1038.88 293.511 1038.88 293.511 1094.24 335.386 c 128,-1,30
 1149.61 377.261 1149.61 377.261 1143.84 435.523 c 0,31,32
 1135.37 519.306 1135.37 519.306 1101.09 550.164 c 128,-1,33
 1066.81 581.022 1066.81 581.022 996.296 572.759 c 0,34,35
 908.711 562.495 908.711 562.495 754.52 434.304 c 0,36,37
 654.997 351.557 654.997 351.557 572.408 259.695 c 1,25,-1
EndSplineSet
Substitution2: "'fina' Terminal Forms in Arabic lookup 9 subtable" uniFEC2
Substitution2: "'medi' Medial Forms in Arabic lookup 11 subtable" uniFEC4
Substitution2: "'init' Initial Forms in Arabic lookup 13 subtable" uniFEC3
EndChar

StartChar: uni0639
Encoding: 1593 1593 30
Width: 1419
VWidth: 2327
GlyphClass: 2
Flags: W
AnchorPoint: "Anchor-10" 540.969 1522.94 basechar 0
AnchorPoint: "Anchor-7" 294.953 -745.751 basechar 0
LayerCount: 2
Fore
SplineSet
54.6855 -181.388 m 0,0,1
 19.4922 207.243 19.4922 207.243 322.96 447.097 c 1,2,3
 199.232 526.684 199.232 526.684 153.608 633.386 c 128,-1,4
 107.984 740.088 107.984 740.088 145.548 866.75 c 0,5,6
 179.509 981.195 179.509 981.195 247.338 1043.66 c 0,7,8
 331.536 1121.21 331.536 1121.21 418.949 1137.7 c 0,9,10
 564.445 1165.13 564.445 1165.13 677.734 1137.66 c 0,11,12
 764.18 1116.2 764.18 1116.2 816.697 1062.88 c 2,13,-1
 826.852 1052.57 l 1,14,-1
 817.949 867.695 l 1,15,16
 681.284 942.24 681.284 942.24 534.38 926.396 c 4,17,18
 452.444 917.559 452.444 917.559 411.655 882.171 c 128,-1,19
 370.865 846.783 370.865 846.783 361.296 779.781 c 0,20,21
 345.372 667.747 345.372 667.747 493.924 561.626 c 1,22,23
 713.532 622.853 713.532 622.853 903.927 638.492 c 2,24,-1
 955.643 642.74 l 1,25,-1
 913.02 402.223 l 1,26,-1
 881.145 400.673 l 2,27,28
 598.118 386.91 598.118 386.91 452.986 276.246 c 1,29,30
 272.075 136.653 272.075 136.653 275.726 -86.875 c 0,31,32
 278.829 -274.117 278.829 -274.117 421.562 -358.514 c 0,33,34
 551.043 -435.075 551.043 -435.075 850.152 -412.133 c 0,35,36
 1099.75 -392.988 1099.75 -392.988 1260.75 -275.396 c 2,37,-1
 1332.87 -222.722 l 1,38,-1
 1321.41 -339.521 l 2,39,40
 1307.69 -479.359 1307.69 -479.359 1199.16 -564.485 c 128,-1,41
 1090.63 -649.611 1090.63 -649.611 899.631 -679.729 c 0,42,43
 696.846 -711.705 696.846 -711.705 508.562 -671.1 c 0,44,45
 302.982 -626.737 302.982 -626.737 187.602 -502.711 c 128,-1,46
 72.2197 -378.684 72.2197 -378.684 54.6855 -181.388 c 0,0,1
EndSplineSet
Substitution2: "'fina' Terminal Forms in Arabic lookup 9 subtable" uniFECA
Substitution2: "'medi' Medial Forms in Arabic lookup 11 subtable" uniFECC
Substitution2: "'init' Initial Forms in Arabic lookup 13 subtable" uniFECB
EndChar

StartChar: afii57440
Encoding: 1600 1600 32
Width: 661
VWidth: 2346
GlyphClass: 2
Flags: W
AnchorPoint: "Anchor-10" 321 1385.9 basechar 0
AnchorPoint: "Anchor-7" 321 -88.5596 basechar 0
LayerCount: 2
Fore
SplineSet
-62.8643 -5.06934 m 1,0,-1
 -62.8643 254.049 l 1,1,-1
 704.864 254.049 l 1,2,-1
 704.864 -5.06934 l 1,3,-1
 -62.8643 -5.06934 l 1,0,-1
EndSplineSet
EndChar

StartChar: uni0643
Encoding: 1603 1603 35
Width: 1773
VWidth: 2307
GlyphClass: 2
Flags: W
AnchorPoint: "Anchor-10" 469.786 1477.38 basechar 0
AnchorPoint: "Anchor-7" 502.908 -241.096 basechar 0
LayerCount: 2
Fore
SplineSet
928.869 -0.537109 m 0,0,1
 452.246 -17.6787 452.246 -17.6787 257.238 84.2246 c 0,2,3
 44.3945 195.444 44.3945 195.444 51.3115 517.451 c 0,4,5
 54.2051 653.209 54.2051 653.209 110.154 762.396 c 2,6,-1
 121.336 784.216 l 1,7,-1
 256.432 783.875 l 1,8,-1
 245.839 735.452 l 2,9,10
 230.705 666.269 230.705 666.269 224.519 610.583 c 0,11,12
 219.622 566.512 219.622 566.512 221.454 514.994 c 0,13,14
 224.869 418.898 224.869 418.898 304.568 358.271 c 128,-1,15
 384.268 297.643 384.268 297.643 555.278 273.334 c 0,16,17
 650.747 259.764 650.747 259.764 963.312 259.172 c 0,18,19
 1063.58 259.048 1063.58 259.048 1139.38 271.647 c 0,20,21
 1426.6 320.316 1426.6 320.316 1438.84 456.961 c 2,22,-1
 1442.72 502.183 l 1,23,24
 1397.27 1140.24 1397.27 1140.24 1381.48 1312.04 c 2,25,-1
 1379.55 1333.01 l 1,26,-1
 1632.72 1543.32 l 1,27,-1
 1632.72 469.125 l 1,28,-1
 1629.85 410.135 l 1,29,30
 1624.51 334.69 1624.51 334.69 1609.41 294.827 c 0,31,32
 1576.34 207.588 1576.34 207.588 1487.13 144.364 c 0,33,34
 1338.49 39.0342 1338.49 39.0342 1178.12 22.4121 c 0,35,36
 971.5 0.99707 971.5 0.99707 928.869 -0.537109 c 0,0,1
1048.64 1336.82 m 1,37,-1
 1048.64 1201.98 l 1,38,-1
 1011.58 1199.25 l 2,39,40
 943.312 1194.22 943.312 1194.22 907.908 1181.17 c 0,41,42
 877.236 1169.67 877.236 1169.67 858.214 1157.06 c 128,-1,43
 839.192 1144.46 839.192 1144.46 835.03 1138.43 c 128,-1,44
 830.869 1132.4 830.869 1132.4 830.869 1129.36 c 0,45,46
 830.869 1104.77 830.869 1104.77 842.309 1090.07 c 0,47,48
 844.56 1088.12 844.56 1088.12 852.919 1084.69 c 128,-1,49
 861.277 1081.26 861.277 1081.26 879.608 1076.42 c 128,-1,50
 897.938 1071.57 897.938 1071.57 919.606 1068.39 c 0,51,52
 984.086 1058.9 984.086 1058.9 1019.56 1026.51 c 0,53,54
 1058.47 990.964 1058.47 990.964 1058.47 930.869 c 0,55,56
 1058.47 869.676 1058.47 869.676 1028.76 820.873 c 128,-1,57
 999.054 772.07 999.054 772.07 943.599 740.711 c 0,58,59
 861.605 694.342 861.605 694.342 751.158 693.317 c 0,60,61
 684.126 693.317 684.126 693.317 625.087 703.178 c 2,62,-1
 591.677 708.759 l 1,63,-1
 591.677 850.208 l 1,64,-1
 636.904 844.247 l 2,65,66
 698.709 836.101 698.709 836.101 740.762 836.101 c 0,67,68
 812.471 836.101 812.471 836.101 856.684 853.508 c 0,69,70
 920.598 878.054 920.598 878.054 920.598 908.185 c 0,71,72
 920.598 916.976 920.598 916.976 917.071 923.332 c 128,-1,73
 913.544 929.688 913.544 929.688 897.09 937.432 c 128,-1,74
 880.635 945.174 880.635 945.174 850.76 949.727 c 0,75,76
 777.328 960.916 777.328 960.916 735.383 1003.82 c 0,77,78
 690.949 1049.26 690.949 1049.26 692.626 1126.42 c 0,79,80
 693.877 1177.02 693.877 1177.02 719.581 1216.61 c 128,-1,81
 745.285 1256.21 745.285 1256.21 791.429 1279.59 c 0,82,83
 883.905 1326.38 883.905 1326.38 1006.11 1334.12 c 2,84,-1
 1048.64 1336.82 l 1,37,-1
EndSplineSet
Substitution2: "'fina' Terminal Forms in Arabic lookup 9 subtable" uniFEDA
Substitution2: "'medi' Medial Forms in Arabic lookup 11 subtable" uniFEDC
Substitution2: "'init' Initial Forms in Arabic lookup 13 subtable" uniFEDB
EndChar

StartChar: uni0644
Encoding: 1604 1604 36
Width: 1433
VWidth: 2370
GlyphClass: 2
Flags: W
AnchorPoint: "Anchor-10" 568.887 1088.06 basechar 0
AnchorPoint: "Anchor-7" 390.854 -515.884 basechar 0
LayerCount: 2
Fore
SplineSet
1296.99 118.646 m 2,0,1
 1254.51 -130.979 1254.51 -130.979 1092.55 -261.262 c 128,-1,2
 930.435 -391.667 930.435 -391.667 659.133 -396.636 c 0,3,4
 273.931 -403.69 273.931 -403.69 122.143 -185.641 c 0,5,6
 3.02637 -13.1504 3.02637 -13.1504 66.6973 241.807 c 0,7,8
 82.7256 305.989 82.7256 305.989 118.375 410.937 c 0,9,10
 140.972 477.46 140.972 477.46 161.036 520.673 c 2,11,-1
 179.402 560.229 l 1,12,-1
 315.672 482.02 l 1,13,-1
 304.361 450.493 l 2,14,15
 203.701 169.919 203.701 169.919 264.657 41.5107 c 0,16,17
 310.101 -55.0703 310.101 -55.0703 405.255 -102.359 c 128,-1,18
 500.409 -149.647 500.409 -149.647 653.5 -147.09 c 0,19,20
 880.052 -143.304 880.052 -143.304 990.447 -72.5566 c 128,-1,21
 1100.84 -1.81055 1100.84 -1.81055 1112 134.79 c 0,22,23
 1113.74 158.077 1113.74 158.077 1116.43 193.638 c 0,24,25
 1118.35 222.203 1118.35 222.203 1113.92 285.035 c 2,26,-1
 1048.2 1216.99 l 1,27,-1
 1300.83 1426.85 l 5,28,-1
 1300.83 511.488 l 2,29,30
 1300.83 152.03 1300.83 152.03 1297.29 120.805 c 2,31,-1
 1297.17 119.719 l 1,32,-1
 1296.99 118.646 l 2,0,1
EndSplineSet
Substitution2: "'fina' Terminal Forms in Arabic lookup 9 subtable" uniFEDE
Substitution2: "'medi' Medial Forms in Arabic lookup 11 subtable" uniFEE0
Substitution2: "'init' Initial Forms in Arabic lookup 13 subtable" uniFEDF
EndChar

StartChar: uni0645
Encoding: 1605 1605 37
Width: 1134
VWidth: 2348
GlyphClass: 2
Flags: W
AnchorPoint: "Anchor-10" 599.117 1103.54 basechar 0
AnchorPoint: "Anchor-7" 161.476 -673.894 basechar 0
LayerCount: 2
Fore
SplineSet
784.027 388.172 m 1,0,1
 805.446 426.108 805.446 426.108 809.999 436.175 c 0,2,3
 828.087 479.827 828.087 479.827 800.984 518.472 c 128,-1,4
 773.882 557.117 773.882 557.117 681.529 597.083 c 1,5,6
 631.46 617.581 631.46 617.581 601.339 612.208 c 128,-1,7
 571.219 606.836 571.219 606.836 545.882 576.34 c 1,8,9
 504.946 516.947 504.946 516.947 509.345 398.009 c 1,10,-1
 784.027 388.172 l 1,0,1
420.507 160.096 m 0,11,12
 295.246 160.096 295.246 160.096 265.371 102.054 c 0,13,14
 240.51 53.5654 240.51 53.5654 246.769 -75.8125 c 0,15,16
 260.729 -389.68 260.729 -389.68 262.73 -459.805 c 2,17,-1
 263.208 -476.524 l 1,18,-1
 51.9072 -697.254 l 1,19,-1
 51.9072 -42.6445 l 2,20,21
 51.9072 128.349 51.9072 128.349 110.361 239.604 c 0,22,23
 162.614 339.06 162.614 339.06 296.861 371.297 c 1,24,25
 292.723 610.445 292.723 610.445 417.164 745.647 c 0,26,27
 501.918 836.956 501.918 836.956 610.14 839.39 c 128,-1,28
 718.361 841.824 718.361 841.824 831.803 759.232 c 1,29,30
 1093.39 571.916 1093.39 571.916 1022.61 405.519 c 1,31,32
 950.853 233.546 950.853 233.546 901.333 172.562 c 0,33,34
 889.359 158.65 889.359 158.65 869.127 152.943 c 128,-1,35
 848.895 147.237 848.895 147.237 832.232 147.384 c 128,-1,36
 815.57 147.531 815.57 147.531 777.366 150.348 c 128,-1,37
 739.162 153.164 739.162 153.164 717.339 153.75 c 0,38,39
 528.099 160.096 528.099 160.096 420.507 160.096 c 0,11,12
EndSplineSet
Substitution2: "'init' Initial Forms in Arabic lookup 13 subtable" uniFEE3
Substitution2: "'medi' Medial Forms in Arabic lookup 11 subtable" uniFEE4
Substitution2: "'fina' Terminal Forms in Arabic lookup 9 subtable" uniFEE2
EndChar

StartChar: uni0647
Encoding: 1607 1607 39
Width: 889
VWidth: 2326
GlyphClass: 2
Flags: W
AnchorPoint: "Anchor-10" 372.637 1232.82 basechar 0
AnchorPoint: "Anchor-7" 276.113 -178.192 basechar 0
LayerCount: 2
Fore
SplineSet
245.828 373.419 m 0,0,1
 231.7 322.21 231.7 322.21 248.22 293.819 c 128,-1,2
 264.739 265.43 264.739 265.43 321.373 247.339 c 0,3,4
 408.697 218.864 408.697 218.864 497.733 244.085 c 0,5,6
 511.243 248.01 511.243 248.01 522.744 252.854 c 0,7,8
 570.326 272.898 570.326 272.898 580.144 304.743 c 128,-1,9
 589.96 336.588 589.96 336.588 563.669 402.716 c 1,10,11
 519.54 507.737 519.54 507.737 409.207 607.528 c 1,12,13
 271.464 463.795 271.464 463.795 245.828 373.419 c 0,0,1
93.6182 524.928 m 0,14,15
 155.123 639.879 155.123 639.879 289.673 762.14 c 1,16,-1
 274.18 774.796 l 1,17,-1
 354.836 969.85 l 1,18,-1
 396.793 933.415 l 2,19,20
 686.192 682.09 686.192 682.09 760.377 480.487 c 1,21,22
 807.059 357.577 807.059 357.577 787.28 252.299 c 128,-1,23
 767.502 147.021 767.502 147.021 680.519 73.2471 c 0,24,25
 591.981 -1.84473 591.981 -1.84473 419.977 -0.232422 c 0,26,27
 253.341 1.29199 253.341 1.29199 176.873 46.9287 c 0,28,29
 52.9746 119.109 52.9746 119.109 32.3105 232.177 c 0,30,31
 7.70996 364.367 7.70996 364.367 93.6182 524.928 c 0,14,15
EndSplineSet
Substitution2: "'fina' Terminal Forms in Arabic lookup 9 subtable" uniFEEA
Substitution2: "'medi' Medial Forms in Arabic lookup 11 subtable" uniFEEC
Substitution2: "'init' Initial Forms in Arabic lookup 13 subtable" uniFEEB
EndChar

StartChar: uni0648
Encoding: 1608 1608 40
Width: 889
VWidth: 2347
GlyphClass: 2
Flags: W
AnchorPoint: "Anchor-10" 414.024 1130.03 basechar 0
AnchorPoint: "Anchor-7" 335.608 -629.098 basechar 0
LayerCount: 2
Fore
SplineSet
483.724 576.743 m 0,0,1
 419.516 581.166 419.516 581.166 386.978 417.729 c 0,2,3
 381.362 390.094 381.362 390.094 381.154 367.829 c 0,4,5
 380.698 319.151 380.698 319.151 404.04 298.621 c 128,-1,6
 427.383 278.092 427.383 278.092 489.89 277.739 c 0,7,8
 548.961 277.397 548.961 277.397 599.931 286.047 c 1,9,10
 593.822 374.243 593.822 374.243 573.204 448.983 c 0,11,12
 538.822 573.188 538.822 573.188 483.724 576.743 c 0,0,1
561.453 29.1553 m 1,13,14
 525.972 25.8916 525.972 25.8916 481.535 27.8799 c 0,15,16
 313.741 35.1895 313.741 35.1895 233.694 148.124 c 0,17,18
 168.931 239.585 168.931 239.585 187.599 404.195 c 0,19,20
 210.091 598.416 210.091 598.416 304.271 700.644 c 0,21,22
 396.477 801.752 396.477 801.752 523.868 789.827 c 0,23,24
 600.909 782.615 600.909 782.615 663.951 720.002 c 0,25,26
 775.112 609.596 775.112 609.596 794.075 397.646 c 0,27,28
 814.273 171.881 814.273 171.881 794.409 81.2871 c 0,29,30
 747.411 -137.834 747.411 -137.834 640.201 -260.958 c 128,-1,31
 532.991 -384.082 532.991 -384.082 366.708 -400.646 c 1,32,33
 178.611 -417.724 178.611 -417.724 26.584 -276.639 c 2,34,-1
 -37.4141 -217.246 l 1,35,-1
 49.3584 -207.565 l 2,36,37
 449.912 -162.881 449.912 -162.881 561.453 29.1553 c 1,13,14
EndSplineSet
Substitution2: "'fina' Terminal Forms in Arabic lookup 9 subtable" uniFEEE
EndChar

StartChar: uni0649
Encoding: 1609 1609 41
Width: 1522
VWidth: 2344
GlyphClass: 2
Flags: W
AnchorPoint: "Anchor-10" 467.085 1061.11 basechar 0
AnchorPoint: "Anchor-7" 250.388 -537.419 basechar 0
LayerCount: 2
Fore
SplineSet
1340.14 -139.579 m 0,0,1
 1114.69 -393.682 1114.69 -393.682 654.389 -405.358 c 0,2,3
 395.415 -411.928 395.415 -411.928 241.302 -328.7 c 128,-1,4
 87.1885 -245.472 87.1885 -245.472 52.5967 -69.5508 c 1,5,6
 21.6807 94.9072 21.6807 94.9072 76.1758 288.226 c 0,7,8
 100.33 373.914 100.33 373.914 172.276 553.666 c 0,9,10
 193.853 607.575 193.853 607.575 238.946 688.381 c 1,11,-1
 377.704 620.524 l 1,12,13
 308.705 444.863 308.705 444.863 296.823 408.319 c 0,14,15
 281.619 361.559 281.619 361.559 263.792 279.702 c 0,16,17
 222.376 90.7266 222.376 90.7266 289.043 -27.2295 c 0,18,19
 325.827 -91.6836 325.827 -91.6836 432.053 -124.671 c 128,-1,20
 538.279 -157.659 538.279 -157.659 717.521 -151.027 c 0,21,22
 999.104 -140.609 999.104 -140.609 1164.16 -39.8574 c 0,23,24
 1203.5 -15.8428 1203.5 -15.8428 1225.05 11.0352 c 0,25,26
 1263.78 59.3427 1263.78 59.3427 1187.49 68.876 c 0,27,28
 1161.7 72.0977 1161.7 72.0977 1122.26 68.2695 c 0,29,30
 933.709 52.377 933.709 52.377 843.322 132.774 c 0,31,32
 783.939 184.316 783.939 184.316 774.383 262.619 c 128,-1,33
 764.825 340.923 764.825 340.923 801.835 428.79 c 1,34,35
 935.833 765.512 935.833 765.512 1184.75 787.996 c 0,36,37
 1278.05 796.748 1278.05 796.748 1335.07 749.605 c 128,-1,38
 1392.1 702.464 1392.1 702.464 1399.21 609.913 c 2,39,-1
 1404.71 538.517 l 1,40,-1
 1356.61 543.968 l 2,41,42
 1150.44 567.325 1150.44 567.325 1061.14 463.842 c 0,43,44
 963.497 351.056 963.497 351.056 995.042 306.348 c 0,45,46
 1013.23 280.572 1013.23 280.572 1117.84 281.511 c 0,47,48
 1245.2 283.364 1245.2 283.364 1320.54 245.349 c 0,49,50
 1427.83 190.105 1427.83 190.105 1431.82 87.1943 c 0,51,52
 1433.07 55.6172 1433.07 55.6172 1426.15 29.9395 c 0,53,54
 1401.33 -71.1826 1401.33 -71.1826 1340.14 -139.579 c 0,0,1
EndSplineSet
Substitution2: "'fina' Terminal Forms in Arabic lookup 9 subtable" uniFEF0
Substitution2: "'medi' Medial Forms in Arabic lookup 11 subtable" uniFBE9
Substitution2: "'init' Initial Forms in Arabic lookup 13 subtable" uniFBE8
EndChar

StartChar: uni064B
Encoding: 1611 1611 43
Width: 0
VWidth: 2186
GlyphClass: 4
Flags: W
AnchorPoint: "Anchor-10" 547.84 1041.5 mark 0
AnchorPoint: "Anchor-9" 547.84 1041.5 mark 0
AnchorPoint: "Anchor-1" 547.84 1576.5 basemark 0
AnchorPoint: "Anchor-1" 547.84 1041.5 mark 0
LayerCount: 2
Fore
SplineSet
269.4 977.41 m 5,0,-1
 269.4 1104.48 l 5,1,-1
 827.28 1332.79 l 5,2,-1
 827.28 1205.72 l 5,3,-1
 269.4 977.41 l 5,0,-1
269.4 1234.21 m 5,4,-1
 269.4 1361.28 l 5,5,-1
 827.28 1589.59 l 5,6,-1
 827.28 1462.52 l 5,7,-1
 269.4 1234.21 l 5,4,-1
EndSplineSet
EndChar

StartChar: uni064C
Encoding: 1612 1612 44
Width: 0
VWidth: 2186
GlyphClass: 4
Flags: W
AnchorPoint: "Anchor-10" 554.386 1155.44 mark 0
AnchorPoint: "Anchor-9" 554.386 1155.44 mark 0
AnchorPoint: "Anchor-1" 546.386 1810.94 basemark 0
AnchorPoint: "Anchor-1" 554.386 1155.44 mark 0
LayerCount: 2
Fore
SplineSet
567.219 1298.72 m 0,0,1
 608.391 1338.78 608.391 1338.78 631.845 1385.69 c 2,2,-1
 639.364 1400.73 l 1,3,-1
 622.913 1404.22 l 2,4,5
 589.558 1411.29 589.558 1411.29 566.532 1424.31 c 0,6,7
 457.736 1481.73 457.736 1481.73 457.736 1574.47 c 0,8,9
 457.736 1661.08 457.736 1661.08 526.365 1712.8 c 0,10,11
 552.86 1732.67 552.86 1732.67 615.937 1732.67 c 0,12,13
 688.759 1732.67 688.759 1732.67 727.738 1694.66 c 0,14,15
 782.696 1640.71 782.696 1640.71 782.696 1561.63 c 0,16,17
 782.696 1521.9 782.696 1521.9 770.46 1483.15 c 2,18,-1
 765.402 1467.14 l 1,19,-1
 782.175 1466.26 l 2,20,21
 802.247 1465.2 802.247 1465.2 817.806 1465.17 c 0,22,23
 831.205 1464.45 831.205 1464.45 845.826 1464.2 c 1,24,-1
 845.826 1372.44 l 1,25,26
 806.232 1372.69 806.232 1372.69 788.381 1374.48 c 2,27,-1
 723.27 1380.74 l 1,28,-1
 719.537 1371.99 l 2,29,30
 692.652 1308.91 692.652 1308.91 614.12 1227.24 c 1,31,32
 527.043 1139.14 527.043 1139.14 431.896 1139.14 c 0,33,34
 319.02 1139.14 319.02 1139.14 262.205 1295.39 c 0,35,36
 247.89 1334.51 247.89 1334.51 246.994 1442.7 c 1,37,-1
 317.299 1442.7 l 1,38,39
 318.143 1347.11 318.143 1347.11 331.307 1318.59 c 0,40,41
 372.26 1230.84 372.26 1230.84 431.896 1230.84 c 0,42,43
 497.076 1230.84 497.076 1230.84 567.219 1298.72 c 0,0,1
669.292 1482.64 m 1,44,-1
 680.316 1508.36 l 2,45,46
 690.996 1533.28 690.996 1533.28 690.996 1561.63 c 0,47,48
 690.996 1604.15 690.996 1604.15 668.07 1623.02 c 0,49,50
 646.28 1640.97 646.28 1640.97 620.217 1640.97 c 0,51,52
 591.787 1640.97 591.787 1640.97 575.875 1628.63 c 0,53,54
 551.576 1610.34 551.576 1610.34 551.576 1574.47 c 0,55,56
 551.576 1526.08 551.576 1526.08 607.898 1503.55 c 0,57,58
 629.803 1494.79 629.803 1494.79 658.123 1486.08 c 2,59,-1
 669.292 1482.64 l 1,44,-1
EndSplineSet
EndChar

StartChar: uni064D
Encoding: 1613 1613 45
Width: 0
VWidth: 2186
GlyphClass: 4
Flags: W
AnchorPoint: "Anchor-7" 531.84 75.5 mark 0
AnchorPoint: "Anchor-6" 531.84 75.5 mark 0
AnchorPoint: "Anchor-0" 547.84 -439.5 basemark 0
AnchorPoint: "Anchor-0" 531.84 75.5 mark 0
LayerCount: 2
Fore
SplineSet
270.96 -512.18 m 5,0,-1
 270.96 -385.109 l 5,1,-1
 828.84 -156.8 l 5,2,-1
 828.84 -283.87 l 5,3,-1
 270.96 -512.18 l 5,0,-1
270.96 -255.38 m 5,4,-1
 270.96 -128.31 l 5,5,-1
 828.84 100 l 5,6,-1
 828.84 -27.0703 l 5,7,-1
 270.96 -255.38 l 5,4,-1
EndSplineSet
EndChar

StartChar: uni064E
Encoding: 1614 1614 46
Width: 0
VWidth: 2186
GlyphClass: 4
Flags: W
AnchorPoint: "Anchor-10" 517.84 1279.5 mark 0
AnchorPoint: "Anchor-9" 517.84 1279.5 mark 0
AnchorPoint: "Anchor-1" 517.84 1600.5 basemark 0
AnchorPoint: "Anchor-1" 517.84 1279.5 mark 0
LayerCount: 2
Fore
SplineSet
237.4 1237.41 m 1,0,-1
 237.4 1364.48 l 1,1,-1
 795.28 1592.79 l 5,2,-1
 795.28 1465.72 l 1,3,-1
 237.4 1237.41 l 1,0,-1
EndSplineSet
EndChar

StartChar: uni064F
Encoding: 1615 1615 47
Width: 0
VWidth: 2186
GlyphClass: 4
Flags: W
AnchorPoint: "Anchor-10" 531.84 1205.5 mark 0
AnchorPoint: "Anchor-9" 531.84 1205.5 mark 0
AnchorPoint: "Anchor-1" 547.84 1825 basemark 0
AnchorPoint: "Anchor-1" 531.84 1205.5 mark 0
LayerCount: 2
Fore
SplineSet
594.529 1426.81 m 6,0,1
 586.598 1428.57 586.598 1428.57 567.734 1438.5 c 4,2,3
 459.19 1494.78 459.19 1494.78 459.19 1588.53 c 4,4,5
 459.19 1675.14 459.19 1675.14 527.819 1726.86 c 4,6,7
 554.314 1746.73 554.314 1746.73 617.39 1746.73 c 4,8,9
 690.212 1746.73 690.212 1746.73 729.192 1708.72 c 4,10,11
 784.15 1654.77 784.15 1654.77 784.15 1575.69 c 4,12,13
 784.15 1543.43 784.15 1543.43 769.757 1497.16 c 6,14,-1
 764.821 1481.3 l 5,15,-1
 781.407 1480.32 l 6,16,17
 799.81 1479.24 799.81 1479.24 819.259 1478.7 c 4,18,19
 832.229 1478.34 832.229 1478.34 847.28 1478.21 c 5,20,-1
 847.28 1386.53 l 5,21,22
 817.029 1386.85 817.029 1386.85 789.455 1388.57 c 4,23,24
 757.6 1390.7 757.6 1390.7 727.915 1393.88 c 6,25,-1
 720.312 1394.69 l 5,26,-1
 715.905 1388.44 l 6,27,28
 671.45 1325.37 671.45 1325.37 599.88 1281.81 c 4,29,30
 398.294 1157.85 398.294 1157.85 248.4 1152.36 c 5,31,-1
 248.4 1244.01 l 5,32,33
 408.671 1248.65 408.671 1248.65 554.781 1363.22 c 4,34,35
 580.142 1383.07 580.142 1383.07 601.135 1405.16 c 6,36,-1
 616.962 1421.83 l 5,37,-1
 594.529 1426.81 l 6,0,1
670.746 1496.7 m 5,38,-1
 681.77 1522.42 l 6,39,40
 692.45 1547.34 692.45 1547.34 692.45 1575.69 c 4,41,42
 692.45 1618.21 692.45 1618.21 669.524 1637.08 c 4,43,44
 647.734 1655.03 647.734 1655.03 621.67 1655.03 c 4,45,46
 593.241 1655.03 593.241 1655.03 577.329 1642.69 c 4,47,48
 553.03 1624.4 553.03 1624.4 553.03 1588.53 c 4,49,50
 553.03 1540.14 553.03 1540.14 609.352 1517.61 c 4,51,52
 631.256 1508.85 631.256 1508.85 659.577 1500.14 c 6,53,-1
 670.746 1496.7 l 5,38,-1
EndSplineSet
EndChar

StartChar: uni0650
Encoding: 1616 1616 48
Width: 0
VWidth: 2186
GlyphClass: 4
Flags: W
AnchorPoint: "Anchor-7" 467.84 -12.5 mark 0
AnchorPoint: "Anchor-6" 467.84 -12.5 mark 0
AnchorPoint: "Anchor-0" 556.84 -311.5 basemark 0
AnchorPoint: "Anchor-0" 467.84 -12.5 mark 0
LayerCount: 2
Fore
SplineSet
267.96 -356.836 m 1,0,-1
 267.96 -229.766 l 1,1,-1
 825.84 -1.45605 l 1,2,-1
 825.84 -128.526 l 1,3,-1
 267.96 -356.836 l 1,0,-1
EndSplineSet
EndChar

StartChar: uni0651
Encoding: 1617 1617 49
Width: 0
VWidth: 2186
GlyphClass: 4
Flags: W
AnchorPoint: "Anchor-10" 547.84 1316.5 mark 0
AnchorPoint: "Anchor-9" 547.84 1316.5 mark 0
AnchorPoint: "Anchor-1" 535.84 1818.5 basemark 0
AnchorPoint: "Anchor-1" 547.84 1316.5 mark 0
LayerCount: 2
Fore
SplineSet
398.84 1305.99 m 4,0,1
 306.498 1302.93 306.498 1302.93 261.261 1355.91 c 4,2,3
 227 1396.24 227 1396.24 227 1486.07 c 4,4,5
 227 1527.41 227 1527.41 242.222 1626.56 c 5,6,-1
 320.73 1626.56 l 5,7,8
 307.674 1502.98 307.674 1502.98 307.674 1479 c 4,9,10
 307.674 1394.91 307.674 1394.91 398.84 1393.09 c 4,11,12
 497.128 1391.16 497.128 1391.16 506.266 1518.54 c 4,13,14
 508.184 1545.08 508.184 1545.08 508.4 1680.83 c 5,15,-1
 589.06 1680.83 l 5,16,17
 588.775 1624.49 588.775 1624.49 589.34 1597.53 c 4,18,19
 594.84 1448.99 594.84 1448.99 700.84 1452.09 c 4,20,21
 790.089 1453.28 790.089 1453.28 783.674 1604 c 4,22,23
 779.218 1710.94 779.218 1710.94 774.521 1770.1 c 5,24,-1
 857.705 1770.1 l 5,25,26
 868.68 1694.87 868.68 1694.87 868.68 1580.87 c 4,27,28
 868.68 1504.29 868.68 1504.29 843.84 1449.99 c 4,29,30
 804.992 1364.89 804.992 1364.89 713.84 1360.49 c 4,31,32
 611.451 1355.49 611.451 1355.49 554.84 1431.09 c 5,33,34
 519.173 1310.01 519.173 1310.01 398.84 1305.99 c 4,0,1
EndSplineSet
EndChar

StartChar: uni0652
Encoding: 1618 1618 50
Width: 0
VWidth: 2186
GlyphClass: 4
Flags: W
AnchorPoint: "Anchor-10" 565.84 1128.5 mark 0
AnchorPoint: "Anchor-9" 565.84 1128.5 mark 0
AnchorPoint: "Anchor-1" 551.84 1702 basemark 0
AnchorPoint: "Anchor-1" 565.84 1128.5 mark 0
LayerCount: 2
Fore
SplineSet
674.569 1383.62 m 0,0,1
 674.569 1428.15 674.569 1428.15 643.439 1459.28 c 128,-1,2
 612.312 1490.41 612.312 1490.41 567.126 1490.41 c 0,3,4
 521.285 1490.41 521.285 1490.41 490.485 1459.61 c 128,-1,5
 459.685 1428.81 459.685 1428.81 459.685 1383.62 c 0,6,7
 459.685 1337.78 459.685 1337.78 490.485 1306.98 c 128,-1,8
 521.285 1276.18 521.285 1276.18 567.126 1276.18 c 0,9,10
 612.314 1276.18 612.314 1276.18 643.439 1307.31 c 128,-1,11
 674.569 1338.44 674.569 1338.44 674.569 1383.62 c 0,0,1
750.396 1383.73 m 128,-1,13
 750.396 1306.88 750.396 1306.88 697.316 1253.46 c 128,-1,14
 644.259 1200.07 644.259 1200.07 567.436 1200.07 c 128,-1,15
 490.613 1200.07 490.613 1200.07 437.557 1253.46 c 128,-1,16
 384.476 1306.88 384.476 1306.88 384.476 1383.73 c 128,-1,17
 384.476 1460.56 384.476 1460.56 437.537 1513.63 c 128,-1,18
 490.596 1566.69 490.596 1566.69 567.436 1566.69 c 128,-1,19
 644.276 1566.69 644.276 1566.69 697.335 1513.63 c 128,-1,12
 750.396 1460.56 750.396 1460.56 750.396 1383.73 c 128,-1,13
EndSplineSet
EndChar

StartChar: uni0653
Encoding: 1619 1619 51
Width: 0
VWidth: 2186
GlyphClass: 4
Flags: W
AnchorPoint: "Anchor-10" 442.84 1264.52 mark 0
AnchorPoint: "Anchor-9" 442.84 1264.52 mark 0
AnchorPoint: "Anchor-1" 442.84 1600.5 basemark 0
AnchorPoint: "Anchor-1" 442.84 1264.52 mark 0
LayerCount: 2
Fore
SplineSet
191.522 1406.85 m 0,0,1
 248.484 1452.67 248.484 1452.67 340.25 1431.72 c 0,2,3
 433.685 1410.4 433.685 1410.4 525.244 1430.65 c 0,4,5
 588.788 1444.7 588.788 1444.7 608.109 1474.58 c 2,6,-1
 636.281 1518.14 l 1,7,-1
 648.023 1446.23 l 2,8,9
 654.312 1407.7 654.312 1407.7 626.984 1365.71 c 0,10,11
 607.289 1336.56 607.289 1336.56 568.761 1318.38 c 0,12,13
 502.66 1288.65 502.66 1288.65 295.98 1311.67 c 0,14,15
 252.82 1316.54 252.82 1316.54 198.563 1242.34 c 2,16,-1
 177.651 1213.74 l 1,17,-1
 161.358 1252.66 l 2,18,19
 120.674 1349.85 120.674 1349.85 191.522 1406.85 c 0,0,1
EndSplineSet
EndChar

StartChar: uni0657
Encoding: 1623 1623 54
Width: 0
VWidth: 2186
GlyphClass: 4
Flags: W
AnchorPoint: "Anchor-10" 547.84 1279.5 mark 0
AnchorPoint: "Anchor-9" 547.84 1279.5 mark 0
AnchorPoint: "Anchor-1" 547.84 1975 basemark 0
AnchorPoint: "Anchor-1" 547.84 1279.5 mark 0
LayerCount: 2
Fore
SplineSet
501.148 1675.55 m 2,0,1
 509.083 1673.79 509.083 1673.79 527.945 1663.86 c 0,2,3
 636.49 1607.58 636.49 1607.58 636.49 1513.83 c 0,4,5
 636.49 1427.22 636.49 1427.22 567.86 1375.5 c 0,6,7
 541.366 1355.63 541.366 1355.63 478.29 1355.63 c 0,8,9
 405.468 1355.63 405.468 1355.63 366.487 1393.64 c 0,10,11
 311.53 1447.59 311.53 1447.59 311.53 1526.67 c 0,12,13
 311.53 1558.94 311.53 1558.94 325.923 1605.2 c 2,14,-1
 330.858 1621.06 l 1,15,-1
 314.272 1622.04 l 2,16,17
 295.871 1623.12 295.871 1623.12 276.421 1623.66 c 0,18,19
 263.452 1624.02 263.452 1624.02 248.4 1624.15 c 1,20,-1
 248.4 1715.83 l 1,21,22
 278.631 1715.51 278.631 1715.51 306.226 1713.79 c 0,23,24
 338.082 1711.66 338.082 1711.66 367.766 1708.48 c 2,25,-1
 375.369 1707.67 l 1,26,-1
 379.775 1713.92 l 2,27,28
 424.231 1776.99 424.231 1776.99 495.801 1820.55 c 0,29,30
 697.387 1944.51 697.387 1944.51 847.28 1950 c 1,31,-1
 847.28 1858.35 l 1,32,33
 687.009 1853.71 687.009 1853.71 540.898 1739.14 c 0,34,35
 515.54 1719.29 515.54 1719.29 494.545 1697.2 c 2,36,-1
 478.72 1680.54 l 1,37,-1
 501.148 1675.55 l 2,0,1
424.935 1605.66 m 1,38,-1
 413.911 1579.94 l 2,39,40
 403.23 1555.02 403.23 1555.02 403.23 1526.67 c 0,41,42
 403.23 1484.16 403.23 1484.16 426.155 1465.28 c 0,43,44
 447.946 1447.33 447.946 1447.33 474.01 1447.33 c 0,45,46
 502.438 1447.33 502.438 1447.33 518.352 1459.67 c 0,47,48
 542.65 1477.96 542.65 1477.96 542.65 1513.83 c 0,49,50
 542.65 1562.22 542.65 1562.22 486.328 1584.75 c 0,51,52
 464.442 1593.51 464.442 1593.51 436.104 1602.22 c 2,53,-1
 424.935 1605.66 l 1,38,-1
EndSplineSet
EndChar

StartChar: uni065A
Encoding: 1626 1626 55
Width: 1095
VWidth: 2186
GlyphClass: 4
Flags: W
AnchorPoint: "Anchor-10" 547.84 1279.5 mark 0
AnchorPoint: "Anchor-9" 547.84 1279.5 mark 0
AnchorPoint: "Anchor-1" 545.7 1761 basemark 0
AnchorPoint: "Anchor-1" 547.84 1279.5 mark 0
LayerCount: 2
Fore
SplineSet
476.032 1358.84 m 1,0,-1
 282.934 1681.66 l 1,1,-1
 401.783 1681.66 l 1,2,-1
 547.84 1462.57 l 1,3,-1
 693.896 1681.66 l 1,4,-1
 812.746 1681.66 l 1,5,-1
 619.646 1358.84 l 1,6,-1
 476.032 1358.84 l 1,0,-1
EndSplineSet
EndChar

StartChar: afii57392
Encoding: 1632 1632 56
Width: 1211
VWidth: 2315
GlyphClass: 2
Flags: W
LayerCount: 2
Fore
SplineSet
493.111 644.869 m 132,-1,1
 493.111 601.971 493.111 601.971 524.096 570.987 c 132,-1,2
 555.081 540.001 555.081 540.001 597.979 540.001 c 132,-1,3
 640.873 540.001 640.873 540.001 671.859 570.986 c 132,-1,4
 702.848 601.976 702.848 601.976 702.848 644.869 c 132,-1,5
 702.848 687.76 702.848 687.76 671.858 718.751 c 132,-1,6
 640.873 749.737 640.873 749.737 597.979 749.737 c 132,-1,7
 555.084 749.737 555.084 749.737 524.096 718.749 c 132,-1,0
 493.111 687.765 493.111 687.765 493.111 644.869 c 132,-1,1
302.586 640.562 m 128,-1,9
 302.586 764.918 302.586 764.918 390.364 853.21 c 128,-1,10
 478.189 941.548 478.189 941.548 601.947 941.548 c 128,-1,11
 725.709 941.548 725.709 941.548 813.531 853.209 c 128,-1,12
 901.307 764.917 901.307 764.917 901.307 640.562 c 128,-1,13
 901.307 516.196 901.307 516.196 813.529 427.913 c 128,-1,14
 725.7 339.578 725.7 339.578 601.947 339.578 c 128,-1,15
 478.188 339.578 478.188 339.578 390.365 427.914 c 128,-1,8
 302.586 516.202 302.586 516.202 302.586 640.562 c 128,-1,9
EndSplineSet
EndChar

StartChar: afii57393
Encoding: 1633 1633 57
Width: 1215
VWidth: 2310
GlyphClass: 2
Flags: W
LayerCount: 2
Fore
SplineSet
651.871 8.5127 m 2,0,-1
 580.433 -15.168 l 1,1,-1
 580.396 40.1934 l 2,2,3
 580.312 170.367 580.312 170.367 490.625 692.296 c 4,4,5
 456.92 888.452 456.92 888.452 403.703 1062.5 c 4,6,7
 382.983 1130.27 382.983 1130.27 351.084 1227.96 c 6,8,-1
 344.297 1248.75 l 5,9,-1
 524.917 1469.88 l 5,10,-1
 552.334 1413.78 l 6,11,12
 668.936 1175.19 668.936 1175.19 718.019 823.705 c 4,13,14
 762.848 495.645 762.848 495.645 762.396 272.142 c 0,15,16
 762.186 164.407 762.186 164.407 737.254 96.4795 c 128,-1,17
 712.322 28.5512 712.322 28.5512 651.871 8.5127 c 2,0,-1
EndSplineSet
EndChar

StartChar: afii57394
Encoding: 1634 1634 58
Width: 1211
VWidth: 2169
GlyphClass: 2
Flags: W
LayerCount: 2
Fore
SplineSet
307.105 1412.24 m 6,0,1
 350.671 1305.26 350.671 1305.26 383.899 1240.79 c 4,2,3
 454.318 1105.17 454.318 1105.17 582.238 1091.35 c 4,4,5
 693.607 1079.1 693.607 1079.1 756.401 1118.58 c 132,-1,6
 819.196 1158.06 819.196 1158.06 845.399 1254.49 c 4,7,8
 863.769 1322.09 863.769 1322.09 878.6 1401.61 c 6,9,-1
 886.916 1446.21 l 5,10,-1
 1070.75 1387.36 l 5,11,-1
 1070.53 1357.94 l 6,12,13
 1070.05 1292.96 1070.05 1292.96 1038.67 1174.54 c 4,14,15
 995.717 1012.51 995.717 1012.51 892.331 923.118 c 4,16,17
 787.385 832.377 787.385 832.377 631.289 824.065 c 4,18,19
 552.917 819.893 552.917 819.893 483.49 833.513 c 5,20,21
 510.662 613.249 510.662 613.249 514.588 539.498 c 4,22,23
 525.575 341.455 525.575 341.455 524.646 303.522 c 0,24,25
 523.691 243.982 523.691 243.982 516.808 197.148 c 128,-1,26
 509.924 150.315 509.924 150.315 495.389 110.921 c 128,-1,27
 480.853 71.5264 480.853 71.5264 455.683 46.1797 c 0,28,29
 430.158 20.4768 430.158 20.4768 395.286 11.2861 c 2,30,-1
 310.597 -11.0342 l 1,31,-1
 310.505 40.7793 l 2,32,33
 309.784 447.432 309.784 447.432 268.766 670.357 c 4,34,35
 177.593 1165.86 177.593 1165.86 94.4746 1314.38 c 5,36,-1
 287.454 1460.49 l 5,37,-1
 307.105 1412.24 l 6,0,1
EndSplineSet
EndChar

StartChar: afii57395
Encoding: 1635 1635 59
Width: 1211
VWidth: 2169
GlyphClass: 2
Flags: W
LayerCount: 2
Fore
SplineSet
1206.31 1380.94 m 2,0,1
 1209.09 1238.03 1209.09 1238.03 1180.53 1110.87 c 0,2,3
 1152.74 986.238 1152.74 986.238 1088.49 914.913 c 128,-1,4
 1024.24 843.588 1024.24 843.588 925.366 836.679 c 0,5,6
 798.676 827.242 798.676 827.242 721.799 918.463 c 1,7,8
 655.141 832.721 655.141 832.721 525.886 825.999 c 0,9,10
 476.608 823.306 476.608 823.306 426.551 833.02 c 1,11,12
 453.662 613.25 453.662 613.25 457.597 539.346 c 0,13,14
 468.204 319.267 468.204 319.267 467.647 303.545 c 0,15,16
 466.691 243.989 466.691 243.989 459.808 197.15 c 128,-1,17
 452.925 150.312 452.925 150.312 438.389 110.917 c 128,-1,18
 423.854 71.5215 423.854 71.5215 398.684 46.1777 c 0,19,20
 373.158 20.4768 373.158 20.4768 338.286 11.2861 c 2,21,-1
 253.597 -11.0342 l 1,22,-1
 253.505 40.7793 l 2,23,24
 252.856 406.798 252.856 406.798 211.766 670.357 c 1,25,26
 169.016 961.884 169.016 961.884 37.4727 1314.38 c 1,27,-1
 229.526 1459.79 l 1,28,-1
 249.766 1413.04 l 2,29,30
 274.926 1354.93 274.926 1354.93 327.77 1239 c 0,31,32
 387.425 1108.13 387.425 1108.13 480.892 1094.63 c 0,33,34
 544.405 1085.46 544.405 1085.46 579.795 1113.41 c 1,35,36
 598.798 1129.86 598.798 1129.86 612.154 1183.65 c 128,-1,37
 625.511 1237.44 625.511 1237.44 625.511 1324.71 c 2,38,-1
 625.511 1355.76 l 1,39,-1
 798.923 1400.15 l 1,40,-1
 799.577 1349.3 l 2,41,42
 800.271 1295.39 800.271 1295.39 802.873 1249.21 c 128,-1,43
 805.475 1203.05 805.475 1203.05 808.196 1179.47 c 128,-1,44
 810.918 1155.9 810.918 1155.9 813.098 1150.28 c 0,45,46
 825.515 1118.03 825.515 1118.03 843.104 1105 c 128,-1,47
 860.693 1091.96 860.693 1091.96 889.341 1091.51 c 0,48,49
 930.95 1091.81 930.95 1091.81 954.043 1113.82 c 128,-1,50
 977.135 1135.83 977.135 1135.83 988.307 1190.62 c 0,51,52
 1005.56 1274.54 1005.56 1274.54 1003.5 1404.22 c 2,53,-1
 1002.7 1453.86 l 5,54,-1
 1205.69 1413.04 l 1,55,-1
 1206.31 1380.94 l 2,0,1
EndSplineSet
EndChar

StartChar: afii57396
Encoding: 1636 1636 60
Width: 1212
VWidth: 2310
GlyphClass: 2
Flags: W
LayerCount: 2
Fore
SplineSet
757.601 1215.21 m 2,0,1
 630.14 1249.8 630.14 1249.8 543.799 1222.21 c 1,2,3
 487.807 1199.1 487.807 1199.1 465.208 1164.36 c 128,-1,4
 442.609 1129.62 442.609 1129.62 446.637 1075.29 c 0,5,6
 453.158 986.525 453.158 986.525 579.342 938.755 c 0,7,8
 615.544 925.049 615.544 925.049 756.482 910.846 c 2,9,-1
 776.328 908.846 l 1,10,-1
 786.673 891.791 l 2,11,12
 827.479 824.517 827.479 824.517 825.209 726.83 c 2,13,-1
 824.437 693.584 l 1,14,-1
 791.607 688.273 l 2,15,16
 631.367 662.352 631.367 662.352 513.98 590.969 c 1,17,18
 359.353 502.379 359.353 502.379 373.46 397.678 c 4,19,20
 381.954 334.641 381.954 334.641 422.043 297.625 c 128,-1,21
 462.132 260.61 462.132 260.61 544.978 246.459 c 0,22,23
 622.845 233.157 622.845 233.157 757.354 251.684 c 0,24,25
 838.756 262.896 838.756 262.896 964.384 322.714 c 2,26,-1
 1021.58 349.948 l 1,27,-1
 1021.58 211.807 l 2,28,29
 1021.58 132.795 1021.58 132.795 964.196 84.252 c 128,-1,30
 906.813 35.708 906.813 35.708 806.788 18.6885 c 0,31,32
 746.349 8.40527 746.349 8.40527 679.958 3.81348 c 0,33,34
 461.302 -10.4355 461.302 -10.4355 324.948 62.7656 c 128,-1,35
 188.596 135.968 188.596 135.968 148.266 297.331 c 0,36,37
 110.604 498.286 110.604 498.286 246.521 662.652 c 0,38,39
 310.618 740.165 310.618 740.165 403.751 789.151 c 1,40,41
 320.195 825.363 320.195 825.363 270.767 887.747 c 128,-1,42
 221.338 950.132 221.338 950.132 210.417 1034.62 c 0,43,44
 192.952 1166.08 192.952 1166.08 242.708 1261.6 c 128,-1,45
 292.464 1357.12 292.464 1357.12 406.091 1406.67 c 0,46,47
 478.384 1438.19 478.384 1438.19 559.545 1441.75 c 0,48,49
 667.19 1445.98 667.19 1445.98 757.304 1422.5 c 2,50,-1
 772.615 1418.51 l 1,51,-1
 781.055 1405.12 l 2,52,53
 794.653 1383.56 794.653 1383.56 799.572 1351.74 c 128,-1,54
 804.492 1319.91 804.492 1319.91 808.019 1256.01 c 2,55,-1
 811.071 1200.69 l 1,56,-1
 757.601 1215.21 l 2,0,1
EndSplineSet
EndChar

StartChar: afii57397
Encoding: 1637 1637 61
Width: 1212
VWidth: 2311
GlyphClass: 2
Flags: W
LayerCount: 2
Fore
SplineSet
367.519 832.732 m 1,0,1
 288.995 697.681 288.995 697.681 282.424 556.185 c 0,2,3
 274.851 393.091 274.851 393.091 360.756 321.917 c 0,4,5
 444.326 253.616 444.326 253.616 614.593 252.84 c 0,6,7
 798.328 252.001 798.328 252.001 857.54 353.318 c 0,8,9
 911.062 446.414 911.062 446.414 899.513 588.213 c 0,10,11
 886.74 753.545 886.74 753.545 760.133 908.719 c 0,12,13
 669.448 1020.06 669.448 1020.06 569.243 1080.91 c 1,14,15
 448.936 975.584 448.936 975.584 367.519 832.732 c 1,0,1
491.18 1451.76 m 2,16,17
 618.037 1384.81 618.037 1384.81 774.651 1255.36 c 0,18,19
 950.29 1110.2 950.29 1110.2 1035.17 972.959 c 0,20,21
 1146.75 792.544 1146.75 792.544 1156.95 576.871 c 0,22,23
 1171.19 290.617 1171.19 290.617 1049.68 161.489 c 0,24,25
 900.126 3.98145 900.126 3.98145 594.613 5.14941 c 1,26,27
 284.668 5.14941 284.668 5.14941 139.494 161.699 c 0,28,29
 -10.6475 324.691 -10.6475 324.691 20.9932 579.494 c 0,30,31
 45.7773 776.879 45.7773 776.879 144.981 945.717 c 0,32,33
 240.305 1108.59 240.305 1108.59 359.664 1218.75 c 1,34,35
 352.777 1222.78 352.777 1222.78 335.409 1233.01 c 1,36,-1
 455.117 1470.8 l 1,37,-1
 491.18 1451.76 l 2,16,17
EndSplineSet
EndChar

StartChar: afii57398
Encoding: 1638 1638 62
Width: 1212
VWidth: 2310
GlyphClass: 2
Flags: W
LayerCount: 2
Fore
SplineSet
945.516 1336.44 m 6,0,1
 946.725 1067.32 946.725 1067.32 987.307 689.043 c 0,2,3
 1004.9 520.963 1004.9 520.963 1124.69 52.9102 c 2,4,-1
 1137.47 2.99219 l 1,5,-1
 1050.22 2.99219 l 2,6,7
 957.289 2.99219 957.289 2.99219 897.591 68.1748 c 0,8,9
 843.418 127.325 843.418 127.325 813.448 250.452 c 0,10,11
 753.549 496.543 753.549 496.543 735.852 684.855 c 0,12,13
 704.961 995.484 704.961 995.484 702.356 1091.54 c 5,14,15
 606.363 1068.63 606.363 1068.63 465.217 1068.63 c 4,16,17
 345.014 1068.63 345.014 1068.63 231.552 1085.04 c 4,18,19
 141.979 1097.64 141.979 1097.64 91.2373 1148.79 c 132,-1,20
 40.4941 1199.93 40.4941 1199.93 40.4941 1282.63 c 6,21,-1
 40.4941 1387.28 l 5,22,-1
 90.6348 1374.14 l 6,23,24
 279.736 1324.58 279.736 1324.58 452.713 1324.58 c 4,25,26
 675.864 1324.58 675.864 1324.58 896.566 1375.25 c 6,27,-1
 945.291 1386.43 l 5,28,-1
 945.516 1336.44 l 6,0,1
EndSplineSet
EndChar

StartChar: afii57399
Encoding: 1639 1639 63
Width: 1212
VWidth: 2310
GlyphClass: 2
Flags: W
LayerCount: 2
Fore
SplineSet
864.251 1379.79 m 5,0,-1
 1117.61 1297.71 l 5,1,-1
 1096.65 1256.05 l 6,2,3
 927.478 919.84 927.478 919.84 841.237 601.565 c 5,4,5
 734.156 200.858 734.156 200.858 713.391 35.8545 c 2,6,-1
 708.985 0.849609 l 1,7,-1
 467.185 0.849609 l 1,8,-1
 464.271 37.6963 l 2,9,10
 455.237 151.974 455.237 151.974 335.552 602.329 c 4,11,12
 273.158 837.105 273.158 837.105 76.6934 1257.08 c 6,13,-1
 57.3994 1298.33 l 5,14,15
 95.4082 1310.72 95.4082 1310.72 99.6611 1311.79 c 6,16,-1
 310.028 1378.78 l 5,17,-1
 325.499 1348.69 l 6,18,19
 445.679 1114.92 445.679 1114.92 551.909 743.103 c 4,20,21
 572.479 671.107 572.479 671.107 588.475 609.074 c 5,22,23
 604.475 671.156 604.475 671.156 625.098 743.097 c 4,24,25
 683.865 949.27 683.865 949.27 850.032 1345.86 c 6,26,-1
 864.251 1379.79 l 5,0,-1
EndSplineSet
EndChar

StartChar: afii57400
Encoding: 1640 1640 64
Width: 1212
VWidth: 2310
GlyphClass: 2
Flags: W
LayerCount: 2
Fore
SplineSet
849.89 25.7324 m 2,0,1
 683.883 421.957 683.883 421.957 625.107 628.116 c 0,2,3
 604.476 700.086 604.476 700.086 588.475 762.172 c 1,4,5
 572.479 700.141 572.479 700.141 551.909 628.143 c 0,6,7
 445.667 256.282 445.667 256.282 325.499 22.5605 c 2,8,-1
 310.027 -7.53125 l 1,9,-1
 57.3994 72.9199 l 1,10,-1
 76.6934 114.165 l 2,11,12
 273.164 534.166 273.164 534.166 335.552 768.918 c 0,13,14
 455.232 1219.26 455.232 1219.26 464.271 1333.55 c 6,15,-1
 467.186 1370.4 l 5,16,-1
 709.066 1370.4 l 5,17,-1
 713.402 1335.3 l 6,18,19
 740.709 1114.27 740.709 1114.27 841.953 770.686 c 1,20,21
 930.104 477.265 930.104 477.265 1097.26 113.936 c 2,22,-1
 1116.07 73.0381 l 1,23,-1
 864.25 -8.54297 l 1,24,-1
 849.89 25.7324 l 2,0,1
EndSplineSet
EndChar

StartChar: afii57401
Encoding: 1641 1641 65
Width: 1212
VWidth: 2310
GlyphClass: 2
Flags: W
LayerCount: 2
Fore
SplineSet
562.339 619.606 m 0,0,1
 275.605 637.28 275.605 637.28 158.453 773.963 c 0,2,3
 63.0254 886.589 63.0254 886.589 63.0254 1017.39 c 0,4,5
 63.0254 1197.86 63.0254 1197.86 172.44 1317.85 c 0,6,7
 297.902 1455.47 297.902 1455.47 492.252 1455.47 c 128,-1,8
 686.602 1455.47 686.602 1455.47 782.452 1363.05 c 4,9,10
 919.285 1229.94 919.285 1229.94 935.128 1017.26 c 4,11,12
 946.423 864.732 946.423 864.732 966.782 695.065 c 4,13,14
 988.414 523.034 988.414 523.034 1104.31 50.7617 c 6,15,-1
 1116.46 1.22852 l 5,16,-1
 1044.24 1.22852 l 6,17,18
 966.397 1.22852 966.397 1.22852 904.698 76.813 c 0,19,20
 853.163 139.946 853.163 139.946 814.107 289.134 c 0,21,22
 742.005 564.559 742.005 564.559 743.14 618.27 c 1,23,24
 654.725 613.866 654.725 613.866 562.339 619.606 c 0,0,1
718.699 865.444 m 1,25,-1
 714.334 929.604 l 2,26,27
 705.546 1058.77 705.546 1058.77 670.344 1112.99 c 1,28,29
 600.658 1210.29 600.658 1210.29 499.868 1210.29 c 0,30,31
 418.713 1210.29 418.713 1210.29 360.136 1153.77 c 0,32,33
 306.527 1102.09 306.527 1102.09 302.976 1025.15 c 0,34,35
 299.73 960.107 299.73 960.107 355.5 911.58 c 0,36,37
 385.359 885.598 385.359 885.598 465.353 872.826 c 1,38,39
 575.75 853.467 575.75 853.467 718.699 865.444 c 1,25,-1
EndSplineSet
EndChar

StartChar: afii57381
Encoding: 1642 1642 66
Width: 1177
VWidth: 2186
GlyphClass: 2
Flags: W
LayerCount: 2
Fore
SplineSet
459.39 1287.05 m 2,0,-1
 459.39 1158.05 l 2,1,2
 459.39 1121.05 459.39 1121.05 429.39 1121.04 c 2,3,-1
 302.391 1121.05 l 2,4,5
 268.39 1121.05 268.39 1121.05 268.39 1159.05 c 2,6,-1
 268.39 1287.05 l 2,7,8
 268.39 1319.05 268.39 1319.05 306.39 1319.05 c 2,9,-1
 421.39 1319.05 l 2,10,11
 459.39 1319.05 459.39 1319.05 459.39 1287.05 c 2,0,-1
911.192 233.849 m 2,12,-1
 911.192 104.849 l 2,13,14
 911.192 67.8477 911.192 67.8477 881.192 67.8477 c 2,15,-1
 754.192 67.8477 l 2,16,17
 720.192 67.8477 720.192 67.8477 720.192 105.848 c 2,18,-1
 720.192 233.849 l 2,19,20
 720.192 265.848 720.192 265.848 758.192 265.848 c 2,21,-1
 873.192 265.848 l 2,22,23
 911.192 265.848 911.192 265.848 911.192 233.849 c 2,12,-1
871.394 1373.5 m 1,24,-1
 983.001 1316 l 1,25,-1
 301 0 l 1,26,-1
 190 61 l 1,27,-1
 871.394 1373.5 l 1,24,-1
EndSplineSet
EndChar

StartChar: uni066B
Encoding: 1643 1643 67
Width: 711
VWidth: 2186
GlyphClass: 2
Flags: W
LayerCount: 2
Fore
SplineSet
443.218 502.139 m 1,0,-1
 568.799 501.203 l 1,1,2
 342.799 113.203 342.799 113.203 130 -230.265 c 1,3,-1
 1.59766 -228.502 l 1,4,5
 94.7988 -78.7969 94.7988 -78.7969 443.218 502.139 c 1,0,-1
EndSplineSet
EndChar

StartChar: uni066C
Encoding: 1644 1644 68
Width: 696
VWidth: 2186
GlyphClass: 2
Flags: W
LayerCount: 2
Fore
SplineSet
291.2 1580.01 m 1,0,-1
 490.97 1580.01 l 1,1,-1
 490.97 1433.52 l 1,2,-1
 320.557 1102.04 l 1,3,-1
 207.225 1102.04 l 1,4,-1
 291.2 1428.73 l 1,5,-1
 291.2 1580.01 l 1,0,-1
EndSplineSet
EndChar

StartChar: afii63167
Encoding: 1645 1645 69
Width: 1194
VWidth: 2186
GlyphClass: 2
Flags: W
LayerCount: 2
Fore
SplineSet
132.901 794.63 m 1,0,-1
 486.633 794.63 l 1,1,-1
 597.061 1130.84 l 1,2,-1
 707.487 794.63 l 1,3,-1
 1061.22 794.63 l 1,4,-1
 775.453 585.725 l 1,5,-1
 884.797 249.809 l 1,6,-1
 597.061 457.729 l 1,7,-1
 309.323 249.809 l 1,8,-1
 418.667 585.725 l 1,9,-1
 132.901 794.63 l 1,0,-1
EndSplineSet
EndChar

StartChar: uni066E
Encoding: 1646 1646 70
Width: 1626
VWidth: 2330
GlyphClass: 2
Flags: W
AnchorPoint: "Anchor-10" 687.278 1132.71 basechar 0
AnchorPoint: "Anchor-7" 443.479 -203.424 basechar 0
LayerCount: 2
Fore
SplineSet
1269.51 693.076 m 1,0,-1
 1479.66 883.741 l 1,1,-1
 1499.03 825.488 l 2,2,3
 1563.14 632.676 1563.14 632.676 1574.08 457.938 c 0,4,5
 1589.81 206.747 1589.81 206.747 1451.33 124.837 c 0,6,7
 1321.38 47.5957 1321.38 47.5957 1092.7 17.0752 c 0,8,9
 988.443 3.16016 988.443 3.16016 930.968 1.375 c 0,10,11
 452.896 -17.8672 452.896 -17.8672 257.238 84.2246 c 0,12,13
 44.3945 195.444 44.3945 195.444 51.3115 517.451 c 0,14,15
 54.2052 653.214 54.2052 653.214 110.154 762.396 c 2,16,-1
 121.336 784.216 l 1,17,-1
 243.391 734.847 l 5,18,19
 233.747 693.644 233.747 693.644 224.519 610.583 c 0,20,21
 219.622 566.512 219.622 566.512 221.454 514.994 c 0,22,23
 225.176 410.287 225.176 410.287 304.264 350.131 c 128,-1,24
 383.351 289.974 383.351 289.974 553.492 273.547 c 0,25,26
 693.307 260.051 693.307 260.051 965.983 262.556 c 1,27,28
 1107.16 267.727 1107.16 267.727 1184.22 283.011 c 0,29,30
 1307.24 307.414 1307.24 307.414 1381.04 347.636 c 0,31,32
 1394.99 355.398 1394.99 355.398 1397.45 367.462 c 128,-1,33
 1399.91 379.525 1399.91 379.525 1387.93 417.954 c 1,34,-1
 1269.51 693.076 l 1,0,-1
EndSplineSet
Substitution2: "'init' Initial Forms in Arabic lookup 13 subtable" uni066E.init
Substitution2: "'medi' Medial Forms in Arabic lookup 11 subtable" uni066E.medi
Substitution2: "'fina' Terminal Forms in Arabic lookup 9 subtable" uni066E.fina
EndChar

StartChar: uni066F
Encoding: 1647 1647 71
Width: 1406
VWidth: 2347
GlyphClass: 2
Flags: W
AnchorPoint: "Anchor-10" 328.703 1135.86 basechar 0
AnchorPoint: "Anchor-7" 460.144 -611.547 basechar 0
LayerCount: 2
Fore
SplineSet
1020.54 625.693 m 4,0,1
 953.211 630.231 953.211 630.231 921.73 467.069 c 4,2,3
 917.319 443.734 917.319 443.734 917.26 424.557 c 4,4,5
 917.117 378.88 917.117 378.88 940.368 359.359 c 132,-1,6
 963.619 339.838 963.619 339.838 1026.42 339.698 c 4,7,8
 1102.82 339.535 1102.82 339.535 1143.21 340.502 c 5,9,10
 1136.79 425.775 1136.79 425.775 1116.88 497.938 c 4,11,12
 1082.63 621.999 1082.63 621.999 1020.54 625.693 c 4,0,1
1339.68 317.768 m 4,13,14
 1351.45 140.649 1351.45 140.649 1321 21.3711 c 4,15,16
 1266.43 -198.423 1266.43 -198.423 1096.47 -312.383 c 132,-1,17
 926.513 -426.343 926.513 -426.343 652.169 -431.92 c 4,18,19
 291.469 -438.91 291.469 -438.91 140.939 -229.228 c 4,20,21
 16.3711 -56.8828 16.3711 -56.8828 85.002 227.5 c 4,22,23
 107.946 322.571 107.946 322.571 132.719 396.826 c 4,24,25
 153.417 457.855 153.417 457.855 179.243 523.729 c 6,26,-1
 196.033 566.557 l 5,27,-1
 344.982 482.659 l 5,28,-1
 331.965 450.137 l 6,29,30
 217.087 163.111 217.087 163.111 284.034 -3.77539 c 4,31,32
 352.253 -176.186 352.253 -176.186 636.381 -182.092 c 4,33,34
 862.884 -186.8 862.884 -186.8 983.923 -116.36 c 132,-1,35
 1104.96 -45.9209 1104.96 -45.9209 1134.94 98.6689 c 5,36,-1
 1020.3 97.8008 l 6,37,38
 830.231 96.2871 830.231 96.2871 766.999 199.153 c 4,39,40
 704.808 299.098 704.808 299.098 722.276 453.152 c 4,41,42
 744.771 647.374 744.771 647.374 838.969 749.624 c 4,43,44
 932.316 851.816 932.316 851.816 1060.83 838.76 c 4,45,46
 1139.36 830.845 1139.36 830.845 1199.76 765.793 c 4,47,48
 1302.79 654.426 1302.79 654.426 1325.67 447.433 c 4,49,50
 1339.41 323.115 1339.41 323.115 1339.68 317.768 c 4,13,14
EndSplineSet
Substitution2: "'init' Initial Forms in Arabic lookup 13 subtable" uni066F.init
Substitution2: "'medi' Medial Forms in Arabic lookup 11 subtable" uni066F.medi
Substitution2: "'fina' Terminal Forms in Arabic lookup 9 subtable" uni066F.fina
EndChar

StartChar: uni0670
Encoding: 1648 1648 72
Width: 0
VWidth: 2186
GlyphClass: 4
Flags: W
AnchorPoint: "Anchor-10" 547.84 1279.5 mark 0
AnchorPoint: "Anchor-9" 547.84 1279.5 mark 0
AnchorPoint: "Anchor-1" 547.84 1884 basemark 0
AnchorPoint: "Anchor-1" 547.84 1279.5 mark 0
LayerCount: 2
Fore
SplineSet
525.99 1327.81 m 5,0,-1
 501.99 1781.69 l 5,1,-1
 593.69 1835.69 l 5,2,-1
 593.69 1327.81 l 5,3,-1
 525.99 1327.81 l 5,0,-1
EndSplineSet
EndChar

StartChar: uni0674
Encoding: 1652 1652 73
Width: 639
VWidth: 2186
GlyphClass: 2
Flags: W
LayerCount: 2
Fore
SplineSet
143.54 1515.26 m 1,0,-1
 254.306 1540.82 l 1,1,2
 145.68 1590.21 145.68 1590.21 145.68 1692.52 c 0,3,4
 145.68 1778.8 145.68 1778.8 206 1832 c 0,5,6
 256.995 1876.48 256.995 1876.48 343 1877 c 0,7,8
 410.823 1877 410.823 1877 462.08 1846.81 c 1,9,-1
 462.08 1769.8 l 1,10,11
 397.433 1802.12 397.433 1802.12 332 1795 c 0,12,13
 227.549 1783.73 227.549 1783.73 220.26 1701.08 c 0,14,15
 212.646 1612.93 212.646 1612.93 330.161 1577.33 c 0,16,17
 366.368 1566.36 366.368 1566.36 484.55 1593.69 c 1,18,-1
 484.55 1511.4 l 1,19,-1
 143.54 1434.84 l 1,20,-1
 143.54 1515.26 l 1,0,-1
EndSplineSet
EndChar

StartChar: uni06A1
Encoding: 1697 1697 77
Width: 1657
VWidth: 2347
GlyphClass: 2
Flags: W
AnchorPoint: "Anchor-10" 486.273 1310.83 basechar 0
AnchorPoint: "Anchor-7" 599.693 -150.024 basechar 0
LayerCount: 2
Fore
SplineSet
962.811 258.172 m 1,0,1
 1217.36 263.968 1217.36 263.968 1297.33 291.617 c 0,2,3
 1365.32 314.934 1365.32 314.934 1395.44 350.779 c 1,4,5
 1331.87 336.576 1331.87 336.576 1270.67 340.273 c 0,6,7
 1115.79 350.206 1115.79 350.206 1037.18 459.921 c 0,8,9
 972.364 551.463 972.364 551.463 991.031 716.084 c 0,10,11
 1013.52 910.288 1013.52 910.288 1107.78 1012.61 c 0,12,13
 1200.87 1113.41 1200.87 1113.41 1319.76 1103.56 c 0,14,15
 1421.61 1095.18 1421.61 1095.18 1487.74 1012.64 c 0,16,17
 1576.38 901.044 1576.38 901.044 1601.32 711.177 c 0,18,19
 1625.24 526.804 1625.24 526.804 1604.67 394.025 c 0,20,21
 1569.63 172.69 1569.63 172.69 1395.98 74.9385 c 0,22,23
 1278.1 8.60254 1278.1 8.60254 930.624 -0.634766 c 0,24,25
 424.214 -14.0557 424.214 -14.0557 258.006 73.8525 c 0,26,27
 44.1855 186.485 44.1855 186.485 51.3115 517.451 c 0,28,29
 54.2052 653.214 54.2052 653.214 110.154 762.396 c 2,30,-1
 121.336 784.216 l 1,31,-1
 243.631 734.847 l 5,32,33
 227.272 635.365 227.272 635.365 224.519 610.583 c 0,34,35
 219.622 566.512 219.622 566.512 221.453 515.002 c 0,36,37
 225.098 415.258 225.098 415.258 299.819 354.24 c 128,-1,38
 374.54 293.223 374.54 293.223 534.462 269.811 c 0,39,40
 614.432 258.103 614.432 258.103 962.811 258.172 c 1,0,1
1291.32 888.61 m 0,41,42
 1223.01 893.136 1223.01 893.136 1190.4 729.588 c 0,43,44
 1184.97 702.854 1184.97 702.854 1184.74 681.165 c 0,45,46
 1184.23 632.314 1184.23 632.314 1208.49 611.271 c 128,-1,47
 1232.75 590.229 1232.75 590.229 1297.37 589.617 c 0,48,49
 1346.78 589.394 1346.78 589.394 1415.25 599.49 c 1,50,51
 1409.02 686.976 1409.02 686.976 1388.63 760.86 c 0,52,53
 1354.4 884.9 1354.4 884.9 1291.32 888.61 c 0,41,42
EndSplineSet
Substitution2: "'init' Initial Forms in Arabic lookup 13 subtable" uni06A1.init
Substitution2: "'medi' Medial Forms in Arabic lookup 11 subtable" uni06A1.medi
Substitution2: "'fina' Terminal Forms in Arabic lookup 9 subtable" uni06A1.fina
EndChar

StartChar: uni06A9
Encoding: 1705 1705 78
Width: 1817
VWidth: 2331
GlyphClass: 2
Flags: W
AnchorPoint: "Anchor-10" 268.771 1270.92 basechar 0
AnchorPoint: "Anchor-7" 391.73 -253.384 basechar 0
LayerCount: 2
Fore
SplineSet
931.138 -0.617188 m 0,0,1
 435.684 -20.123 435.684 -20.123 258.01 73.8506 c 0,2,3
 44.1855 186.485 44.1855 186.485 51.3115 517.451 c 0,4,5
 54.2052 653.214 54.2052 653.214 110.154 762.396 c 2,6,-1
 121.336 784.216 l 1,7,-1
 246.017 734.847 l 1,8,9
 232.764 676.425 232.764 676.425 224.519 610.583 c 0,10,11
 219.622 566.512 219.622 566.512 221.453 515.002 c 0,12,13
 225.098 415.258 225.098 415.258 299.819 354.24 c 128,-1,14
 374.54 293.223 374.54 293.223 534.462 269.811 c 0,15,16
 701.501 245.356 701.501 245.356 960.796 258.124 c 0,17,18
 1122.18 266.07 1122.18 266.07 1217.74 298.909 c 128,-1,19
 1313.3 331.748 1313.3 331.748 1342.58 380.587 c 1,20,21
 1368.99 420.628 1368.99 420.628 1358.21 458.998 c 128,-1,22
 1347.44 497.366 1347.44 497.366 1292.62 540.31 c 2,23,-1
 1016.42 756.695 l 2,24,25
 905.16 843.862 905.16 843.862 897.976 927.454 c 0,26,27
 892.098 996.04 892.098 996.04 927.541 1051.09 c 128,-1,28
 962.986 1106.13 962.986 1106.13 1032.86 1142.74 c 2,29,-1
 1786.95 1537.86 l 1,30,-1
 1770.74 1455.89 l 2,31,32
 1746.29 1332.26 1746.29 1332.26 1705.79 1245.93 c 2,33,-1
 1699.91 1233.39 l 1,34,-1
 1138.85 951.622 l 1,35,-1
 1435.27 704.801 l 1,36,-1
 1436.16 703.965 l 2,37,38
 1565.07 582.569 1565.07 582.569 1548.17 395.428 c 0,39,40
 1531.19 206.937 1531.19 206.937 1360.25 112.014 c 0,41,42
 1173.28 8.91504 1173.28 8.91504 931.138 -0.617188 c 0,0,1
EndSplineSet
Substitution2: "'init' Initial Forms in Arabic lookup 13 subtable" uniFB90
Substitution2: "'medi' Medial Forms in Arabic lookup 11 subtable" uniFB91
Substitution2: "'fina' Terminal Forms in Arabic lookup 9 subtable" uniFB8F
EndChar

StartChar: afii57514
Encoding: 1722 1722 80
Width: 1359
VWidth: 2331
GlyphClass: 2
Flags: W
AnchorPoint: "Anchor-10" 587.961 1036.99 basechar 0
AnchorPoint: "Anchor-7" 305.838 -717.488 basechar 0
LayerCount: 2
Fore
SplineSet
189.44 478.516 m 1,0,-1
 323.56 390.362 l 1,1,-1
 313.207 360.862 l 2,2,3
 215.805 83.3213 215.805 83.3213 275.371 -43.2744 c 0,4,5
 366.426 -236.79 366.426 -236.79 664.172 -231.81 c 0,6,7
 885.814 -228.042 885.814 -228.042 994.79 -160.665 c 128,-1,8
 1103.77 -93.2881 1103.77 -93.2881 1117.01 35.4668 c 1,9,-1
 980.025 458.973 l 1,10,-1
 1174.12 654.755 l 1,11,-1
 1195.2 594.275 l 2,12,13
 1311.52 260.65 1311.52 260.65 1308.58 39.4678 c 0,14,15
 1308.56 37.916 1308.56 37.916 1308.54 36.3652 c 2,16,-1
 1308.02 33.3057 l 2,17,18
 1265.74 -215.716 1265.74 -215.716 1103.55 -345.941 c 128,-1,19
 941.35 -476.167 941.35 -476.167 669.816 -481.355 c 0,20,21
 284.611 -488.41 284.611 -488.41 132.827 -270.362 c 0,22,23
 13.9824 -98.2607 13.9824 -98.2607 77.3242 156.867 c 0,24,25
 93.6152 221.876 93.6152 221.876 129.059 326.217 c 0,26,27
 151.524 392.352 151.524 392.352 170.388 435.219 c 2,28,-1
 189.44 478.516 l 1,0,-1
EndSplineSet
Substitution2: "'init' Initial Forms in Arabic lookup 13 subtable" uni06BA.init
Substitution2: "'medi' Medial Forms in Arabic lookup 11 subtable" uni06BA.medi
Substitution2: "'fina' Terminal Forms in Arabic lookup 9 subtable" uniFB9F
EndChar

StartChar: uni06F4
Encoding: 1780 1780 87
Width: 1211
VWidth: 2169
GlyphClass: 2
Flags: W
LayerCount: 2
Fore
SplineSet
270.222 1416.22 m 2,0,1
 312.336 1338.57 312.336 1338.57 367.371 1210.79 c 1,2,3
 423.686 1371.7 423.686 1371.7 572.225 1448.7 c 0,4,5
 745.14 1537.07 745.14 1537.07 954.278 1451.29 c 2,6,-1
 964.274 1447.19 l 1,7,8
 1008.6 1376.51 1008.6 1376.51 1006.6 1230.51 c 1,9,10
 865.827 1279.47 865.827 1279.47 769.575 1276.18 c 0,11,12
 681.272 1273.16 681.272 1273.16 625.249 1219.3 c 0,13,14
 530.326 1128.03 530.326 1128.03 551.113 993.124 c 1,15,16
 767.453 919.07 767.453 919.07 989.11 1015 c 2,17,-1
 1021.99 1029.23 l 1,18,19
 1070.03 944.996 1070.03 944.996 1083.72 805.549 c 5,20,-1
 1056.15 794.265 l 2,21,22
 759.624 672.901 759.624 672.901 484.143 757.659 c 1,23,24
 482.424 720.862 482.424 720.862 499.566 539.854 c 0,25,26
 515.504 371.559 515.504 371.559 504.599 270.508 c 0,27,28
 491.273 147.04 491.273 147.04 458.966 87.9098 c 128,-1,29
 426.659 28.7795 426.659 28.7795 359.848 11.1709 c 2,30,-1
 275.597 -11.0342 l 1,31,-1
 275.505 40.7793 l 2,32,33
 274.928 365.826 274.928 365.826 233.766 670.357 c 0,34,35
 188.599 1008.51 188.599 1008.51 59.4727 1314.38 c 1,36,-1
 248.029 1457.14 l 1,37,-1
 270.222 1416.22 l 2,0,1
EndSplineSet
EndChar

StartChar: uni06F5
Encoding: 1781 1781 88
Width: 1212
VWidth: 2170
GlyphClass: 2
Flags: W
LayerCount: 2
Fore
SplineSet
646.474 399.522 m 0,0,1
 710.452 264.936 710.452 264.936 815.012 260.546 c 0,2,3
 831.777 259.848 831.777 259.848 845.53 262.217 c 0,4,5
 945.293 279.401 945.293 279.401 906.654 502.656 c 1,6,7
 851.786 797.276 851.786 797.276 574.081 988.479 c 1,8,9
 362.887 757.567 362.887 757.567 299.519 549.789 c 0,10,11
 273.133 463.273 273.133 463.273 270.238 401.509 c 0,12,13
 266.753 327.129 266.753 327.129 293.237 295.616 c 128,-1,14
 319.722 264.104 319.722 264.104 385.105 261.158 c 0,15,16
 478.624 256.944 478.624 256.944 547.135 399.229 c 0,17,18
 558.587 423.014 558.587 423.014 576.614 431.598 c 1,19,20
 588.53 438.76 588.53 438.76 599.656 436.82 c 128,-1,21
 610.782 434.881 610.782 434.881 618.194 431.532 c 128,-1,22
 625.606 428.185 625.606 428.185 632.197 420.427 c 128,-1,23
 638.788 412.668 638.788 412.668 641.634 408.192 c 128,-1,24
 644.479 403.717 644.479 403.717 646.474 399.522 c 0,0,1
368.769 2.38965 m 0,25,26
 216.143 2.3916 216.143 2.3916 128.255 82.4834 c 0,27,28
 29.5326 172.447 29.5326 172.447 28.2676 313.179 c 0,29,30
 24.1645 769.621 24.1645 769.621 399.771 1140.42 c 1,31,32
 378.164 1164.95 l 1,33,-1
 462.544 1403.79 l 1,34,35
 522.165 1362 522.165 1362 634.164 1264.95 c 1,36,37
 1180.16 768 1180.16 768 1145.5 315.961 c 0,38,39
 1132.95 165.799 1132.95 165.799 1046.29 79.4658 c 0,40,41
 964.384 -2.125 964.384 -2.125 825.815 2.91504 c 1,42,43
 669.357 6.9834 669.357 6.9834 596.366 111.566 c 1,44,45
 523.03 2.39258 523.03 2.39258 368.769 2.38965 c 0,25,26
EndSplineSet
EndChar

StartChar: uni06F6
Encoding: 1782 1782 89
Width: 1210
VWidth: 2310
GlyphClass: 2
Flags: W
LayerCount: 2
Fore
SplineSet
110.922 54.124 m 2,0,1
 165.666 243.211 165.666 243.211 283.537 422.381 c 0,2,3
 358.229 535.917 358.229 535.917 459.103 608.885 c 1,4,5
 342.839 656.039 342.839 656.039 283.567 748.158 c 128,-1,6
 224.296 840.276 224.296 840.276 225.346 970.338 c 0,7,8
 226.929 1144.72 226.929 1144.72 314.743 1248.76 c 0,9,10
 465.533 1428.09 465.533 1428.09 745.562 1395.95 c 0,11,12
 851.336 1383.81 851.336 1383.81 914.929 1324.45 c 2,13,-1
 925.235 1314.83 l 1,14,-1
 940.23 1129.92 l 1,15,16
 743.565 1212.51 743.565 1212.51 595.082 1149.22 c 0,17,18
 490.63 1104.7 490.63 1104.7 470.49 1008.78 c 0,19,20
 467.404 994.083 467.404 994.083 465.803 980.355 c 0,21,22
 455.256 889.996 455.256 889.996 510.031 839.517 c 128,-1,23
 564.807 789.036 564.807 789.036 702.551 773.322 c 1,24,25
 801.479 783.809 801.479 783.809 934.725 837.331 c 2,26,-1
 954.126 845.124 l 1,27,28
 1047.23 770.917 1047.23 770.917 1088.56 640.538 c 5,29,30
 831.828 580.609 831.828 580.609 616.229 414.917 c 0,31,32
 495.036 321.02 495.036 321.02 402.311 171.112 c 0,33,34
 391.766 154.064 391.766 154.064 354.156 104.054 c 0,35,36
 325.99 66.6016 325.99 66.6016 306.691 48.6182 c 128,-1,37
 287.394 30.6348 287.394 30.6348 264.619 17.4697 c 128,-1,38
 241.845 4.30512 241.845 4.30512 220.566 4.00391 c 2,39,-1
 95.9004 2.23926 l 1,40,-1
 110.922 54.124 l 2,0,1
EndSplineSet
EndChar

StartChar: uniFB8F
Encoding: 64399 64399 104
Width: 1953
VWidth: 2331
GlyphClass: 2
Flags: W
AnchorPoint: "Anchor-10" 338.756 1240.86 basechar 0
AnchorPoint: "Anchor-7" 422.496 -228.828 basechar 0
LayerCount: 2
Fore
SplineSet
964.26 258.172 m 0,0,1
 1150.39 258.138 1150.39 258.138 1237.79 289.777 c 128,-1,2
 1325.18 321.418 1325.18 321.418 1329.42 368.058 c 0,3,4
 1330.14 375.358 1330.14 375.358 1322.5 391.064 c 128,-1,5
 1314.85 406.771 1314.85 406.771 1290.99 436.337 c 128,-1,6
 1267.12 465.907 1267.12 465.907 1231.23 498.534 c 2,7,-1
 1001.06 707.798 l 2,8,9
 894.359 804.808 894.359 804.808 889.907 913.896 c 0,10,11
 886.53 986.422 886.53 986.422 924.667 1044.32 c 128,-1,12
 962.803 1102.21 962.803 1102.21 1036.17 1140.65 c 2,13,-1
 1786.91 1534.02 l 1,14,-1
 1774.31 1455.24 l 2,15,16
 1755.69 1338.91 1755.69 1338.91 1708.81 1243.22 c 2,17,-1
 1702.94 1231.23 l 1,18,-1
 1116.98 932.784 l 1,19,-1
 1732.92 342.669 l 2,20,21
 1821.24 258.056 1821.24 258.056 1928.65 258.341 c 2,22,-1
 2004.19 258.541 l 1,23,-1
 2004.19 -0.578125 l 1,24,-1
 1896.63 -0.578125 l 2,25,26
 1715.05 -0.578125 1715.05 -0.578125 1517.81 237.057 c 1,27,28
 1395.84 2.39258 1395.84 2.39258 931.172 -4.64355 c 0,29,30
 421.771 -12.3848 421.771 -12.3848 258.992 73.8594 c 0,31,32
 45.1855 186.485 45.1855 186.485 52.3115 517.451 c 0,33,34
 55.2052 653.214 55.2052 653.214 111.154 762.396 c 2,35,-1
 122.336 784.216 l 1,36,-1
 248.136 734.847 l 5,37,38
 236.136 688.789 236.136 688.789 225.519 610.583 c 0,39,40
 220.548 568.589 220.548 568.589 222.453 515.002 c 0,41,42
 226.098 415.258 226.098 415.258 300.819 354.24 c 128,-1,43
 375.54 293.223 375.54 293.223 535.462 269.811 c 0,44,45
 615.613 258.076 615.613 258.076 964.26 258.172 c 0,0,1
EndSplineSet
EndChar

StartChar: uniFB9F
Encoding: 64415 64415 112
Width: 1418
VWidth: 2331
GlyphClass: 2
Flags: W
AnchorPoint: "Anchor-10" 337.69 793.27 basechar 0
AnchorPoint: "Anchor-7" 237.648 -704.038 basechar 0
LayerCount: 2
Fore
SplineSet
191.077 482.234 m 1,0,-1
 315.592 385.183 l 1,1,-1
 306.465 358.264 l 2,2,3
 214.507 87.0469 214.507 87.0469 275.373 -43.2812 c 0,4,5
 321.269 -140.251 321.269 -140.251 416.188 -187.311 c 128,-1,6
 511.107 -234.37 511.107 -234.37 664.172 -231.81 c 0,7,8
 885.814 -228.042 885.814 -228.042 994.79 -160.665 c 128,-1,9
 1103.77 -93.2881 1103.77 -93.2881 1117.01 35.4668 c 1,10,-1
 979.753 459.815 l 1,11,-1
 1200.96 669.113 l 1,12,-1
 1214.63 597.267 l 2,13,14
 1257.92 369.525 1257.92 369.525 1281.01 320.663 c 0,15,16
 1284.03 314.428 1284.03 314.428 1287.5 308.707 c 0,17,18
 1317.88 258.675 1317.88 258.675 1384.11 258.675 c 2,19,-1
 1468.89 258.675 l 1,20,-1
 1468.89 -0.337891 l 1,21,-1
 1386.39 -0.337891 l 2,22,23
 1343.67 -0.337891 1343.67 -0.337891 1305.81 20.8154 c 1,24,25
 1260.83 -222.695 1260.83 -222.695 1099.34 -349.465 c 128,-1,26
 937.845 -476.234 937.845 -476.234 669.816 -481.355 c 0,27,28
 284.611 -488.41 284.611 -488.41 132.827 -270.362 c 0,29,30
 13.9824 -98.2607 13.9824 -98.2607 77.3242 156.867 c 0,31,32
 93.6152 221.876 93.6152 221.876 129.059 326.217 c 0,33,34
 151.524 392.352 151.524 392.352 170.388 435.219 c 2,35,-1
 191.077 482.234 l 1,0,-1
EndSplineSet
EndChar

StartChar: uniFBE8
Encoding: 64488 64488 115
Width: 561
VWidth: 2330
GlyphClass: 2
Flags: W
AnchorPoint: "Anchor-10" 204.879 1096.31 basechar 0
AnchorPoint: "Anchor-7" 230.02 -176.43 basechar 0
LayerCount: 2
Fore
SplineSet
4.45605 -0.179688 m 1,0,-1
 -70.1113 -0.179688 l 1,1,-1
 -70.1113 258.938 l 1,2,-1
 11.0264 258.938 l 2,3,4
 29.4463 258.938 29.4463 258.938 46.6562 259.545 c 0,5,6
 173.077 264.002 173.077 264.002 224.097 295.493 c 128,-1,7
 275.115 326.985 275.115 326.985 273.132 381.467 c 0,8,9
 272.543 388.783 272.543 388.783 260.287 418.28 c 128,-1,10
 248.031 447.778 248.031 447.778 219.931 504.816 c 128,-1,11
 191.831 561.855 191.831 561.855 155.582 627.603 c 2,12,-1
 140.314 655.292 l 1,13,-1
 347.09 842.907 l 1,14,-1
 370.235 794.344 l 2,15,16
 459.116 607.856 459.116 607.856 469.153 433.206 c 0,17,18
 480.474 236.224 480.474 236.224 383.275 122.928 c 0,19,20
 274.131 -4.48242 274.131 -4.48242 4.45605 -0.179688 c 1,0,-1
EndSplineSet
EndChar

StartChar: uniFBE9
Encoding: 64489 64489 116
Width: 664
VWidth: 2330
GlyphClass: 2
Flags: W
AnchorPoint: "Anchor-10" 315.928 1045.08 basechar 0
AnchorPoint: "Anchor-7" 296.848 -105.025 basechar 0
LayerCount: 2
Fore
SplineSet
275.29 557.828 m 2,0,1
 278.601 594.685 278.601 594.685 297.529 622.256 c 128,-1,2
 316.458 649.826 316.458 649.826 353.276 650.135 c 128,-1,3
 390.245 650.462 390.245 650.462 413.168 625.035 c 128,-1,4
 436.091 599.609 436.091 599.609 439.022 562.688 c 2,5,-1
 443.631 494.763 l 2,6,7
 453.59 347.977 453.59 347.977 490.583 306.294 c 0,8,9
 531.272 258.824 531.272 258.824 662.562 258.824 c 2,10,-1
 714.702 258.824 l 1,11,-1
 714.702 -2.82715 l 1,12,-1
 655.968 0.780273 l 2,13,14
 453.45 13.2188 453.45 13.2188 363.063 124.449 c 1,15,16
 250.342 3.84766 250.342 3.84766 59.6367 0.717773 c 2,17,-1
 -50.4424 -0.879883 l 1,18,-1
 -50.4424 258.824 l 1,19,-1
 46.8154 258.824 l 2,20,21
 126.127 258.824 126.127 258.824 175.308 279.987 c 0,22,23
 222.711 300.404 222.711 300.404 245.696 335.476 c 128,-1,24
 268.681 370.547 268.681 370.547 270.654 426.994 c 2,25,-1
 275.192 556.74 l 1,26,-1
 275.29 557.828 l 2,0,1
EndSplineSet
EndChar

StartChar: uniFE73
Encoding: 65139 65139 124
Width: 573
VWidth: 2186
GlyphClass: 2
Flags: W
AnchorPoint: "Anchor-10" 210.79 1279.5 basechar 0
AnchorPoint: "Anchor-7" 210.79 -111.5 basechar 0
LayerCount: 2
Fore
SplineSet
296.23 350.74 m 2,0,1
 296.23 286.506 296.23 286.506 352.468 230.268 c 0,2,3
 403.354 179.38 403.354 179.38 514.67 179.38 c 2,4,-1
 581.92 179.38 l 1,5,-1
 581.92 8.5 l 1,6,-1
 455.82 8.5 l 2,7,8
 309.266 8.5 309.266 8.5 214.633 103.133 c 0,9,10
 125.35 192.415 125.35 192.415 125.35 337.9 c 2,11,-1
 125.35 370.91 l 1,12,-1
 296.23 370.91 l 1,13,-1
 296.23 350.74 l 2,0,1
EndSplineSet
EndChar

StartChar: uniFE8E
Encoding: 65166 65166 150
Width: 545
VWidth: 2307
GlyphClass: 2
Flags: W
AnchorPoint: "Anchor-10" 205.257 1465.7 basechar 0
AnchorPoint: "Anchor-7" 241.297 -222.991 basechar 0
LayerCount: 2
Fore
SplineSet
323.132 1427.87 m 5,0,-1
 323.738 481.709 l 2,1,2
 323.818 357.487 323.818 357.487 368.714 310.167 c 0,3,4
 417.123 259.018 417.123 259.018 521.01 259.018 c 2,5,-1
 595.195 259.018 l 1,6,-1
 595.195 -0.100586 l 1,7,-1
 499.969 -0.100586 l 2,8,9
 328.432 -0.100586 328.432 -0.100586 222.238 138.663 c 0,10,11
 149.593 233.589 149.593 233.589 140.708 465.768 c 1,12,-1
 72.2861 1217.04 l 5,13,-1
 323.132 1427.87 l 5,0,-1
EndSplineSet
EndChar

StartChar: uniFEA2
Encoding: 65186 65186 170
Width: 1431
VWidth: 2327
GlyphClass: 2
Flags: W
AnchorPoint: "Anchor-10" 578.238 1236.58 basechar 0
AnchorPoint: "Anchor-7" 322.979 -844.646 basechar 0
LayerCount: 2
Fore
SplineSet
1112.21 479.02 m 1,0,1
 1138.76 364.625 1138.76 364.625 1202.54 311.999 c 128,-1,2
 1266.33 259.374 1266.33 259.374 1376.29 259.374 c 2,3,-1
 1481.12 259.374 l 1,4,-1
 1481.12 -0.638672 l 1,5,-1
 1383.05 -0.638672 l 2,6,7
 1212.94 -0.638672 1212.94 -0.638672 1104.53 113.565 c 128,-1,8
 996.127 227.77 996.127 227.77 952.124 443.532 c 1,9,10
 628.564 361.502 628.564 361.502 452.117 225.348 c 0,11,12
 272.432 86 272.432 86 275.726 -137.939 c 0,13,14
 278.891 -308.487 278.891 -308.487 423.837 -407.965 c 0,15,16
 557.953 -500.011 557.953 -500.011 890.452 -473.853 c 0,17,18
 1107.08 -456.357 1107.08 -456.357 1249.97 -353.362 c 2,19,-1
 1321.82 -301.571 l 1,20,-1
 1310.43 -417.634 l 2,21,22
 1298.8 -536.121 1298.8 -536.121 1213.68 -612.685 c 128,-1,23
 1128.56 -689.247 1128.56 -689.247 980.197 -721.798 c 0,24,25
 895.822 -740.314 895.822 -740.314 805.104 -743.699 c 0,26,27
 656.898 -749.394 656.898 -749.394 541.352 -727.262 c 0,28,29
 326.729 -684.757 326.729 -684.757 203.191 -559.942 c 128,-1,30
 79.6543 -435.129 79.6543 -435.129 54.8242 -233.693 c 0,31,32
 7.45215 150.827 7.45215 150.827 372.413 410.566 c 0,33,34
 542.65 532.685 542.65 532.685 858.835 616.903 c 1,35,36
 832.167 629.292 832.167 629.292 801.867 645.012 c 0,37,38
 657.27 720.546 657.27 720.546 561.452 712.471 c 0,39,40
 459.363 703.866 459.363 703.866 364.197 515.606 c 2,41,-1
 352.382 492.232 l 1,42,-1
 312.454 494.498 l 2,43,44
 296.316 495.414 296.316 495.414 285.06 502.242 c 128,-1,45
 273.804 509.069 273.804 509.069 267.708 518.062 c 128,-1,46
 261.612 527.054 261.612 527.054 259.424 542.582 c 128,-1,47
 257.235 558.109 257.235 558.109 257.221 570.159 c 128,-1,48
 257.207 582.209 257.207 582.209 260.259 601.835 c 128,-1,49
 263.311 621.462 263.311 621.462 265.551 631.968 c 128,-1,50
 267.791 642.475 267.791 642.475 272.122 661.181 c 0,51,52
 274.626 671.991 274.626 671.991 275.703 676.878 c 0,53,54
 285.584 721.697 285.584 721.697 318.692 789.941 c 0,55,56
 354.084 863.08 354.084 863.08 414.769 902.739 c 128,-1,57
 475.452 942.397 475.452 942.397 555.546 944.476 c 0,58,59
 694.468 948.828 694.468 948.828 939.836 808.494 c 0,60,61
 1046.57 747.46 1046.57 747.46 1260.03 723.999 c 2,62,-1
 1301.89 719.398 l 1,63,-1
 1267.18 505.446 l 1,64,-1
 1238.5 500.976 l 2,65,66
 1173.72 490.875 1173.72 490.875 1112.21 479.02 c 1,0,1
EndSplineSet
EndChar

StartChar: uniFEA3
Encoding: 65187 65187 171
Width: 1231
VWidth: 2331
GlyphClass: 2
Flags: W
AnchorPoint: "Anchor-10" 287.645 1135.46 basechar 0
AnchorPoint: "Anchor-7" 494.345 -201.447 basechar 0
LayerCount: 2
Fore
SplineSet
664.011 149.744 m 0,0,1
 417.628 -0.436523 417.628 -0.436523 15.4951 -0.436523 c 2,2,-1
 -59.9795 -0.436523 l 1,3,-1
 -59.9795 259.682 l 1,4,-1
 6.12012 259.682 l 2,5,6
 334.18 259.682 334.18 259.682 598.181 359.421 c 0,7,8
 702.64 398.555 702.64 398.555 765.232 424.83 c 1,9,10
 685.64 451.341 685.64 451.341 578.373 501.491 c 0,11,12
 408.733 580.801 408.733 580.801 339.188 570.033 c 0,13,14
 230.338 553.186 230.338 553.186 139.173 372.842 c 2,15,-1
 127.358 349.469 l 1,16,-1
 87.4316 351.732 l 2,17,18
 70.9111 352.668 70.9111 352.668 59.4473 359.668 c 128,-1,19
 47.9834 366.667 47.9834 366.667 41.8408 375.894 c 128,-1,20
 35.6992 385.12 35.6992 385.12 33.6084 400.979 c 128,-1,21
 31.5166 416.839 31.5166 416.839 31.627 429.155 c 128,-1,22
 31.7363 441.472 31.7363 441.472 35.0322 461.413 c 128,-1,23
 38.3281 481.354 38.3281 481.354 40.7031 491.983 c 128,-1,24
 43.0791 502.612 43.0791 502.612 47.6348 521.436 c 0,25,26
 49.8232 530.476 49.8232 530.476 50.7969 534.628 c 0,27,28
 68.1328 608.597 68.1328 608.597 83.5234 640.138 c 0,29,30
 161.427 797.59 161.427 797.59 330.051 814.805 c 0,31,32
 398.218 821.371 398.218 821.371 495.234 787.459 c 128,-1,33
 592.25 753.547 592.25 753.547 729.14 679.105 c 0,34,35
 863.348 605.322 863.348 605.322 1108 560.758 c 2,36,-1
 1146.74 553.701 l 1,37,-1
 1110.49 335.221 l 1,38,-1
 1071.35 341.323 l 2,39,40
 1043.37 345.687 1043.37 345.687 933.676 296.413 c 128,-1,41
 823.98 247.14 823.98 247.14 664.011 149.744 c 0,0,1
EndSplineSet
EndChar

StartChar: uniFEA4
Encoding: 65188 65188 172
Width: 1215
VWidth: 2331
GlyphClass: 2
Flags: W
AnchorPoint: "Anchor-10" 364.224 1157.15 basechar 0
AnchorPoint: "Anchor-7" 542.304 -209.39 basechar 0
LayerCount: 2
Fore
SplineSet
899.231 283.945 m 1,0,1
 930.512 259.173 930.512 259.173 1018.58 259.173 c 2,2,-1
 1265.5 259.173 l 1,3,-1
 1265.5 -0.900391 l 1,4,-1
 995.898 -0.900391 l 2,5,6
 906.453 -0.900391 906.453 -0.900391 839.986 49.5264 c 128,-1,7
 773.519 99.9531 773.519 99.9531 734.835 193.255 c 1,8,-1
 664.074 149.783 l 1,9,10
 417.628 -0.436523 417.628 -0.436523 15.4951 -0.436523 c 2,11,-1
 -59.9795 -0.436523 l 1,12,-1
 -59.9795 259.682 l 1,13,-1
 17.1201 259.682 l 2,14,15
 334.18 259.682 334.18 259.682 598.181 359.421 c 0,16,17
 699.968 397.554 699.968 397.554 762.169 423.546 c 1,18,19
 675.21 450.865 675.21 450.865 576.795 502.271 c 0,20,21
 432.24 577.778 432.24 577.778 336.428 569.703 c 0,22,23
 234.338 561.099 234.338 561.099 139.173 372.842 c 2,24,-1
 127.358 349.469 l 1,25,-1
 87.4316 351.732 l 2,26,27
 71.2725 352.648 71.2725 352.648 60.0049 359.488 c 128,-1,28
 48.7373 366.328 48.7373 366.328 42.6396 375.337 c 128,-1,29
 36.543 384.346 36.543 384.346 34.3594 399.895 c 128,-1,30
 32.1768 415.443 32.1768 415.443 32.1699 427.51 c 128,-1,31
 32.1621 439.577 32.1621 439.577 35.2275 459.219 c 128,-1,32
 38.292 478.86 38.292 478.86 40.5381 489.369 c 128,-1,33
 42.7852 499.878 42.7852 499.878 47.126 518.578 c 0,34,35
 49.6133 529.293 49.6133 529.293 50.6855 534.14 c 0,36,37
 67.2061 608.827 67.2061 608.827 97.0723 655.482 c 0,38,39
 190.149 800.881 190.149 800.881 346.313 806.89 c 0,40,41
 459.792 810.694 459.792 810.694 713.663 676.361 c 0,42,43
 857.563 600.218 857.563 600.218 1119.75 560.964 c 2,44,-1
 1159.94 554.946 l 1,45,-1
 1123.78 336.984 l 1,46,-1
 1086.18 341.081 l 2,47,48
 1031.45 347.044 1031.45 347.044 899.231 283.945 c 1,0,1
EndSplineSet
EndChar

StartChar: uniFEAA
Encoding: 65194 65194 178
Width: 1038
VWidth: 2325
GlyphClass: 2
Flags: W
AnchorPoint: "Anchor-10" 448.035 1211.14 basechar 0
AnchorPoint: "Anchor-7" 353.176 -236.449 basechar 0
LayerCount: 2
Fore
SplineSet
159.127 352.404 m 2,0,1
 167.024 291.021 167.024 291.021 206.646 261.611 c 128,-1,2
 246.267 232.201 246.267 232.201 331.003 230.86 c 0,3,4
 458.419 228.688 458.419 228.688 534.706 244.166 c 128,-1,5
 610.993 259.643 610.993 259.643 625.849 279.931 c 0,6,7
 644.528 305.443 644.528 305.443 635.995 348.897 c 0,8,9
 634.858 354.89 634.858 354.89 633.687 359.298 c 1,10,-1
 418.626 741.462 l 1,11,-1
 550.008 999.171 l 1,12,-1
 822.136 467.457 l 1,13,14
 882.688 362.58 882.688 362.58 934.698 311.346 c 128,-1,15
 986.707 260.111 986.707 260.111 1020.46 258.666 c 2,16,-1
 1030.12 258.253 l 1,17,-1
 1088.29 258.253 l 1,18,-1
 1088.29 -0.759766 l 1,19,-1
 1034.69 -0.759766 l 2,20,21
 890.96 -0.759766 890.96 -0.759766 778.465 121.03 c 1,22,23
 659.529 -44.6611 659.529 -44.6611 318.075 -30.3594 c 2,24,-1
 278.852 -28.7168 l 1,25,-1
 277.269 -28.5234 l 2,26,27
 169.296 -15.334 169.296 -15.334 110.321 48.416 c 128,-1,28
 51.3457 112.166 51.3457 112.166 51.6172 217.233 c 2,29,-1
 52.0225 373.885 l 1,30,-1
 76.4277 384.164 l 2,31,32
 106.341 396.763 106.341 396.763 135.555 383.916 c 2,33,-1
 156.243 374.819 l 1,34,-1
 159.127 352.404 l 2,0,1
EndSplineSet
EndChar

StartChar: uniFEAE
Encoding: 65198 65198 182
Width: 919
VWidth: 2330
GlyphClass: 2
Flags: W
AnchorPoint: "Anchor-10" 463.796 904.783 basechar 0
AnchorPoint: "Anchor-7" 435.097 -621.14 basechar 0
LayerCount: 2
Fore
SplineSet
784.365 11.4561 m 1,0,1
 737.227 -201.118 737.227 -201.118 630.816 -318.616 c 128,-1,2
 524.406 -436.115 524.406 -436.115 360.193 -448.847 c 0,3,4
 172.9 -463.57 172.9 -463.57 24.4512 -326.274 c 2,5,-1
 -40.4609 -266.24 l 1,6,-1
 48.0889 -257.06 l 2,7,8
 337.117 -226.898 337.117 -226.898 476.872 -120.388 c 128,-1,9
 616.628 -13.877 616.628 -13.877 623.943 169.82 c 1,10,11
 623.475 183.384 623.475 183.384 600.396 228.317 c 128,-1,12
 577.316 273.252 577.316 273.252 535.195 333.362 c 2,13,-1
 525.07 347.811 l 1,14,15
 674.329 607.557 l 1,16,17
 760.036 439.944 760.036 439.944 817.121 298.108 c 5,18,19
 857.978 258.822 857.978 258.822 896.727 258.822 c 2,20,-1
 976.532 258.822 l 1,21,-1
 976.532 -0.293945 l 1,22,-1
 936.533 -0.294922 l 1,23,-1
 877.982 -0.289062 l 2,24,25
 821.643 -0.12793 821.643 -0.12793 784.365 11.4561 c 1,0,1
EndSplineSet
PairPos2: "'kern' Horizontal Kerning lookup 15-1" uni06CC dx=-141 dy=0 dh=-141 dv=0 dx=0 dy=0 dh=0 dv=0
PairPos2: "'kern' Horizontal Kerning lookup 15-1" uniFEEB dx=-213 dy=0 dh=-213 dv=0 dx=0 dy=0 dh=0 dv=0
PairPos2: "'kern' Horizontal Kerning lookup 15-1" uniFB58 dx=99 dy=0 dh=99 dv=0 dx=0 dy=0 dh=0 dv=0
PairPos2: "'kern' Horizontal Kerning lookup 15-1" uniFEF3 dx=99 dy=0 dh=99 dv=0 dx=0 dy=0 dh=0 dv=0
PairPos2: "'kern' Horizontal Kerning lookup 15-1" uniFBFE dx=99 dy=0 dh=99 dv=0 dx=0 dy=0 dh=0 dv=0
PairPos2: "'kern' Horizontal Kerning lookup 15-1" uniFEDF dx=-213 dy=0 dh=-213 dv=0 dx=0 dy=0 dh=0 dv=0
PairPos2: "'kern' Horizontal Kerning lookup 15-1" uniFB90 dx=-213 dy=0 dh=-213 dv=0 dx=0 dy=0 dh=0 dv=0
PairPos2: "'kern' Horizontal Kerning lookup 15-1" uni06A9 dx=-213 dy=0 dh=-213 dv=0 dx=0 dy=0 dh=0 dv=0
PairPos2: "'kern' Horizontal Kerning lookup 15-1" uni0649 dx=-141 dy=0 dh=-141 dv=0 dx=0 dy=0 dh=0 dv=0
PairPos2: "'kern' Horizontal Kerning lookup 15-1" uni0647 dx=-213 dy=0 dh=-213 dv=0 dx=0 dy=0 dh=0 dv=0
PairPos2: "'kern' Horizontal Kerning lookup 15-1" uniFEE7 dx=-213 dy=0 dh=-213 dv=0 dx=0 dy=0 dh=0 dv=0
PairPos2: "'kern' Horizontal Kerning lookup 15-1" uniFEE3 dx=-213 dy=0 dh=-213 dv=0 dx=0 dy=0 dh=0 dv=0
PairPos2: "'kern' Horizontal Kerning lookup 15-1" uni0645 dx=-213 dy=0 dh=-213 dv=0 dx=0 dy=0 dh=0 dv=0
PairPos2: "'kern' Horizontal Kerning lookup 15-1" uniFEDB dx=-213 dy=0 dh=-213 dv=0 dx=0 dy=0 dh=0 dv=0
PairPos2: "'kern' Horizontal Kerning lookup 15-1" uniFED7 dx=-213 dy=0 dh=-213 dv=0 dx=0 dy=0 dh=0 dv=0
PairPos2: "'kern' Horizontal Kerning lookup 15-1" uniFED3 dx=-213 dy=0 dh=-213 dv=0 dx=0 dy=0 dh=0 dv=0
PairPos2: "'kern' Horizontal Kerning lookup 15-1" uni0641 dx=-213 dy=0 dh=-213 dv=0 dx=0 dy=0 dh=0 dv=0
PairPos2: "'kern' Horizontal Kerning lookup 15-1" uniFECF dx=-213 dy=0 dh=-213 dv=0 dx=0 dy=0 dh=0 dv=0
PairPos2: "'kern' Horizontal Kerning lookup 15-1" uniFECB dx=-213 dy=0 dh=-213 dv=0 dx=0 dy=0 dh=0 dv=0
PairPos2: "'kern' Horizontal Kerning lookup 15-1" uniFEC7 dx=-213 dy=0 dh=-213 dv=0 dx=0 dy=0 dh=0 dv=0
PairPos2: "'kern' Horizontal Kerning lookup 15-1" uni0638 dx=-213 dy=0 dh=-213 dv=0 dx=0 dy=0 dh=0 dv=0
PairPos2: "'kern' Horizontal Kerning lookup 15-1" uniFEC3 dx=-213 dy=0 dh=-213 dv=0 dx=0 dy=0 dh=0 dv=0
PairPos2: "'kern' Horizontal Kerning lookup 15-1" uni0637 dx=-213 dy=0 dh=-213 dv=0 dx=0 dy=0 dh=0 dv=0
PairPos2: "'kern' Horizontal Kerning lookup 15-1" uniFEBF dx=-213 dy=0 dh=-213 dv=0 dx=0 dy=0 dh=0 dv=0
PairPos2: "'kern' Horizontal Kerning lookup 15-1" uni0636 dx=-213 dy=0 dh=-213 dv=0 dx=0 dy=0 dh=0 dv=0
PairPos2: "'kern' Horizontal Kerning lookup 15-1" uniFEBB dx=-213 dy=0 dh=-213 dv=0 dx=0 dy=0 dh=0 dv=0
PairPos2: "'kern' Horizontal Kerning lookup 15-1" uni0635 dx=-213 dy=0 dh=-213 dv=0 dx=0 dy=0 dh=0 dv=0
PairPos2: "'kern' Horizontal Kerning lookup 15-1" uniFEB7 dx=-213 dy=0 dh=-213 dv=0 dx=0 dy=0 dh=0 dv=0
PairPos2: "'kern' Horizontal Kerning lookup 15-1" uni0634 dx=-213 dy=0 dh=-213 dv=0 dx=0 dy=0 dh=0 dv=0
PairPos2: "'kern' Horizontal Kerning lookup 15-1" uniFEB3 dx=-213 dy=0 dh=-213 dv=0 dx=0 dy=0 dh=0 dv=0
PairPos2: "'kern' Horizontal Kerning lookup 15-1" uni0633 dx=-213 dy=0 dh=-213 dv=0 dx=0 dy=0 dh=0 dv=0
PairPos2: "'kern' Horizontal Kerning lookup 15-1" uni0630 dx=-213 dy=0 dh=-213 dv=0 dx=0 dy=0 dh=0 dv=0
PairPos2: "'kern' Horizontal Kerning lookup 15-1" uni062F dx=-213 dy=0 dh=-213 dv=0 dx=0 dy=0 dh=0 dv=0
PairPos2: "'kern' Horizontal Kerning lookup 15-1" uniFEA7 dx=-213 dy=0 dh=-213 dv=0 dx=0 dy=0 dh=0 dv=0
PairPos2: "'kern' Horizontal Kerning lookup 15-1" uniFEA3 dx=-213 dy=0 dh=-213 dv=0 dx=0 dy=0 dh=0 dv=0
PairPos2: "'kern' Horizontal Kerning lookup 15-1" uniFE9F dx=-213 dy=0 dh=-213 dv=0 dx=0 dy=0 dh=0 dv=0
PairPos2: "'kern' Horizontal Kerning lookup 15-1" uniFE9B dx=-213 dy=0 dh=-213 dv=0 dx=0 dy=0 dh=0 dv=0
PairPos2: "'kern' Horizontal Kerning lookup 15-1" uni062B dx=-213 dy=0 dh=-213 dv=0 dx=0 dy=0 dh=0 dv=0
PairPos2: "'kern' Horizontal Kerning lookup 15-1" uniFE97 dx=-213 dy=0 dh=-213 dv=0 dx=0 dy=0 dh=0 dv=0
PairPos2: "'kern' Horizontal Kerning lookup 15-1" uni062A dx=-213 dy=0 dh=-213 dv=0 dx=0 dy=0 dh=0 dv=0
PairPos2: "'kern' Horizontal Kerning lookup 15-1" uni0629 dx=-213 dy=0 dh=-213 dv=0 dx=0 dy=0 dh=0 dv=0
PairPos2: "'kern' Horizontal Kerning lookup 15-1" uni0628 dx=-213 dy=0 dh=-213 dv=0 dx=0 dy=0 dh=0 dv=0
PairPos2: "'kern' Horizontal Kerning lookup 15-1" uni0627 dx=-241 dy=0 dh=-241 dv=0 dx=0 dy=0 dh=0 dv=0
PairPos2: "'kern' Horizontal Kerning lookup 15-1" uni0622 dx=-241 dy=0 dh=-241 dv=0 dx=0 dy=0 dh=0 dv=0
PairPos2: "'kern' Horizontal Kerning lookup 15-1" uniFB94 dx=-213 dy=0 dh=-213 dv=0 dx=0 dy=0 dh=0 dv=0
PairPos2: "'kern' Horizontal Kerning lookup 15-1" afii57509 dx=-213 dy=0 dh=-213 dv=0 dx=0 dy=0 dh=0 dv=0
PairPos2: "'kern' Horizontal Kerning lookup 15-1" uniFB56 dx=-213 dy=0 dh=-213 dv=0 dx=0 dy=0 dh=0 dv=0
PairPos2: "'kern' Horizontal Kerning lookup 15-1" afii57506 dx=-213 dy=0 dh=-213 dv=0 dx=0 dy=0 dh=0 dv=0
EndChar

StartChar: uniFEB2
Encoding: 65202 65202 186
Width: 2394
VWidth: 2330
GlyphClass: 2
Flags: W
AnchorPoint: "Anchor-10" 553.867 971.321 basechar 0
AnchorPoint: "Anchor-7" 378.967 -706.659 basechar 0
LayerCount: 2
Fore
SplineSet
1425.63 250.989 m 0,0,1
 1488.52 250.365 1488.52 250.365 1524.64 272.479 c 128,-1,2
 1560.77 294.593 1560.77 294.593 1578.8 342.091 c 0,3,4
 1580.74 347.196 1580.74 347.196 1582.49 352.673 c 2,5,-1
 1599 473.637 l 1,6,-1
 1599.12 474.998 l 2,7,8
 1602.44 511.855 1602.44 511.855 1621.36 539.424 c 128,-1,9
 1640.29 566.992 1640.29 566.992 1677.11 567.301 c 0,10,11
 1714.15 567.628 1714.15 567.628 1737.03 542.231 c 128,-1,12
 1759.92 516.834 1759.92 516.834 1762.88 479.48 c 1,13,-1
 1764.03 456.094 l 2,14,15
 1769.17 350.903 1769.17 350.903 1800.94 306.248 c 128,-1,16
 1832.7 261.594 1832.7 261.594 1891.19 259.635 c 1,17,18
 1944.49 259.174 1944.49 259.174 1974.65 302.551 c 128,-1,19
 2004.81 345.928 2004.81 345.928 2011.16 452.587 c 0,20,21
 2014.53 509.062 2014.53 509.062 2012.19 565.83 c 2,22,-1
 2012.09 568.446 l 1,23,-1
 2012.32 571.052 l 2,24,25
 2015.63 607.908 2015.63 607.908 2034.56 635.481 c 128,-1,26
 2053.49 663.055 2053.49 663.055 2090.31 663.36 c 0,27,28
 2127.33 663.688 2127.33 663.688 2150.05 638.331 c 128,-1,29
 2172.76 612.974 2172.76 612.974 2176.04 576.17 c 2,30,-1
 2177.9 557.375 l 2,31,32
 2184.67 488.824 2184.67 488.824 2193.02 430.599 c 128,-1,33
 2201.36 372.372 2201.36 372.372 2207.25 343.513 c 128,-1,34
 2213.14 314.654 2213.14 314.654 2216.24 308.768 c 0,35,36
 2245.84 259.736 2245.84 259.736 2370.58 259.736 c 2,37,-1
 2447.88 259.736 l 1,38,-1
 2447.88 -0.335938 l 1,39,-1
 2377.1 -0.335938 l 2,40,41
 2167.47 -0.335938 2167.47 -0.335938 2082.87 118.241 c 1,42,43
 2008.2 5.73047 2008.2 5.73047 1889.19 0.532227 c 1,44,45
 1817.54 -0.0898438 1817.54 -0.0898438 1774.85 20.3896 c 0,46,47
 1703.01 54.8574 1703.01 54.8574 1659.16 119.885 c 1,48,49
 1580.15 -0.19043 1580.15 -0.19043 1421.24 0.000976562 c 1,50,-1
 1382.66 1.04785 l 2,51,52
 1338.73 2.24023 1338.73 2.24023 1303.61 19.7637 c 1,53,54
 1258.45 -223.211 1258.45 -223.211 1097 -349.726 c 128,-1,55
 935.548 -476.239 935.548 -476.239 667.816 -481.355 c 0,56,57
 282.61 -488.41 282.61 -488.41 130.825 -270.359 c 0,58,59
 8.5332 -93.2666 8.5332 -93.2666 75.542 157.714 c 0,60,61
 95.5781 232.762 95.5781 232.762 124.996 321.294 c 0,62,63
 152.792 406.966 152.792 406.966 162.517 433.071 c 2,64,-1
 180.205 480.556 l 1,65,-1
 314.689 390.333 l 1,66,-1
 305.007 361.41 l 2,67,68
 213.328 87.5449 213.328 87.5449 273.432 -43.4043 c 1,69,70
 319.257 -140.227 319.257 -140.227 414.208 -187.298 c 128,-1,71
 509.159 -234.369 509.159 -234.369 662.172 -231.81 c 0,72,73
 883.814 -228.042 883.814 -228.042 992.79 -160.665 c 128,-1,74
 1101.77 -93.2881 1101.77 -93.2881 1115.01 35.4668 c 1,75,-1
 977.753 459.815 l 1,76,-1
 1199.14 669.28 l 1,77,-1
 1212.65 597.157 l 2,78,79
 1249.42 400.815 1249.42 400.815 1274.36 334.272 c 0,80,81
 1277.38 326.195 1277.38 326.195 1280.06 320.557 c 0,82,83
 1312.46 252.33 1312.46 252.33 1425.63 250.989 c 0,0,1
EndSplineSet
EndChar

StartChar: uniFEB3
Encoding: 65203 65203 187
Width: 1399
VWidth: 2330
GlyphClass: 2
Flags: W
AnchorPoint: "Anchor-10" 640.331 1029.51 basechar 0
AnchorPoint: "Anchor-7" 619.53 -182.6 basechar 0
LayerCount: 2
Fore
SplineSet
219.479 420.301 m 2,0,1
 222.788 457.156 222.788 457.156 241.718 484.729 c 128,-1,2
 260.647 512.3 260.647 512.3 297.463 512.606 c 128,-1,3
 334.255 512.934 334.255 512.934 357.103 487.476 c 128,-1,4
 379.949 462.019 379.949 462.019 383.09 426.625 c 1,5,-1
 387.018 398.219 l 2,6,7
 397.998 318.781 397.998 318.781 429.904 285.095 c 128,-1,8
 461.811 251.408 461.811 251.408 519.952 250.797 c 0,9,10
 582.887 250.172 582.887 250.172 619.004 272.282 c 128,-1,11
 655.12 294.392 655.12 294.392 673.158 341.897 c 0,12,13
 675.108 347.035 675.108 347.035 676.843 352.48 c 0,14,15
 691.769 399.345 691.769 399.345 693.327 472.079 c 2,16,-1
 693.356 473.443 l 1,17,-1
 693.479 474.802 l 2,18,19
 696.789 511.657 696.789 511.657 715.719 539.229 c 128,-1,20
 734.647 566.801 734.647 566.801 771.463 567.106 c 0,21,22
 808.505 567.435 808.505 567.435 831.389 542.039 c 128,-1,23
 854.271 516.645 854.271 516.645 857.24 479.286 c 1,24,-1
 858.385 455.899 l 2,25,26
 863.512 351.021 863.512 351.021 896.113 306.245 c 128,-1,27
 928.716 261.471 928.716 261.471 989.301 259.448 c 0,28,29
 994.229 259.463 994.229 259.463 998.668 259.615 c 0,30,31
 1063.25 261.832 1063.25 261.832 1088.71 289.301 c 128,-1,32
 1114.18 316.771 1114.18 316.771 1111.8 381.979 c 0,33,34
 1111.21 389.295 1111.21 389.295 1098.96 418.791 c 128,-1,35
 1086.7 448.287 1086.7 448.287 1058.6 505.328 c 128,-1,36
 1030.5 562.369 1030.5 562.369 994.252 628.113 c 2,37,-1
 978.984 655.803 l 1,38,-1
 1185.76 843.419 l 1,39,-1
 1208.91 794.854 l 2,40,41
 1297.79 608.343 1297.79 608.343 1307.82 433.716 c 0,42,43
 1319.02 238.885 1319.02 238.885 1222.26 123.803 c 0,44,45
 1115.84 -4.1582 1115.84 -4.1582 981.938 0.325195 c 1,46,47
 911.487 -0.0917969 911.487 -0.0917969 869.199 20.1963 c 0,48,49
 797.367 54.6602 797.367 54.6602 753.511 119.69 c 1,50,51
 674.788 0.0517578 674.788 0.0517578 516.106 -0.195312 c 0,52,53
 361.607 0.429688 361.607 0.429688 282.531 119.565 c 1,54,55
 252.203 77.3643 252.203 77.3643 212.086 50.1895 c 0,56,57
 137.695 -0.199219 137.695 -0.199219 27.8633 -0.199219 c 2,58,-1
 -50.3438 -0.199219 l 1,59,-1
 -50.3438 258.92 l 1,60,-1
 17.4814 258.92 l 2,61,62
 100.844 258.92 100.844 258.92 147.541 275.366 c 128,-1,63
 194.238 291.813 194.238 291.813 208.107 317.246 c 0,64,65
 215.713 331.191 215.713 331.191 216.506 350.189 c 2,66,-1
 219.393 419.348 l 1,67,-1
 219.479 420.301 l 2,0,1
EndSplineSet
EndChar

StartChar: uniFEB4
Encoding: 65204 65204 188
Width: 1492
VWidth: 2330
GlyphClass: 2
Flags: W
AnchorPoint: "Anchor-10" 606.883 1028.88 basechar 0
LayerCount: 2
Fore
SplineSet
1270.39 575.982 m 2,0,-1
 1272.25 557.181 l 2,1,2
 1279.03 488.621 1279.03 488.621 1287.37 430.403 c 128,-1,3
 1295.71 372.186 1295.71 372.186 1301.6 343.323 c 128,-1,4
 1307.49 314.461 1307.49 314.461 1310.59 308.576 c 0,5,6
 1340.19 259.543 1340.19 259.543 1464.93 259.543 c 2,7,-1
 1542.23 259.543 l 1,8,-1
 1542.23 -0.529297 l 1,9,-1
 1471.45 -0.529297 l 2,10,11
 1261.82 -0.529297 1261.82 -0.529297 1177.22 118.049 c 1,12,13
 1102.9 6.04688 1102.9 6.04688 983.567 0.334961 c 1,14,15
 911.487 -0.0917969 911.487 -0.0917969 869.199 20.1963 c 0,16,17
 797.367 54.6602 797.367 54.6602 753.511 119.69 c 1,18,19
 674.788 0.0517578 674.788 0.0517578 516.106 -0.195312 c 0,20,21
 361.607 0.429688 361.607 0.429688 282.531 119.565 c 1,22,23
 252.203 77.3643 252.203 77.3643 212.086 50.1895 c 0,24,25
 137.695 -0.199219 137.695 -0.199219 27.8633 -0.199219 c 2,26,-1
 -50.3438 -0.199219 l 1,27,-1
 -50.3438 258.92 l 1,28,-1
 17.4814 258.92 l 2,29,30
 100.844 258.92 100.844 258.92 147.541 275.366 c 128,-1,31
 194.237 291.813 194.237 291.813 208.107 317.246 c 0,32,33
 215.713 331.191 215.713 331.191 216.506 350.189 c 2,34,-1
 219.393 419.348 l 1,35,-1
 219.479 420.301 l 2,36,37
 222.788 457.156 222.788 457.156 241.718 484.729 c 128,-1,38
 260.647 512.3 260.647 512.3 297.463 512.606 c 128,-1,39
 334.255 512.934 334.255 512.934 357.103 487.476 c 128,-1,40
 379.949 462.019 379.949 462.019 383.09 426.625 c 1,41,-1
 387.018 398.219 l 2,42,43
 397.998 318.781 397.998 318.781 429.904 285.096 c 128,-1,44
 461.811 251.409 461.811 251.409 519.952 250.797 c 0,45,46
 582.888 250.172 582.888 250.172 619.004 272.281 c 128,-1,47
 655.12 294.392 655.12 294.392 673.158 341.897 c 0,48,49
 675.102 347.017 675.102 347.017 676.845 352.48 c 0,50,51
 691.769 399.345 691.769 399.345 693.327 472.079 c 2,52,-1
 693.356 473.442 l 1,53,-1
 693.479 474.801 l 2,54,55
 696.789 511.657 696.789 511.657 715.719 539.229 c 128,-1,56
 734.647 566.801 734.647 566.801 771.463 567.106 c 0,57,58
 808.505 567.435 808.505 567.435 831.389 542.039 c 128,-1,59
 854.271 516.645 854.271 516.645 857.24 479.286 c 1,60,-1
 858.385 455.9 l 2,61,62
 863.526 350.709 863.526 350.709 895.288 306.055 c 128,-1,63
 927.05 261.399 927.05 261.399 985.542 259.44 c 1,64,65
 1038.85 258.98 1038.85 258.98 1069 302.357 c 128,-1,66
 1099.16 345.734 1099.16 345.734 1105.51 452.394 c 0,67,68
 1108.88 508.87 1108.88 508.87 1106.54 565.637 c 2,69,-1
 1106.44 568.252 l 1,70,-1
 1106.67 570.858 l 2,71,72
 1109.98 607.715 1109.98 607.715 1128.91 635.288 c 128,-1,73
 1147.84 662.861 1147.84 662.861 1184.66 663.167 c 0,74,75
 1221.68 663.495 1221.68 663.495 1244.4 638.134 c 128,-1,76
 1267.12 612.773 1267.12 612.773 1270.39 575.982 c 2,0,-1
EndSplineSet
EndChar

StartChar: uniFEBA
Encoding: 65210 65210 194
Width: 2563
VWidth: 2331
GlyphClass: 2
Flags: W
AnchorPoint: "Anchor-10" 593.066 935.21 basechar 0
AnchorPoint: "Anchor-7" 362.286 -679.091 basechar 0
LayerCount: 2
Fore
SplineSet
190.246 478.073 m 1,0,-1
 326.262 390.635 l 1,1,-1
 315.716 360.784 l 2,2,3
 217.318 82.252 217.318 82.252 276.371 -43.2744 c 0,4,5
 367.426 -236.79 367.426 -236.79 665.172 -231.81 c 0,6,7
 886.814 -228.042 886.814 -228.042 995.79 -160.665 c 128,-1,8
 1104.77 -93.2881 1104.77 -93.2881 1118.01 35.4668 c 1,9,-1
 980.753 459.815 l 1,10,-1
 1202.14 669.28 l 1,11,-1
 1215.65 597.157 l 2,12,13
 1257.2 375.287 1257.2 375.287 1283.09 320.489 c 0,14,15
 1292.64 300.298 1292.64 300.298 1301.57 297.774 c 128,-1,16
 1310.49 295.251 1310.49 295.251 1337.87 307.652 c 1,17,18
 1460.16 447.817 1460.16 447.817 1683.42 623.777 c 0,19,20
 1861.8 765.211 1861.8 765.211 1999.88 780.166 c 0,21,22
 2147.12 796.331 2147.12 796.331 2236.82 717.796 c 128,-1,23
 2326.52 639.261 2326.52 639.261 2348.8 478.97 c 0,24,25
 2359.26 403.726 2359.26 403.726 2345.84 338.379 c 1,26,27
 2417.96 258.833 2417.96 258.833 2527.07 258.833 c 2,28,-1
 2612.96 258.833 l 1,29,-1
 2612.96 -0.180664 l 1,30,-1
 2504.39 -0.180664 l 2,31,32
 2275.46 -0.180664 2275.46 -0.180664 2187.19 117.176 c 1,33,34
 2162.83 101.405 2162.83 101.405 2136.06 87.9229 c 0,35,36
 1958.99 -1.26855 1958.99 -1.26855 1743.71 -0.710938 c 2,37,-1
 1469.18 0 l 2,38,39
 1374.12 0.246094 1374.12 0.246094 1308.95 32.9033 c 1,40,41
 1266.35 -216.352 1266.35 -216.352 1104.29 -346.261 c 128,-1,42
 942.235 -476.169 942.235 -476.169 670.816 -481.355 c 0,43,44
 285.611 -488.41 285.611 -488.41 133.827 -270.362 c 0,45,46
 14.9824 -98.2607 14.9824 -98.2607 78.3242 156.867 c 0,47,48
 94.6152 221.876 94.6152 221.876 130.059 326.217 c 0,49,50
 152.524 392.352 152.524 392.352 171.388 435.219 c 2,51,-1
 190.246 478.073 l 1,0,-1
1682.56 259.099 m 2,52,53
 1835.78 259.099 1835.78 259.099 1908.38 270.649 c 0,54,55
 2045.21 292.422 2045.21 292.422 2100.55 334.277 c 128,-1,56
 2155.89 376.132 2155.89 376.132 2150.08 434.847 c 0,57,58
 2141.6 518.722 2141.6 518.722 2107.33 549.575 c 128,-1,59
 2073.06 580.429 2073.06 580.429 2002.53 572.163 c 0,60,61
 1915.02 561.907 1915.02 561.907 1761.98 433.908 c 1,62,63
 1645.73 334.757 1645.73 334.757 1577.32 259.099 c 1,64,-1
 1682.56 259.099 l 2,52,53
EndSplineSet
EndChar

StartChar: uniFEBB
Encoding: 65211 65211 195
Width: 1643
VWidth: 2331
GlyphClass: 2
Flags: W
AnchorPoint: "Anchor-10" 535.518 1153.87 basechar 0
AnchorPoint: "Anchor-7" 661.658 -248.295 basechar 0
LayerCount: 2
Fore
SplineSet
220.562 478.03 m 2,0,1
 228.999 553.635 228.999 553.635 274.219 575.511 c 0,2,3
 288.704 582.519 288.704 582.519 305.966 583.112 c 0,4,5
 336.14 583.379 336.14 583.379 357.406 567.687 c 0,6,7
 387.833 545.233 387.833 545.233 392.145 496.649 c 1,8,-1
 399.905 430.593 l 2,9,10
 405.36 384.155 405.36 384.155 437.135 354.523 c 128,-1,11
 468.91 324.893 468.91 324.893 535.44 309.231 c 1,12,13
 666.766 464.207 666.766 464.207 871.276 624.444 c 0,14,15
 1050.63 765.815 1050.63 765.815 1188.68 780.766 c 0,16,17
 1335.89 796.928 1335.89 796.928 1425.59 718.39 c 128,-1,18
 1515.29 639.851 1515.29 639.851 1537.57 479.569 c 0,19,20
 1555.67 349.374 1555.67 349.374 1501.18 249.64 c 128,-1,21
 1446.69 149.905 1446.69 149.905 1324.83 88.5205 c 0,22,23
 1147.76 -0.674805 1147.76 -0.674805 931.481 -0.114258 c 2,24,-1
 656.949 0.59668 l 2,25,26
 434.126 1.17383 434.126 1.17383 319.101 139.633 c 1,27,28
 193.812 -0.114258 193.812 -0.114258 18.9697 -0.114258 c 2,29,-1
 -50.3047 -0.114258 l 1,30,-1
 -50.3047 259.004 l 1,31,-1
 7.58789 259.004 l 2,32,33
 115.157 259.004 115.157 259.004 163.586 289.132 c 0,34,35
 201.873 313.335 201.873 313.335 208.611 363.706 c 1,36,-1
 220.562 478.03 l 2,0,1
767.409 259.695 m 1,37,-1
 870.335 259.695 l 2,38,39
 1030.61 259.695 1030.61 259.695 1096.79 271.189 c 0,40,41
 1233.87 293.513 1233.87 293.513 1289.24 335.387 c 128,-1,42
 1344.61 377.261 1344.61 377.261 1338.84 435.523 c 0,43,44
 1330.37 519.305 1330.37 519.305 1296.09 550.164 c 128,-1,45
 1261.81 581.022 1261.81 581.022 1191.3 572.759 c 0,46,47
 1103.7 562.493 1103.7 562.493 949.521 434.304 c 0,48,49
 850.001 351.56 850.001 351.56 767.409 259.695 c 1,37,-1
EndSplineSet
EndChar

StartChar: uniFEBC
Encoding: 65212 65212 196
Width: 1736
VWidth: 2331
GlyphClass: 2
Flags: W
AnchorPoint: "Anchor-10" 563.178 1222.7 basechar 0
AnchorPoint: "Anchor-7" 654.338 -255.466 basechar 0
LayerCount: 2
Fore
SplineSet
402.905 430.593 m 2,0,1
 408.311 384.578 408.311 384.578 439.232 355.154 c 128,-1,2
 470.154 325.73 470.154 325.73 535.602 309.441 c 1,3,4
 666.243 463.583 666.243 463.583 871.285 624.451 c 0,5,6
 1050.63 765.815 1050.63 765.815 1188.66 780.764 c 0,7,8
 1335.89 796.928 1335.89 796.928 1425.59 718.392 c 128,-1,9
 1515.29 639.854 1515.29 639.854 1537.57 479.57 c 0,10,11
 1550.24 388.45 1550.24 388.45 1528.01 312.462 c 1,12,13
 1584.66 258.677 1584.66 258.677 1700.29 258.677 c 2,14,-1
 1786.18 258.677 l 1,15,-1
 1786.18 -0.335938 l 1,16,-1
 1677.6 -0.335938 l 2,17,18
 1478.09 -0.335938 1478.09 -0.335938 1389.54 126.949 c 1,19,20
 1359.64 106.055 1359.64 106.055 1324.83 88.5205 c 0,21,22
 1147.76 -0.674805 1147.76 -0.674805 931.481 -0.114258 c 2,23,-1
 656.949 0.59668 l 2,24,25
 434.126 1.17383 434.126 1.17383 319.101 139.633 c 1,26,27
 193.812 -0.114258 193.812 -0.114258 18.9697 -0.114258 c 2,28,-1
 -50.3047 -0.114258 l 1,29,-1
 -50.3047 259.004 l 1,30,-1
 7.58789 259.004 l 2,31,32
 88.4053 259.004 88.4053 259.004 133.863 276.064 c 0,33,34
 176.271 292.021 176.271 292.021 193.552 312.164 c 128,-1,35
 210.833 332.308 210.833 332.308 211.353 359.828 c 2,36,-1
 211.385 361.534 l 1,37,-1
 223.562 478.029 l 2,38,39
 231.999 553.635 231.999 553.635 277.219 575.511 c 0,40,41
 291.704 582.519 291.704 582.519 308.966 583.112 c 0,42,43
 339.14 583.379 339.14 583.379 360.406 567.687 c 0,44,45
 390.833 545.233 390.833 545.233 395.145 496.649 c 1,46,-1
 402.905 430.593 l 2,0,1
767.409 259.695 m 1,47,-1
 870.335 259.695 l 2,48,49
 1030.61 259.695 1030.61 259.695 1096.79 271.189 c 0,50,51
 1233.87 293.513 1233.87 293.513 1289.24 335.387 c 128,-1,52
 1344.61 377.261 1344.61 377.261 1338.84 435.523 c 0,53,54
 1330.37 519.305 1330.37 519.305 1296.09 550.164 c 128,-1,55
 1261.81 581.022 1261.81 581.022 1191.3 572.759 c 0,56,57
 1103.7 562.493 1103.7 562.493 949.521 434.304 c 0,58,59
 850.001 351.56 850.001 351.56 767.409 259.695 c 1,47,-1
EndSplineSet
EndChar

StartChar: uniFEC2
Encoding: 65218 65218 202
Width: 1527
VWidth: 2331
GlyphClass: 2
Flags: W
AnchorPoint: "Anchor-7" 649.472 -242.627 basechar 0
AnchorPoint: "Anchor-10" 239.684 1439.11 basechar 0
LayerCount: 2
Fore
SplineSet
137.05 1219.33 m 5,0,-1
 389.805 1429.29 l 5,1,-1
 389.111 371.386 l 1,2,3
 505.122 494.857 505.122 494.857 670.285 624.451 c 0,4,5
 849.612 765.814 849.612 765.814 987.648 780.763 c 0,6,7
 1134.89 796.928 1134.89 796.928 1224.59 718.393 c 128,-1,8
 1314.29 639.857 1314.29 639.857 1336.57 479.568 c 0,9,10
 1346.79 406.038 1346.79 406.038 1334.31 342.404 c 1,11,12
 1407.08 259.416 1407.08 259.416 1491.67 259.416 c 2,13,-1
 1577.56 259.416 l 1,14,-1
 1577.56 0.40332 l 1,15,-1
 1494.43 0.40332 l 2,16,17
 1310.78 0.40332 1310.78 0.40332 1205.68 143.153 c 1,18,19
 1154.33 100.311 1154.33 100.311 1082.86 69.3037 c 0,20,21
 921.701 -0.609605 921.701 -0.609605 730.481 -0.114258 c 2,22,-1
 456.038 0.59668 l 1,23,-1
 232.964 0.189453 l 2,24,25
 134.149 0.00906508 134.149 0.00906508 76.7344 48.1953 c 128,-1,26
 19.3203 96.3809 19.3203 96.3809 19.3203 185.958 c 2,27,-1
 19.3203 258.991 l 1,28,-1
 210.619 258.992 l 1,29,-1
 137.05 1219.33 l 5,0,-1
566.408 259.695 m 1,30,-1
 669.335 259.695 l 2,31,32
 829.604 259.695 829.604 259.695 895.797 271.189 c 0,33,34
 1032.88 293.511 1032.88 293.511 1088.24 335.386 c 128,-1,35
 1143.61 377.261 1143.61 377.261 1137.84 435.523 c 0,36,37
 1129.37 519.306 1129.37 519.306 1095.09 550.164 c 128,-1,38
 1060.81 581.022 1060.81 581.022 990.296 572.759 c 0,39,40
 902.711 562.495 902.711 562.495 748.52 434.304 c 0,41,42
 648.997 351.557 648.997 351.557 566.408 259.695 c 1,30,-1
EndSplineSet
EndChar

StartChar: uniFEC3
Encoding: 65219 65219 203
Width: 1362
VWidth: 2331
GlyphClass: 2
Flags: W
AnchorPoint: "Anchor-10" 202.85 1443.07 basechar 0
AnchorPoint: "Anchor-7" 482.85 -256.406 basechar 0
LayerCount: 2
Fore
SplineSet
62.0498 1219.33 m 5,0,-1
 314.805 1429.29 l 5,1,-1
 314.111 371.386 l 1,2,3
 430.122 494.857 430.122 494.857 595.285 624.451 c 0,4,5
 774.612 765.814 774.612 765.814 912.648 780.763 c 0,6,7
 1059.89 796.928 1059.89 796.928 1149.59 718.393 c 128,-1,8
 1239.29 639.856 1239.29 639.856 1261.57 479.569 c 0,9,10
 1279.67 349.374 1279.67 349.374 1225.18 249.64 c 128,-1,11
 1170.69 149.905 1170.69 149.905 1048.83 88.5205 c 0,12,13
 871.766 -0.674537 871.766 -0.674537 655.481 -0.114258 c 2,14,-1
 381.038 0.59668 l 1,15,-1
 -60.6797 -0.199219 l 1,16,-1
 -60.6797 258.991 l 1,17,-1
 135.619 258.992 l 1,18,-1
 62.0498 1219.33 l 5,0,-1
491.408 259.694 m 1,19,-1
 594.335 259.694 l 2,20,21
 754.604 259.694 754.604 259.694 820.797 271.188 c 0,22,23
 957.875 293.51 957.875 293.51 1013.24 335.385 c 128,-1,24
 1068.61 377.26 1068.61 377.26 1062.84 435.522 c 0,25,26
 1054.37 519.305 1054.37 519.305 1020.09 550.163 c 128,-1,27
 985.811 581.021 985.811 581.021 915.296 572.758 c 0,28,29
 827.711 562.494 827.711 562.494 673.521 434.304 c 0,30,31
 573.998 351.557 573.998 351.557 491.408 259.694 c 1,19,-1
EndSplineSet
EndChar

StartChar: uniFEC4
Encoding: 65220 65220 204
Width: 1457
VWidth: 2331
GlyphClass: 2
Flags: W
AnchorPoint: "Anchor-10" 199.939 1446.75 basechar 0
AnchorPoint: "Anchor-7" 537.047 -226.727 basechar 0
LayerCount: 2
Fore
SplineSet
319.805 1429.29 m 5,0,-1
 319.111 371.783 l 1,1,2
 434.848 495.245 434.848 495.245 600.315 624.475 c 0,3,4
 779.612 765.814 779.612 765.814 917.648 780.763 c 0,5,6
 1064.89 796.928 1064.89 796.928 1154.59 718.393 c 128,-1,7
 1244.29 639.857 1244.29 639.857 1266.57 479.568 c 0,8,9
 1276.79 406.038 1276.79 406.038 1264.31 342.404 c 1,10,11
 1337.08 259.416 1337.08 259.416 1421.67 259.416 c 2,12,-1
 1507.56 259.416 l 1,13,-1
 1507.56 0.40332 l 1,14,-1
 1424.43 0.40332 l 2,15,16
 1238.28 0.40332 1238.28 0.40332 1133.61 141.887 c 1,17,18
 1080.23 96.4121 1080.23 96.4121 1013.94 67.2969 c 0,19,20
 857.362 -0.62427 857.362 -0.62427 660.481 -0.114258 c 2,21,-1
 386.038 0.59668 l 1,22,-1
 -50.6797 -0.200195 l 1,23,-1
 -50.6797 258.991 l 1,24,-1
 140.619 258.992 l 1,25,-1
 67.0498 1219.33 l 5,26,-1
 319.805 1429.29 l 5,0,-1
480.516 263.446 m 1,27,-1
 583.442 263.446 l 2,28,29
 743.712 263.446 743.712 263.446 809.904 274.94 c 0,30,31
 946.983 297.262 946.983 297.262 1002.35 339.137 c 128,-1,32
 1057.72 381.012 1057.72 381.012 1051.95 439.274 c 0,33,34
 1043.48 523.057 1043.48 523.057 1009.2 553.915 c 128,-1,35
 974.919 584.773 974.919 584.773 904.402 576.51 c 0,36,37
 816.805 566.244 816.805 566.244 662.627 438.055 c 0,38,39
 563.108 355.311 563.108 355.311 480.516 263.446 c 1,27,-1
EndSplineSet
EndChar

StartChar: uniFECA
Encoding: 65226 65226 210
Width: 1212
VWidth: 2329
GlyphClass: 2
Flags: W
AnchorPoint: "Anchor-10" 429.886 1155.6 basechar 0
AnchorPoint: "Anchor-7" 373.457 -773.007 basechar 0
LayerCount: 2
Fore
SplineSet
575.842 652.521 m 0,0,1
 524.585 652.521 524.585 652.521 483.968 645.674 c 0,2,3
 431.806 636.995 431.806 636.995 406.73 625.807 c 1,4,5
 421.98 610.505 421.98 610.505 452.004 591.277 c 0,6,7
 513.96 551.6 513.96 551.6 576.258 521.355 c 1,8,9
 628.924 546.408 628.924 546.408 693.848 592.031 c 0,10,11
 720.807 611.251 720.807 611.251 728.662 623.676 c 1,12,13
 720.14 638.318 720.14 638.318 668.514 645.554 c 0,14,15
 618.771 652.521 618.771 652.521 575.842 652.521 c 0,0,1
739.298 377.613 m 1,16,17
 906.901 259.114 906.901 259.114 1188.68 259.114 c 2,18,-1
 1272.69 259.114 l 1,19,-1
 1272.69 -0.898438 l 1,20,-1
 1197.62 -0.898438 l 2,21,22
 843.696 -0.898438 843.696 -0.898438 576.02 255.173 c 1,23,24
 548.755 234.449 548.755 234.449 510.99 205.695 c 0,25,26
 274.189 29.5332 274.189 29.5332 265.889 -141.329 c 0,27,28
 256.945 -317.968 256.945 -317.968 389.91 -412.703 c 0,29,30
 529.553 -511.291 529.553 -511.291 781.1 -480.637 c 0,31,32
 919.137 -463.815 919.137 -463.815 1086.83 -388.375 c 2,33,-1
 1163.26 -353.991 l 1,34,-1
 1134.97 -461.438 l 2,35,36
 1096.31 -608.348 1096.31 -608.348 965.887 -676.821 c 128,-1,37
 835.467 -745.294 835.467 -745.294 626.497 -737.202 c 0,38,39
 337.763 -726.285 337.763 -726.285 179.155 -563.186 c 1,40,41
 15.0137 -395.944 15.0137 -395.944 51.917 -110.43 c 0,42,43
 88.168 172.018 88.168 172.018 395.07 379.854 c 1,44,45
 315.076 423.566 315.076 423.566 251.317 478.061 c 0,46,47
 161.829 554.54 161.829 554.54 168.869 651.291 c 0,48,49
 175.986 752.323 175.986 752.323 307.86 816.166 c 0,50,51
 405.458 863.789 405.458 863.789 561.874 867.046 c 0,52,53
 637.607 868.585 637.607 868.585 705.972 861.313 c 0,54,55
 877.763 842.56 877.763 842.56 930.958 734.799 c 0,56,57
 960.916 673.605 960.916 673.605 944.896 605.392 c 0,58,59
 918.142 492.088 918.142 492.088 739.298 377.613 c 1,16,17
EndSplineSet
EndChar

StartChar: uniFECB
Encoding: 65227 65227 211
Width: 975
VWidth: 2327
GlyphClass: 2
Flags: W
AnchorPoint: "Anchor-10" 327.569 1305.15 basechar 0
AnchorPoint: "Anchor-7" 460.424 -244.284 basechar 0
LayerCount: 2
Fore
SplineSet
14.9375 259.064 m 2,0,1
 123.166 259.064 123.166 259.064 145.954 259.057 c 1,2,3
 11.1211 424.936 11.1211 424.936 54.6738 581.867 c 0,4,5
 87.2217 701.018 87.2217 701.018 172.103 772.02 c 128,-1,6
 256.982 843.021 256.982 843.021 387.147 861.429 c 0,7,8
 474.283 873.92 474.283 873.92 559.63 858.796 c 0,9,10
 648.496 843.047 648.496 843.047 725.343 782.901 c 2,11,-1
 737.073 773.721 l 1,12,13
 757.188 676.015 757.188 676.015 738.563 541.807 c 1,14,-1
 685.261 575.626 l 2,15,16
 554.811 658.399 554.811 658.399 445.19 642.457 c 0,17,18
 361.009 630.215 361.009 630.215 319.937 594.579 c 128,-1,19
 278.863 558.943 278.863 558.943 270.711 496.182 c 0,20,21
 257.683 394.414 257.683 394.414 397.179 297.238 c 0,22,23
 402.123 294.307 402.123 294.307 423.969 293.225 c 128,-1,24
 445.813 292.143 445.813 292.143 492.726 296.145 c 128,-1,25
 539.637 300.147 539.637 300.147 595.136 310.675 c 2,26,-1
 884.693 365.606 l 1,27,-1
 842.499 127.51 l 1,28,-1
 820.449 119.764 l 2,29,30
 482.186 0.917969 482.186 0.917969 86.0332 -0.0703125 c 1,31,-1
 -60.3174 -0.0478516 l 1,32,-1
 -60.3174 259.064 l 1,33,-1
 14.9375 259.064 l 2,0,1
EndSplineSet
EndChar

StartChar: uniFECC
Encoding: 65228 65228 212
Width: 1042
VWidth: 2329
GlyphClass: 2
Flags: W
AnchorPoint: "Anchor-10" 454.73 1150.16 basechar 0
AnchorPoint: "Anchor-7" 492.89 -194.98 basechar 0
LayerCount: 2
Fore
SplineSet
521.833 573.604 m 0,0,1
 470.575 573.604 470.575 573.604 429.947 566.754 c 0,2,3
 377.794 558.076 377.794 558.076 352.722 546.889 c 1,4,5
 367.976 531.583 367.976 531.583 397.995 512.359 c 0,6,7
 459.951 472.682 459.951 472.682 522.249 442.437 c 1,8,9
 574.91 467.486 574.91 467.486 639.838 513.112 c 0,10,11
 666.797 532.331 666.797 532.331 674.653 544.756 c 1,12,13
 666.131 559.399 666.131 559.399 614.505 566.635 c 0,14,15
 564.755 573.604 564.755 573.604 521.833 573.604 c 0,0,1
695.627 305.386 m 1,16,17
 809.428 256.61 809.428 256.61 987.993 257.667 c 2,18,-1
 1092.09 258.283 l 5,19,-1
 1092.09 -0.920898 l 5,20,-1
 963.233 -0.920898 l 2,21,22
 699.558 -0.920898 699.558 -0.920898 515.672 158.488 c 1,23,24
 331.094 -1.4502 331.094 -1.4502 64.9473 -1.4502 c 2,25,-1
 -50.9287 -1.4502 l 1,26,-1
 -50.9287 257.668 l 1,27,-1
 39.9951 257.668 l 2,28,29
 240.05 257.668 240.05 257.668 340.493 301.246 c 1,30,31
 261.063 344.65 261.063 344.65 197.308 399.143 c 0,32,33
 107.821 475.625 107.821 475.625 114.86 572.375 c 0,34,35
 121.978 673.396 121.978 673.396 253.842 737.243 c 0,36,37
 351.446 784.87 351.446 784.87 507.865 788.127 c 0,38,39
 583.606 789.666 583.606 789.666 651.957 782.396 c 0,40,41
 823.758 763.641 823.758 763.641 876.948 655.881 c 0,42,43
 906.907 594.687 906.907 594.687 890.889 526.481 c 0,44,45
 864.862 416.256 864.862 416.256 695.627 305.386 c 1,16,17
EndSplineSet
EndChar

StartChar: uniFEDA
Encoding: 65242 65242 226
Width: 1874
VWidth: 2307
GlyphClass: 2
Flags: W
AnchorPoint: "Anchor-10" 467.64 1488.48 basechar 0
AnchorPoint: "Anchor-7" 593.562 -246.337 basechar 0
LayerCount: 2
Fore
SplineSet
1043.82 1333.48 m 1,0,-1
 1043.82 1198.64 l 1,1,-1
 1006.76 1195.91 l 2,2,3
 938.492 1190.88 938.492 1190.88 903.123 1177.84 c 0,4,5
 872.422 1166.33 872.422 1166.33 853.392 1153.72 c 128,-1,6
 834.361 1141.12 834.361 1141.12 830.205 1135.09 c 128,-1,7
 826.049 1129.07 826.049 1129.07 826.049 1126.02 c 0,8,9
 826.049 1101.43 826.049 1101.43 837.488 1086.73 c 0,10,11
 839.739 1084.78 839.739 1084.78 848.098 1081.35 c 128,-1,12
 856.457 1077.92 856.457 1077.92 874.788 1073.08 c 128,-1,13
 893.119 1068.24 893.119 1068.24 914.788 1065.05 c 0,14,15
 979.265 1055.57 979.265 1055.57 1014.74 1023.17 c 0,16,17
 1053.65 987.621 1053.65 987.621 1053.65 927.529 c 0,18,19
 1053.65 866.336 1053.65 866.336 1023.94 817.534 c 128,-1,20
 994.234 768.732 994.234 768.732 938.778 737.37 c 0,21,22
 856.783 691.003 856.783 691.003 746.338 689.979 c 0,23,24
 679.3 689.979 679.3 689.979 620.268 699.838 c 2,25,-1
 586.857 705.418 l 1,26,-1
 586.857 846.868 l 1,27,-1
 632.084 840.907 l 2,28,29
 693.889 832.761 693.889 832.761 735.942 832.761 c 0,30,31
 807.651 832.761 807.651 832.761 851.867 850.169 c 0,32,33
 915.778 874.714 915.778 874.714 915.778 904.845 c 0,34,35
 915.778 913.137 915.778 913.137 912.229 919.408 c 128,-1,36
 908.681 925.68 908.681 925.68 892.111 933.62 c 128,-1,37
 875.542 941.561 875.542 941.561 845.733 946.418 c 0,38,39
 772.508 957.575 772.508 957.575 730.564 1000.47 c 0,40,41
 686.129 1045.92 686.129 1045.92 687.806 1123.06 c 0,42,43
 689.057 1173.68 689.057 1173.68 714.759 1213.27 c 128,-1,44
 740.461 1252.86 740.461 1252.86 786.609 1276.25 c 0,45,46
 879.086 1323.04 879.086 1323.04 1001.29 1330.78 c 2,47,-1
 1043.82 1333.48 l 1,0,-1
1500.44 154.014 m 1,48,49
 1493.54 148.912 1493.54 148.912 1487.13 144.364 c 0,50,51
 1338.49 39.0342 1338.49 39.0342 1178.12 22.4121 c 0,52,53
 971.5 0.99707 971.5 0.99707 928.869 -0.537109 c 0,54,55
 452.246 -17.6787 452.246 -17.6787 257.238 84.2246 c 0,56,57
 44.3945 195.444 44.3945 195.444 51.3115 517.451 c 0,58,59
 54.2051 653.209 54.2051 653.209 110.154 762.396 c 2,60,-1
 121.336 784.216 l 1,61,-1
 256.432 783.875 l 1,62,-1
 245.839 735.452 l 2,63,64
 230.705 666.269 230.705 666.269 224.519 610.583 c 0,65,66
 219.622 566.512 219.622 566.512 221.454 514.994 c 0,67,68
 224.869 418.898 224.869 418.898 304.568 358.271 c 128,-1,69
 384.268 297.643 384.268 297.643 555.278 273.334 c 0,70,71
 650.747 259.764 650.747 259.764 963.312 259.172 c 0,72,73
 1063.57 259.048 1063.57 259.048 1139.44 271.658 c 0,74,75
 1426.52 319.371 1426.52 319.371 1438.84 456.974 c 2,76,-1
 1442.72 502.184 l 1,77,-1
 1397.17 1141.29 l 2,78,79
 1394.88 1166.58 1394.88 1166.58 1381.48 1312.04 c 2,80,-1
 1379.55 1333.01 l 1,81,-1
 1632.72 1543.32 l 1,82,-1
 1632.72 470.096 l 2,83,84
 1632.72 356.882 1632.72 356.882 1676.44 307.649 c 128,-1,85
 1720.15 258.416 1720.15 258.416 1816.09 258.416 c 2,86,-1
 1924.2 258.416 l 1,87,-1
 1924.2 -0.59668 l 1,88,-1
 1836.71 -0.59668 l 2,89,90
 1592.05 -0.59668 1592.05 -0.59668 1500.44 154.014 c 1,48,49
EndSplineSet
EndChar

StartChar: uniFEDB
Encoding: 65243 65243 227
Width: 868
VWidth: 2308
GlyphClass: 2
Flags: W
AnchorPoint: "Anchor-10" 212.208 1326.69 basechar 0
AnchorPoint: "Anchor-7" 324.925 -247.362 basechar 0
LayerCount: 2
Fore
SplineSet
-60 39.4375 m 1,0,-1
 -60 258.546 l 1,1,-1
 78.5059 258.582 l 2,2,3
 267.959 258.634 267.959 258.634 360.41 292.133 c 128,-1,4
 452.861 325.631 452.861 325.631 460.905 377.095 c 0,5,6
 469.129 429.691 469.129 429.691 451.421 469.655 c 128,-1,7
 433.713 509.62 433.713 509.62 386.475 543.191 c 2,8,-1
 100.274 746.576 l 2,9,10
 -11.7402 826.181 -11.7402 826.181 -19.6719 918.453 c 0,11,12
 -25.5518 987.039 -25.5518 987.039 9.89062 1042.09 c 128,-1,13
 45.334 1097.13 45.334 1097.13 115.199 1133.74 c 2,14,-1
 870.177 1529.32 l 1,15,-1
 853.018 1446.53 l 2,16,17
 823.989 1306.46 823.989 1306.46 787.484 1235.6 c 2,18,-1
 781.519 1224.02 l 1,19,-1
 225.509 944.784 l 1,20,21
 485.07 756.835 485.07 756.835 545.923 705.389 c 0,22,23
 715.929 561.661 715.929 561.661 682.449 325.329 c 0,24,25
 656.346 141.053 656.346 141.053 505.91 67.9395 c 0,26,27
 364.961 -0.5625 364.961 -0.5625 122.326 -0.5625 c 2,28,-1
 -60 -0.5625 l 2,29,30
 -60 0.173828 -60 0.173828 -62.9121 3.65625 c 0,31,32
 -84.4941 29.4668 -84.4941 29.4668 -43.9736 36.7256 c 0,33,34
 -27.1182 39.7461 -27.1182 39.7461 0 40 c 2,35,-1
 -60 39.4375 l 1,0,-1
EndSplineSet
EndChar

StartChar: uniFEDC
Encoding: 65244 65244 228
Width: 1065
VWidth: 2308
GlyphClass: 2
Flags: W
AnchorPoint: "Anchor-10" 188.208 1357.69 basechar 0
AnchorPoint: "Anchor-7" 305.338 -237.308 basechar 0
LayerCount: 2
Fore
SplineSet
150.721 1135.28 m 2,0,-1
 898.004 1526.83 l 1,1,-1
 889.094 1451.49 l 2,2,3
 875.74 1338.56 875.74 1338.56 822.937 1237.01 c 2,4,-1
 817.023 1225.63 l 1,5,-1
 231.413 927.355 l 1,6,-1
 839.513 341.928 l 2,7,8
 926.647 258.041 926.647 258.041 1039.51 258.341 c 2,9,-1
 1115.06 258.541 l 1,10,-1
 1115.06 -0.578125 l 1,11,-1
 1007.49 -0.578125 l 2,12,13
 827.404 -0.578125 827.404 -0.578125 632.355 232.638 c 1,14,15
 527.234 -1.10742 527.234 -1.10742 88.665 -1.10742 c 2,16,-1
 -60.3066 -1.10742 l 1,17,-1
 -60.3066 257.95 l 1,18,-1
 83.4033 258.17 l 2,19,20
 257.474 258.438 257.474 258.438 343.943 290.451 c 128,-1,21
 430.413 322.464 430.413 322.464 440.912 372.273 c 0,22,23
 441.373 377.157 441.373 377.157 432.509 393.335 c 128,-1,24
 423.646 409.513 423.646 409.513 396.072 443.144 c 128,-1,25
 368.5 476.774 368.5 476.774 328.673 513.721 c 2,26,-1
 111.627 715.069 l 2,27,28
 2.55176 816.258 2.55176 816.258 0.741211 921.953 c 0,29,30
 -1.52637 1055.51 -1.52637 1055.51 150.721 1135.28 c 2,0,-1
EndSplineSet
EndChar

StartChar: uniFEDE
Encoding: 65246 65246 230
Width: 1547
VWidth: 2330
GlyphClass: 2
Flags: W
AnchorPoint: "Anchor-7" 225.713 -513.707 basechar 0
LayerCount: 2
Fore
SplineSet
1285.22 60.8613 m 1,0,1
 1231.77 -161.475 1231.77 -161.475 1072.85 -276.723 c 128,-1,2
 913.938 -391.97 913.938 -391.97 659.133 -396.637 c 0,3,4
 273.931 -403.69 273.931 -403.69 122.143 -185.641 c 0,5,6
 3.02637 -13.1504 3.02637 -13.1504 66.6973 241.807 c 0,7,8
 82.7275 305.996 82.7275 305.996 118.375 410.936 c 0,9,10
 140.971 477.457 140.971 477.457 161.035 520.672 c 2,11,-1
 171.579 543.382 l 1,12,-1
 317.26 487.108 l 1,13,14
 199.993 178.928 199.993 178.928 264.663 41.4971 c 0,15,16
 310.104 -55.0684 310.104 -55.0684 405.259 -102.357 c 128,-1,17
 500.415 -149.647 500.415 -149.647 653.5 -147.09 c 0,18,19
 880.112 -143.303 880.112 -143.303 990.34 -72.5918 c 0,20,21
 1101.8 -1.09061 1101.8 -1.09061 1112 134.736 c 0,22,23
 1113.76 158.174 1113.76 158.174 1116.43 193.642 c 0,24,25
 1118.42 223.372 1118.42 223.372 1113.92 285.035 c 2,26,-1
 1065.76 943.576 l 6,27,28
 1065.72 944.112 1065.72 944.112 1049.5 1196.67 c 6,29,-1
 1048.2 1216.99 l 5,30,-1
 1300.83 1426.85 l 5,31,-1
 1300.81 464.294 l 2,32,33
 1300.81 351.525 1300.81 351.525 1352.48 306.305 c 0,34,35
 1406.52 259.013 1406.52 259.013 1501.07 259.013 c 2,36,-1
 1600 259.013 l 1,37,-1
 1600 0 l 1,38,-1
 1516.07 0 l 2,39,40
 1395.6 0 1395.6 0 1285.22 60.8613 c 1,0,1
EndSplineSet
EndChar

StartChar: uniFEDF
Encoding: 65247 65247 231
Width: 586
VWidth: 2307
GlyphClass: 2
Flags: W
AnchorPoint: "Anchor-10" 304.411 1423.09 basechar 0
AnchorPoint: "Anchor-7" 233.391 -210.301 basechar 0
LayerCount: 2
Fore
SplineSet
192.896 1219.49 m 5,0,-1
 380.018 1374.93 l 6,1,2
 412.796 1402.16 412.796 1402.16 445.577 1429.39 c 5,3,-1
 445.577 502.761 l 2,4,5
 445.577 291.033 445.577 291.033 359.22 160.831 c 0,6,7
 252.461 -0.130859 252.461 -0.130859 54.2188 -0.130859 c 2,8,-1
 -50.8076 -0.130859 l 1,9,-1
 -50.8076 258.988 l 1,10,-1
 2.4375 258.988 l 2,11,12
 167.728 258.988 167.728 258.988 223.062 328.646 c 0,13,14
 266.223 382.979 266.223 382.979 253.719 513.347 c 2,15,-1
 208.495 984.842 l 5,16,-1
 192.896 1219.49 l 5,0,-1
EndSplineSet
EndChar

StartChar: uniFEE0
Encoding: 65248 65248 232
Width: 633
VWidth: 2307
GlyphClass: 2
Flags: W
AnchorPoint: "Anchor-10" 275.93 1418.88 basechar 0
AnchorPoint: "Anchor-7" 239.89 -263.269 basechar 0
LayerCount: 2
Fore
SplineSet
155.966 1218.42 m 1,0,-1
 343.057 1373.83 l 2,1,2
 375.838 1401.06 375.838 1401.06 408.616 1428.29 c 5,3,-1
 408.616 464.229 l 2,4,5
 408.616 339.824 408.616 339.824 454.724 307.787 c 0,6,7
 524.906 259.021 524.906 259.021 611.822 259.021 c 2,8,-1
 683.548 259.021 l 1,9,-1
 683.548 -1.16211 l 1,10,-1
 604.392 0.915039 l 2,11,12
 412.657 5.94636 412.657 5.94636 300.69 113.469 c 1,13,14
 191.976 4.17648 191.976 4.17648 38.4805 0.921875 c 2,15,-1
 -50.0879 -0.956055 l 1,16,-1
 -50.0879 259.021 l 1,17,-1
 4.69727 259.021 l 2,18,19
 121.604 259.021 121.604 259.021 172.889 304.992 c 0,20,21
 230.641 356.833 230.641 356.833 220.74 461.177 c 2,22,-1
 171.286 982.359 l 1,23,-1
 155.966 1218.42 l 1,0,-1
EndSplineSet
EndChar

StartChar: uniFEE2
Encoding: 65250 65250 234
Width: 1145
VWidth: 2353
GlyphClass: 2
Flags: W
AnchorPoint: "Anchor-10" 472.183 1101.24 basechar 0
AnchorPoint: "Anchor-7" 187.132 -729.15 basechar 0
LayerCount: 2
Fore
SplineSet
506.757 413.088 m 1,0,1
 515.764 262.926 515.764 262.926 572.51 198.115 c 0,2,3
 615.08 149.68 615.08 149.68 680.987 158.625 c 0,4,5
 736.408 166.386 736.408 166.386 756.457 198.396 c 128,-1,6
 776.506 230.407 776.506 230.407 765.877 303.396 c 0,7,8
 758.244 354.657 758.244 354.657 720.499 382.615 c 128,-1,9
 682.754 410.573 682.754 410.573 602.699 417.026 c 0,10,11
 552.819 421.134 552.819 421.134 506.757 413.088 c 1,0,1
989.041 311.632 m 1,12,13
 1029.9 258.956 1029.9 258.956 1124.79 258.611 c 2,14,-1
 1195.46 258.354 l 1,15,-1
 1195.46 0.529297 l 1,16,-1
 1109.76 0.529297 l 2,17,18
 994.327 0.529297 994.327 0.529297 923.854 59.9707 c 1,19,20
 900.96 23.4277 900.96 23.4277 868.064 -3.99805 c 0,21,22
 793.507 -66.1602 793.507 -66.1602 692.046 -69.7432 c 0,23,24
 528.848 -77.0078 528.848 -77.0078 433.387 27.1475 c 128,-1,25
 337.926 131.302 337.926 131.302 315.195 330.887 c 1,26,27
 291.8 310.376 291.8 310.376 277.493 275.131 c 0,28,29
 245.465 196.824 245.465 196.824 259.986 -2.07129 c 2,30,-1
 295.353 -486.513 l 1,31,-1
 51.0547 -687.455 l 1,32,-1
 54.4414 58.1797 l 2,33,34
 55.4365 277.221 55.4365 277.221 124.757 410.508 c 128,-1,35
 194.077 543.795 194.077 543.795 335.044 579.02 c 1,36,37
 355.3 654.988 355.3 654.988 369.056 695.699 c 2,38,-1
 386.043 745.97 l 1,39,-1
 429.694 715.799 l 2,40,41
 535.925 642.372 535.925 642.372 680.727 609.92 c 0,42,43
 875.505 566.114 875.505 566.114 932.012 479.989 c 0,44,45
 976.847 410.026 976.847 410.026 989.041 311.632 c 1,12,13
EndSplineSet
EndChar

StartChar: uniFEE3
Encoding: 65251 65251 235
Width: 914
VWidth: 2334
GlyphClass: 2
Flags: W
AnchorPoint: "Anchor-10" 379.953 1051.87 basechar 0
AnchorPoint: "Anchor-7" 341.794 -198.935 basechar 0
LayerCount: 2
Fore
SplineSet
730.725 39.4961 m 0,0,1
 627.133 -67.7256 627.133 -67.7256 441.94 -26.583 c 0,2,3
 337.839 -2.55957 337.839 -2.55957 226.585 106.419 c 1,4,5
 120.232 -0.0654297 120.232 -0.0654297 11.4219 -0.0654297 c 2,6,-1
 -50.2021 -0.0654297 l 5,7,-1
 -50.2021 259.053 l 5,8,-1
 30.4395 259.053 l 2,9,10
 93.6826 259.053 93.6826 259.053 152.888 358.547 c 0,11,12
 252.71 527.832 252.71 527.832 352.696 610.779 c 128,-1,13
 452.682 693.727 452.682 693.727 557.668 680.775 c 0,14,15
 679.275 666.463 679.275 666.463 745.89 575.035 c 128,-1,16
 812.503 483.607 812.503 483.607 822.327 328.699 c 0,17,18
 833.738 146.118 833.738 146.118 730.725 39.4961 c 0,0,1
438.611 217.41 m 0,19,20
 521.752 176.487 521.752 176.487 572.182 206.812 c 0,21,22
 621.027 235.562 621.027 235.562 603.409 352.011 c 0,23,24
 590.024 437.753 590.024 437.753 543.476 467.416 c 0,25,26
 505.887 492.055 505.887 492.055 424.75 402.003 c 0,27,28
 395.373 369.628 395.373 369.628 343.529 278.831 c 1,29,30
 383.427 243.912 383.427 243.912 438.611 217.41 c 0,19,20
EndSplineSet
EndChar

StartChar: uniFEE4
Encoding: 65252 65252 236
Width: 983
VWidth: 2334
GlyphClass: 2
Flags: W
AnchorPoint: "Anchor-10" 428.224 1015.83 basechar 0
AnchorPoint: "Anchor-7" 390.064 -208.475 basechar 0
LayerCount: 2
Fore
SplineSet
443.603 213.772 m 0,0,1
 524.359 174.373 524.359 174.373 573.16 205.134 c 1,2,3
 620.263 236.333 620.263 236.333 602.42 351.942 c 0,4,5
 589.221 436.495 589.221 436.495 542.123 467.647 c 0,6,7
 505.059 492.163 505.059 492.163 424.854 402.117 c 0,8,9
 395.718 369.867 395.718 369.867 344.033 279.652 c 1,10,11
 390.773 239.771 390.773 239.771 443.603 213.772 c 0,0,1
759.569 76.9697 m 1,12,13
 744.837 55.6045 744.837 55.6045 730.117 40.9121 c 0,14,15
 620.513 -68.7129 620.513 -68.7129 441.687 -26.5244 c 0,16,17
 337.839 -2.55957 337.839 -2.55957 226.585 106.419 c 1,18,19
 120.232 -0.0654297 120.232 -0.0654297 11.4219 -0.0654297 c 2,20,-1
 -50.2021 -0.0654297 l 1,21,-1
 -50.2021 259.053 l 1,22,-1
 30.4395 259.053 l 2,23,24
 93.6826 259.053 93.6826 259.053 152.887 358.544 c 0,25,26
 252.394 527.31 252.394 527.31 352.061 610.221 c 128,-1,27
 451.729 693.132 451.729 693.132 556.458 680.8 c 0,28,29
 678.179 667.059 678.179 667.059 744.824 575.587 c 128,-1,30
 811.471 484.116 811.471 484.116 821.326 328.713 c 0,31,32
 821.817 320.728 821.817 320.728 822.097 312.931 c 0,33,34
 822.974 288.425 822.974 288.425 850.206 273.397 c 128,-1,35
 877.438 258.37 877.438 258.37 951.64 258.37 c 2,36,-1
 1033.94 258.37 l 1,37,-1
 1033.94 -0.642578 l 1,38,-1
 973 -0.642578 l 2,39,40
 841.026 -0.642578 841.026 -0.642578 759.569 76.9697 c 1,12,13
EndSplineSet
EndChar

StartChar: uniFEEA
Encoding: 65258 65258 242
Width: 1028
VWidth: 2323
GlyphClass: 2
Flags: W
AnchorPoint: "Anchor-10" 381.234 1228.15 basechar 0
AnchorPoint: "Anchor-7" 367.38 -185.691 basechar 0
LayerCount: 2
Fore
SplineSet
616.847 476.961 m 1,0,-1
 591.359 676.692 l 1,1,2
 278.073 637.066 278.073 637.066 284.932 501.943 c 0,3,4
 285.748 484.043 285.748 484.043 338.033 469.491 c 0,5,6
 435.508 441.551 435.508 441.551 616.847 476.961 c 1,0,-1
647.659 249.225 m 1,7,8
 145.381 168.231 145.381 168.231 63.0088 408.588 c 0,9,10
 53.7773 435.256 53.7773 435.256 50.7441 468.513 c 0,11,12
 40.7402 623.598 40.7402 623.598 173.729 719.319 c 128,-1,13
 306.716 815.041 306.716 815.041 563.891 857.029 c 1,14,15
 560.576 896.787 560.576 896.787 551.406 971.598 c 2,16,-1
 547.319 1004.94 l 1,17,-1
 746.979 1065.74 l 1,18,-1
 815.468 496.588 l 2,19,20
 826.521 404.736 826.521 404.736 847.168 352.143 c 0,21,22
 868.073 298.896 868.073 298.896 890.852 285.01 c 0,23,24
 932.01 258.806 932.01 258.806 1022.78 258.609 c 2,25,-1
 1043.26 258.564 l 5,26,-1
 1043.26 -1.66602 l 5,27,-1
 1013.41 0.484375 l 2,28,29
 855.47 11.8624 855.47 11.8624 772.393 67.3369 c 0,30,31
 678.439 130.073 678.439 130.073 647.659 249.225 c 1,7,8
EndSplineSet
EndChar

StartChar: uniFEEB
Encoding: 65259 65259 243
Width: 1154
VWidth: 2327
GlyphClass: 2
Flags: W
AnchorPoint: "Anchor-10" 560.85 1301.35 basechar 0
AnchorPoint: "Anchor-7" 374.015 -229.475 basechar 0
LayerCount: 2
Fore
SplineSet
745.868 479.383 m 1,0,1
 744.611 418.985 744.611 418.985 719.28 367.572 c 0,2,3
 684.073 295.085 684.073 295.085 597.396 230.31 c 1,4,5
 685.902 202.185 685.902 202.185 744.687 201.175 c 0,6,7
 802.06 200.188 802.06 200.188 824.55 221.003 c 128,-1,8
 847.039 241.817 847.039 241.817 847.833 294.854 c 0,9,10
 849.166 381.885 849.166 381.885 745.868 479.383 c 1,0,1
323.569 786.268 m 1,11,-1
 377.772 994.475 l 1,12,-1
 726.678 746.422 l 2,13,14
 899.469 623.577 899.469 623.577 985.22 507.489 c 0,15,16
 1070.71 391.757 1070.71 391.757 1062.51 278.474 c 0,17,18
 1051.86 131.95 1051.86 131.95 959.068 57.3779 c 128,-1,19
 866.273 -17.1934 866.273 -17.1934 705.485 -12.6094 c 0,20,21
 521.245 -7.3584 521.245 -7.3584 340.074 72.2598 c 1,22,23
 172.163 -0.671875 172.163 -0.671875 4.66797 -0.671875 c 6,24,-1
 -33.9238 -0.671875 l 1,25,-1
 -33.9238 258.447 l 1,26,-1
 21.6152 258.447 l 2,27,28
 21.9409 258.447 21.9409 258.447 90.4111 257.914 c 1,29,30
 65.5312 323.387 65.5312 323.387 68.7168 397.241 c 0,31,32
 74.6621 530.37 74.6621 530.37 134.748 621.185 c 0,33,34
 220.517 749.045 220.517 749.045 323.569 786.268 c 1,11,-1
526.731 458.458 m 1,35,36
 551.565 519.193 551.565 519.193 547.78 551.49 c 128,-1,37
 543.995 583.787 543.995 583.787 515.572 606.345 c 1,38,39
 470.818 643.987 470.818 643.987 429.812 636.45 c 128,-1,40
 388.804 628.913 388.804 628.913 340.51 569.788 c 0,41,42
 285.414 503.077 285.414 503.077 275.395 440.166 c 0,43,44
 265.007 372.927 265.007 372.927 279.382 338.427 c 128,-1,45
 293.758 303.926 293.758 303.926 330.694 289.363 c 1,46,47
 485.348 368.156 485.348 368.156 526.731 458.458 c 1,35,36
EndSplineSet
EndChar

StartChar: uniFEEC
Encoding: 65260 65260 244
Width: 979
VWidth: 2345
GlyphClass: 2
Flags: W
AnchorPoint: "Anchor-7" 261.672 -700.967 basechar 0
AnchorPoint: "Anchor-10" 409.944 1181.58 basechar 0
LayerCount: 2
Fore
SplineSet
330.73 260.779 m 1,0,-1
 336.396 261.077 l 2,1,2
 409.111 264.894 409.111 264.894 441.768 317.556 c 0,3,4
 494.948 403.322 494.948 403.322 494.948 520.985 c 0,5,6
 494.948 635.432 494.948 635.432 443.432 635.432 c 0,7,8
 379.988 635.432 379.988 635.432 350.392 496.404 c 0,9,10
 321.648 358.478 321.648 358.478 330.73 260.779 c 1,0,-1
196.467 660.027 m 0,11,12
 237.738 755.426 237.738 755.426 300.442 807.058 c 128,-1,13
 363.146 858.688 363.146 858.688 444.879 858.005 c 0,14,15
 536.615 856.939 536.615 856.939 603.306 776.785 c 0,16,17
 679.843 684.63 679.843 684.63 679.843 500.617 c 0,18,19
 679.843 228.092 679.843 228.092 520.23 85.875 c 0,20,21
 438.008 13.3398 438.008 13.3398 350.122 1.97168 c 1,22,23
 350.718 -119.817 350.718 -119.817 417.354 -270.353 c 1,24,25
 495.354 0 495.354 0 645.354 137.647 c 0,26,27
 776.532 257.699 776.532 257.699 924.403 259.161 c 1,28,-1
 1045.54 258.104 l 1,29,-1
 1045.54 -0.480469 l 1,30,-1
 880.309 -1.12793 l 2,31,32
 625.959 -2.12454 625.959 -2.12454 554.408 -477.28 c 2,33,-1
 551.538 -496.339 l 1,34,-1
 438.748 -561.41 l 1,35,-1
 419.841 -552.524 l 2,36,37
 187.893 -443.512 187.893 -443.512 150.263 -0.12793 c 1,38,-1
 -90.833 -0.12793 l 1,39,-1
 -90.833 258.98 l 1,40,-1
 144.529 259.042 l 1,41,42
 140.385 530.392 140.385 530.392 196.467 660.027 c 0,11,12
EndSplineSet
EndChar

StartChar: uniFEEE
Encoding: 65262 65262 246
Width: 869
VWidth: 2347
GlyphClass: 2
Flags: W
AnchorPoint: "Anchor-10" 349.964 1158.46 basechar 0
AnchorPoint: "Anchor-7" 538.13 -615.167 basechar 0
LayerCount: 2
Fore
SplineSet
468.495 523.856 m 0,0,1
 457.964 524.648 457.964 524.648 447.444 518.384 c 128,-1,2
 436.926 512.119 436.926 512.119 424.82 496.196 c 128,-1,3
 412.716 480.272 412.716 480.272 401.254 446.835 c 128,-1,4
 389.793 413.396 389.793 413.396 381.172 365.666 c 0,5,6
 377.487 344.861 377.487 344.861 377.404 327.625 c 0,7,8
 377.198 284.498 377.198 284.498 397.672 266.731 c 128,-1,9
 418.146 248.966 418.146 248.966 474.782 248.835 c 0,10,11
 546.385 248.674 546.385 248.674 584.572 249.603 c 1,12,13
 578.15 334.896 578.15 334.896 558.187 407.265 c 0,14,15
 528.371 519.575 528.371 519.575 468.495 523.856 c 0,0,1
569.631 0.291992 m 1,16,-1
 461.197 0.84082 l 2,17,18
 282.679 0.84082 282.679 0.84082 220.191 102.408 c 0,19,20
 163.921 195.43 163.921 195.43 183.621 356.386 c 0,21,22
 206.219 550.299 206.219 550.299 300.216 653.583 c 0,23,24
 393.697 755.722 393.697 755.722 524.082 742.807 c 0,25,26
 603.768 734.913 603.768 734.913 664.13 669.78 c 0,27,28
 767.006 558.439 767.006 558.439 789.992 350.473 c 0,29,30
 793.962 314.536 793.962 314.536 795.951 258.684 c 1,31,-1
 919.644 259.062 l 1,32,-1
 919.644 -0.0595703 l 1,33,-1
 784.705 -0.0107422 l 1,34,35
 730.256 -206.739 730.256 -206.739 624.591 -320.387 c 128,-1,36
 518.927 -434.035 518.927 -434.035 362.489 -445.576 c 1,37,38
 168.616 -458.193 168.616 -458.193 24.5967 -324.649 c 2,39,-1
 -39.4609 -265.252 l 1,40,-1
 47.3584 -255.565 l 2,41,42
 467.363 -208.711 467.363 -208.711 569.631 0.291992 c 1,16,-1
EndSplineSet
EndChar

StartChar: uniFEF0
Encoding: 65264 65264 248
Width: 1448
VWidth: 2361
GlyphClass: 2
Flags: W
AnchorPoint: "Anchor-10" 602.673 540.833 basechar 0
AnchorPoint: "Anchor-7" 211.215 -732.634 basechar 0
LayerCount: 2
Fore
SplineSet
1018.81 232.29 m 0,0,1
 1089.43 260.042 1089.43 260.042 1288.41 260.032 c 2,2,-1
 1392.45 260.027 l 1,3,-1
 1458.91 259.612 l 1,4,-1
 1458.91 0.117188 l 1,5,-1
 1338.89 0.321289 l 1,6,-1
 1206.67 10.4092 l 2,7,8
 1101.67 18.4198 1101.67 18.4198 1086.5 0 c 1,9,10
 1201.84 -16.2399 1201.84 -16.2399 1203.83 -16.5908 c 4,11,12
 1286.33 -31.0908 1286.33 -31.0908 1328.67 -57.2207 c 128,-1,13
 1371 -83.3506 1371 -83.3506 1383.21 -143.809 c 0,14,15
 1397.01 -208.812 1397.01 -208.812 1356.14 -291.727 c 0,16,17
 1285.87 -434.276 1285.87 -434.276 1084.8 -529.906 c 0,18,19
 888.094 -622.565 888.094 -622.565 563.472 -605.064 c 0,20,21
 353.015 -593.176 353.015 -593.176 222.298 -510.001 c 128,-1,22
 91.5801 -426.825 91.5801 -426.825 51.0977 -272.394 c 0,23,24
 17.7188 -145.187 17.7188 -145.187 65.7373 54.5098 c 0,25,26
 80.876 117.468 80.876 117.468 136.845 250.917 c 0,27,28
 170.06 330.466 170.06 330.466 203.588 391.281 c 1,29,-1
 350.453 297.31 l 1,30,31
 322 233.167 322 233.167 289.816 148.689 c 1,32,33
 257.263 69.6338 257.263 69.6338 244.202 -3.57129 c 0,34,35
 219.763 -140.578 219.763 -140.578 292.973 -233.383 c 0,36,37
 380.727 -345.71 380.727 -345.71 635.555 -351.652 c 0,38,39
 860.906 -356.867 860.906 -356.867 1027.02 -298.607 c 0,40,41
 1088.81 -276.938 1088.81 -276.938 1128.76 -256.026 c 0,42,43
 1143.36 -248.381 1143.36 -248.381 1153.66 -242.175 c 0,44,45
 1200.03 -214.231 1200.03 -214.231 1145.16 -204.699 c 0,46,47
 1120.77 -200.461 1120.77 -200.461 1082.61 -195.852 c 0,48,49
 979.99 -182.848 979.99 -182.848 919.082 -137.933 c 128,-1,50
 858.175 -93.0186 858.175 -93.0186 853.358 -15.1943 c 0,51,52
 848.191 71.583 848.191 71.583 891.163 135.296 c 128,-1,53
 934.136 199.01 934.136 199.01 1018.81 232.29 c 0,0,1
EndSplineSet
EndChar

StartChar: uniFEFB
Encoding: 65275 65275 259
Width: 1051
VWidth: 2307
GlyphClass: 3
Flags: W
AnchorPoint: "Anchor-9" 819.258 1448.49 baselig 0
AnchorPoint: "Anchor-6" 783.378 -174.319 baselig 0
AnchorPoint: "Anchor-6" 176.937 -202.691 baselig 1
AnchorPoint: "Anchor-9" 141.146 1340.52 baselig 1
LayerCount: 2
Fore
SplineSet
4.44727 1071.84 m 2,0,-1
 184.933 1307.86 l 1,1,-1
 580.149 286.276 l 1,2,3
 642.818 307.835 642.818 307.835 682.859 357.871 c 0,4,5
 739.743 429.478 739.743 429.478 728.722 550.306 c 2,6,-1
 667.696 1219.32 l 1,7,-1
 855.018 1374.93 l 2,8,9
 887.797 1402.16 887.797 1402.16 920.577 1429.39 c 1,10,-1
 920.577 539.761 l 2,11,12
 920.577 331.16 920.577 331.16 815.513 192.447 c 0,13,14
 623.818 -60 623.818 -60 135.818 20 c 1,15,16
 83.8179 127 83.8179 127 62.4062 249.429 c 5,17,-1
 108.425 245.752 l 2,18,19
 312.983 229.408 312.983 229.408 410.57 241.274 c 1,20,-1
 -8.94141 1054.33 l 1,21,22
 -0.348633 1065.64 -0.348633 1065.64 4.44727 1071.84 c 2,0,-1
EndSplineSet
LCarets2: 1 0 
Ligature2: "'rlig' Required Ligatures in Arabic lookup 16 subtable" uniFEDF uniFE8E
EndChar

StartChar: uniFEFC
Encoding: 65276 65276 260
Width: 1284
VWidth: 2307
GlyphClass: 3
Flags: W
AnchorPoint: "Anchor-9" 894.932 1404.02 baselig 0
AnchorPoint: "Anchor-6" 880.991 -193.368 baselig 0
AnchorPoint: "Anchor-6" 237.16 -220.078 baselig 1
AnchorPoint: "Anchor-9" 105.53 1298.55 baselig 1
LayerCount: 2
Fore
SplineSet
58.084 1058.99 m 2,0,-1
 217.906 1323.51 l 1,1,-1
 620.775 331.92 l 1,2,3
 736.935 406.722 736.935 406.722 783.2 566.652 c 1,4,5
 813.113 683.696 813.113 683.696 802.288 782.279 c 2,6,-1
 754.786 1214.88 l 1,7,-1
 1010.66 1427.43 l 1,8,-1
 1010.66 709.332 l 2,9,10
 1010.66 518.402 1010.66 518.402 1052.23 370.454 c 0,11,12
 1068.44 312.743 1068.44 312.743 1108.97 285.584 c 128,-1,13
 1149.5 258.425 1149.5 258.425 1224.49 258.425 c 2,14,-1
 1331.64 258.425 l 1,15,-1
 1331.64 -0.835938 l 1,16,-1
 1196.47 0.000976562 l 2,17,18
 1079.33 0.726262 1079.33 0.726262 996.528 74.8896 c 128,-1,19
 913.724 149.052 913.724 149.052 868.535 286.918 c 1,20,21
 824.803 212.694 824.803 212.694 789.649 180.56 c 0,22,23
 550.405 -46.6624 550.405 -46.6624 134.405 19.3379 c 5,24,25
 66.4053 111.338 66.4053 111.338 56.5879 249.173 c 1,26,-1
 100.118 246.562 l 2,27,28
 351.428 231.486 351.428 231.486 461.022 257.319 c 1,29,-1
 47.1709 1040.92 l 1,30,31
 52.627 1049.96 52.627 1049.96 58.084 1058.99 c 2,0,-1
EndSplineSet
LCarets2: 1 0 
Ligature2: "'rlig' Required Ligatures in Arabic lookup 16 subtable" uniFEE0 uniFE8E
EndChar

StartChar: arabic_dot
Encoding: 65536 -1 261
Width: 150
GlyphClass: 2
Flags: W
LayerCount: 2
Fore
SplineSet
94.5022 176.695 m 2,0,-1
 173.178 98.019 l 2,1,2
 182.03 89.1677 182.03 89.1677 182.104 82.5331 c 128,-1,3
 182.177 75.898 182.177 75.898 173.679 67.4811 c 2,4,-1
 91.1953 -15.0026 l 2,5,6
 81.6302 -24.1979 81.6302 -24.1979 74.5344 -24.2692 c 0,7,8
 67.0654 -24.3441 67.0654 -24.3441 57.8211 -15.0189 c 2,9,-1
 -24.1792 66.9813 l 2,10,11
 -32.7038 75.0307 -32.7038 75.0307 -32.2265 82.7398 c 128,-1,12
 -31.7491 90.4488 -31.7491 90.4488 -21.1789 101.019 c 2,13,-1
 55.9677 178.165 l 2,14,15
 66.1706 188.038 66.1706 188.038 74.6364 187.863 c 0,16,17
 83.5193 187.679 83.5193 187.679 94.5022 176.695 c 2,0,-1
EndSplineSet
EndChar

StartChar: arabic_2dots
Encoding: 65537 -1 262
Width: 452
GlyphClass: 2
Flags: W
LayerCount: 2
Fore
SplineSet
363.679 176.52 m 2,0,-1
 442.18 98.0185 l 2,1,2
 451.03 89.1677 451.03 89.1677 451.104 82.5338 c 128,-1,3
 451.179 75.8983 451.179 75.8983 442.679 67.4814 c 2,4,-1
 360.679 -14.5186 l 2,5,6
 351.004 -24.1943 351.004 -24.1943 343.534 -24.2686 c 128,-1,7
 336.065 -24.3438 336.065 -24.3438 326.821 -15.0186 c 2,8,-1
 244.821 66.9811 l 2,9,10
 236.296 75.0311 236.296 75.0311 236.773 82.7394 c 128,-1,11
 237.251 90.4484 237.251 90.4484 247.821 101.019 c 2,12,-1
 324.322 177.52 l 2,13,14
 334.754 188.046 334.754 188.046 343.637 187.862 c 128,-1,15
 352.52 187.678 352.52 187.678 363.679 176.52 c 2,0,-1
126.679 176.519 m 2,16,-1
 205.179 98.0187 l 2,17,18
 214.03 89.1668 214.03 89.1668 214.104 82.5337 c 128,-1,19
 214.177 75.9795 214.177 75.9795 205.679 67.4814 c 2,20,-1
 123.679 -14.5188 l 2,21,22
 114.002 -24.1943 114.002 -24.1943 106.534 -24.2686 c 128,-1,23
 99.1458 -24.3428 99.1458 -24.3428 89.8213 -15.0186 c 2,24,-1
 7.37399 67.4286 l 2,25,26
 -0.653062 75.8616 -0.653062 75.8616 -0.226562 82.7402 c 0,27,28
 0.229276 90.0978 0.229276 90.0978 10.3418 100.54 c 2,29,-1
 87.3212 177.518 l 2,30,31
 97.8477 188.045 97.8477 188.045 106.637 187.862 c 128,-1,32
 115.519 187.678 115.519 187.678 126.679 176.519 c 2,16,-1
EndSplineSet
EndChar

StartChar: arabic_3dots
Encoding: 65538 -1 263
Width: 455
GlyphClass: 2
Flags: W
LayerCount: 2
Fore
SplineSet
245.892 357.632 m 2,0,-1
 325.094 278.429 l 2,1,2
 333.946 269.578 333.946 269.578 334.02 262.943 c 128,-1,3
 334.093 256.308 334.093 256.308 325.595 247.891 c 2,4,-1
 243.595 165.892 l 2,5,6
 233.92 156.216 233.92 156.216 226.451 156.141 c 128,-1,7
 218.981 156.066 218.981 156.066 209.737 165.391 c 2,8,-1
 127.737 247.391 l 2,9,10
 119.212 255.441 119.212 255.441 119.69 263.15 c 128,-1,11
 120.168 270.86 120.168 270.86 130.737 281.429 c 2,12,-1
 207.237 357.928 l 2,13,14
 217.868 368.56 217.868 368.56 226.201 368.624 c 128,-1,15
 234.533 368.689 234.533 368.689 245.892 357.632 c 2,0,-1
367.679 164.518 m 2,16,-1
 446.179 86.0187 l 2,17,18
 455.03 77.1671 455.03 77.1671 455.104 70.5333 c 128,-1,19
 455.176 63.9789 455.176 63.9789 446.679 55.4814 c 2,20,-1
 364.679 -26.5186 l 2,21,22
 355.002 -36.1943 355.002 -36.1943 347.534 -36.2686 c 128,-1,23
 340.146 -36.3428 340.146 -36.3428 330.821 -27.0186 c 2,24,-1
 248.822 54.9813 l 2,25,26
 240.323 63.4791 240.323 63.4791 240.773 70.7403 c 0,27,28
 241.251 78.4483 241.251 78.4483 251.821 89.0186 c 2,29,-1
 328.321 165.519 l 2,30,31
 338.847 176.044 338.847 176.044 347.636 175.863 c 128,-1,32
 356.519 175.679 356.519 175.679 367.679 164.518 c 2,16,-1
126.679 164.518 m 2,33,-1
 205.179 86.0187 l 2,34,35
 214.03 77.1669 214.03 77.1669 214.104 70.5333 c 128,-1,36
 214.176 63.9783 214.176 63.9783 205.679 55.4814 c 2,37,-1
 123.679 -26.5188 l 2,38,39
 114.002 -36.1943 114.002 -36.1943 106.534 -36.2686 c 128,-1,40
 99.1459 -36.3428 99.1459 -36.3428 89.8213 -27.0186 c 2,41,-1
 7.37407 55.4286 l 2,42,43
 -0.653064 63.8616 -0.653064 63.8616 -0.226562 70.7402 c 0,44,45
 0.250989 78.4483 0.250989 78.4483 10.8213 89.0186 c 2,46,-1
 87.3213 165.519 l 2,47,48
 97.8465 176.044 97.8465 176.044 106.636 175.863 c 128,-1,49
 115.519 175.679 115.519 175.679 126.679 164.518 c 2,33,-1
EndSplineSet
EndChar

StartChar: arabic_3dots_a
Encoding: 65539 -1 264
Width: 454
GlyphClass: 2
Flags: W
LayerCount: 2
Fore
SplineSet
240.605 -5.294 m 2,0,-1
 319.43 -84.119 l 2,1,2
 328.28 -92.9704 328.28 -92.9704 328.354 -99.6049 c 128,-1,3
 328.427 -106.24 328.427 -106.24 319.93 -114.657 c 2,4,-1
 237.93 -196.657 l 2,5,6
 228.254 -206.332 228.254 -206.332 220.784 -206.407 c 128,-1,7
 213.315 -206.482 213.315 -206.482 204.07 -197.157 c 2,8,-1
 122.071 -115.157 l 2,9,10
 113.547 -107.107 113.547 -107.107 114.025 -99.3983 c 128,-1,11
 114.501 -91.6895 114.501 -91.6895 125.07 -81.1187 c 2,12,-1
 201.88 -4.31061 l 2,13,14
 212.768 6.03091 212.768 6.03091 221.19 5.71727 c 128,-1,15
 229.616 5.40469 229.616 5.40469 240.605 -5.294 c 2,0,-1
366.54 184.659 m 2,16,-1
 445.18 106.019 l 2,17,18
 454.03 97.1682 454.03 97.1682 454.104 90.5326 c 128,-1,19
 454.176 83.9784 454.176 83.9784 445.68 75.4811 c 2,20,-1
 363.679 -6.51907 l 2,21,22
 354.004 -16.194 354.004 -16.194 346.534 -16.2693 c 128,-1,23
 339.145 -16.343 339.145 -16.343 329.82 -7.0189 c 2,24,-1
 247.771 75.0328 l 2,25,26
 239.323 83.48 239.323 83.48 239.774 90.7394 c 0,27,28
 240.25 98.4485 240.25 98.4485 250.82 109.019 c 2,29,-1
 327.336 185.535 l 2,30,31
 337.845 196.044 337.845 196.044 346.636 195.863 c 128,-1,32
 355.519 195.679 355.519 195.679 366.54 184.659 c 2,16,-1
126.68 184.519 m 2,33,-1
 205.179 106.019 l 2,34,35
 214.03 97.1683 214.03 97.1683 214.104 90.5325 c 128,-1,36
 214.176 83.9784 214.176 83.9784 205.68 75.4811 c 2,37,-1
 123.679 -6.51906 l 2,38,39
 114.004 -16.194 114.004 -16.194 106.534 -16.2693 c 128,-1,40
 99.1446 -16.343 99.1446 -16.343 89.8209 -7.01893 c 2,41,-1
 7.77019 75.0318 l 2,42,43
 -0.67536 83.4772 -0.67536 83.4772 -0.226775 90.7397 c 0,44,45
 0.250504 98.4486 0.250504 98.4486 10.8209 109.019 c 2,46,-1
 87.3365 185.535 l 2,47,48
 97.8457 196.044 97.8457 196.044 106.636 195.863 c 128,-1,49
 115.519 195.679 115.519 195.679 126.68 184.519 c 2,33,-1
EndSplineSet
EndChar

StartChar: uni066E.fina
Encoding: 65540 -1 265
Width: 1776
VWidth: 2331
GlyphClass: 2
Flags: W
AnchorPoint: "Anchor-10" 699.344 1143.48 basechar 0
AnchorPoint: "Anchor-7" 699.344 -170.389 basechar 0
LayerCount: 2
Fore
SplineSet
1826.24 -2.7373 m 1,0,-1
 1772.25 0.688477 l 1,1,-1
 1768.33 1.04492 l 2,2,3
 1664.41 10.4855 1664.41 10.4855 1595.45 64.3662 c 128,-1,4
 1526.45 118.275 1526.45 118.275 1500.4 211.332 c 1,5,6
 1443.97 142.077 1443.97 142.077 1348.6 91.8184 c 0,7,8
 1192.64 10.0762 1192.64 10.0762 931.17 -0.616211 c 0,9,10
 435.684 -20.123 435.684 -20.123 258 73.8555 c 0,11,12
 44.1855 186.485 44.1855 186.485 51.3115 517.451 c 0,13,14
 54.2052 653.214 54.2052 653.214 110.154 762.396 c 2,15,-1
 121.336 784.216 l 1,16,-1
 244.661 734.847 l 1,17,18
 226.29 644.495 226.29 644.495 221.975 602.809 c 132,-1,19
 217.661 561.123 217.661 561.123 221.453 515.002 c 0,20,21
 226.601 414.03 226.601 414.03 299.819 354.24 c 0,22,23
 374.54 293.223 374.54 293.223 534.462 269.811 c 0,24,25
 614.613 258.076 614.613 258.076 963.252 258.172 c 0,26,27
 1172.57 258.229 1172.57 258.229 1304.99 333.057 c 0,28,29
 1373.64 371.852 1373.64 371.852 1423.34 425.433 c 0,30,31
 1483.07 489.829 1483.07 489.829 1513.92 610.166 c 2,32,-1
 1523.65 648.103 l 1,33,-1
 1649.21 618.725 l 1,34,-1
 1644.29 582.663 l 2,35,36
 1638.67 541.41 1638.67 541.41 1639 461.437 c 1,37,38
 1640.61 370.896 1640.61 370.896 1671.1 324.041 c 128,-1,39
 1701.59 277.19 1701.59 277.19 1762.37 262.823 c 2,40,-1
 1779.9 258.68 l 1,41,-1
 1826.24 260.468 l 1,42,-1
 1826.24 -2.7373 l 1,0,-1
EndSplineSet
EndChar

StartChar: uni06A1.fina
Encoding: 65543 -1 268
Width: 1893
VWidth: 2328
GlyphClass: 2
Flags: W
AnchorPoint: "Anchor-10" 509.221 1252.58 basechar 0
AnchorPoint: "Anchor-7" 622.641 -221.885 basechar 0
LayerCount: 2
Fore
SplineSet
963.057 258.172 m 1,0,-1
 1005.36 258.598 l 2,1,2
 1143.09 259.984 1143.09 259.984 1234.66 279.226 c 1,3,4
 1144.89 347.145 1144.89 347.145 1115.37 463.683 c 0,5,6
 1091.83 556.572 1091.83 556.572 1116.09 658.507 c 0,7,8
 1154.74 821.502 1154.74 821.502 1301.16 888.973 c 0,9,10
 1364.46 918.664 1364.46 918.664 1445.06 919.215 c 0,11,12
 1536.67 919.797 1536.67 919.797 1606.97 880.075 c 0,13,14
 1720.64 815.853 1720.64 815.853 1758.55 686.669 c 0,15,16
 1790.03 577.303 1790.03 577.303 1758.81 459.273 c 0,17,18
 1731.71 356.825 1731.71 356.825 1633.56 279.724 c 1,19,20
 1726.49 257.649 1726.49 257.649 1862.41 258.599 c 2,21,-1
 1960.86 259.286 l 1,22,-1
 1960.86 0 l 1,23,-1
 1858.48 0 l 2,24,25
 1599.97 0 1599.97 0 1433.23 105.902 c 1,26,27
 1293.68 22.1382 1293.68 22.1382 1109.86 10.5947 c 2,28,-1
 931.604 -0.598633 l 1,29,30
 435.684 -20.123 435.684 -20.123 258.01 73.8506 c 0,31,32
 44.1855 186.485 44.1855 186.485 51.3115 517.451 c 0,33,34
 54.2052 653.214 54.2052 653.214 110.154 762.396 c 2,35,-1
 121.336 784.216 l 1,36,-1
 246 734.847 l 5,37,38
 226.676 629.998 226.676 629.998 224.519 610.583 c 0,39,40
 219.622 566.512 219.622 566.512 221.453 515.002 c 0,41,42
 225.098 415.258 225.098 415.258 299.819 354.24 c 128,-1,43
 374.54 293.223 374.54 293.223 534.462 269.811 c 0,44,45
 614.613 258.076 614.613 258.076 963.057 258.172 c 1,0,-1
1304.61 557.22 m 128,-1,47
 1304.61 493.402 1304.61 493.402 1345.75 448.621 c 0,48,49
 1385.69 405.132 1385.69 405.132 1441.48 405.132 c 128,-1,50
 1497.26 405.132 1497.26 405.132 1537.21 448.623 c 0,51,52
 1578.34 493.396 1578.34 493.396 1578.34 557.22 c 128,-1,53
 1578.34 621.037 1578.34 621.037 1537.21 665.809 c 0,54,55
 1497.26 709.302 1497.26 709.302 1441.48 709.302 c 128,-1,56
 1385.7 709.302 1385.7 709.302 1345.75 665.806 c 0,57,46
 1304.61 621.03 1304.61 621.03 1304.61 557.22 c 128,-1,47
EndSplineSet
EndChar

StartChar: uni06A1.init
Encoding: 65544 -1 269
Width: 712
VWidth: 2347
GlyphClass: 2
Flags: W
AnchorPoint: "Anchor-10" 435.699 1310 basechar 0
AnchorPoint: "Anchor-7" 340.299 -168.172 basechar 0
LayerCount: 2
Fore
SplineSet
343.365 887.661 m 0,0,1
 332.494 888.448 332.494 888.448 321.573 882.039 c 128,-1,2
 310.652 875.629 310.652 875.629 298.092 859.5 c 128,-1,3
 285.531 843.371 285.531 843.371 273.395 809.862 c 128,-1,4
 261.258 776.354 261.258 776.354 251.776 728.646 c 0,5,6
 246.067 700.565 246.067 700.565 245.833 678.012 c 0,7,8
 245.331 629.642 245.331 629.642 267.661 609.44 c 128,-1,9
 289.991 589.239 289.991 589.239 349.753 588.645 c 0,10,11
 399.144 588.422 399.144 588.422 467.617 598.519 c 1,12,13
 461.383 686.012 461.383 686.012 441.001 759.889 c 0,14,15
 406.981 883.192 406.981 883.192 343.365 887.661 c 0,0,1
656.992 392.772 m 0,16,17
 619.914 165.932 619.914 165.932 437.684 62.0264 c 0,18,19
 326.57 -0.97168 326.57 -0.97168 178.861 -0.97168 c 2,20,-1
 -50.1064 -0.97168 l 1,21,-1
 -50.1064 258.147 l 1,22,-1
 57.7773 258.147 l 2,23,24
 275.715 258.147 275.715 258.147 309.861 268.048 c 1,25,26
 391.956 294.679 391.956 294.679 431.387 347.515 c 1,27,28
 373.907 335.293 373.907 335.293 322.57 339.333 c 0,29,30
 175.769 349.46 175.769 349.46 98.4668 459.063 c 0,31,32
 33.7285 550.488 33.7285 550.488 52.3945 715.102 c 0,33,34
 74.8867 909.319 74.8867 909.319 169.091 1011.58 c 0,35,36
 260.453 1111.39 260.453 1111.39 372.068 1102.59 c 0,37,38
 473.97 1094.22 473.97 1094.22 540.121 1011.66 c 0,39,40
 628.761 900.053 628.761 900.053 653.692 710.176 c 0,41,42
 678.11 521.968 678.11 521.968 656.992 392.772 c 0,16,17
EndSplineSet
EndChar

StartChar: uni06A1.medi
Encoding: 65545 -1 270
Width: 970
VWidth: 2328
GlyphClass: 2
Flags: W
AnchorPoint: "Anchor-10" 511.04 1083.65 basechar 0
AnchorPoint: "Anchor-7" 511.04 -163.966 basechar 0
LayerCount: 2
Fore
SplineSet
343.732 556.973 m 128,-1,1
 343.732 493.153 343.732 493.153 384.862 448.377 c 0,2,3
 424.815 404.885 424.815 404.885 480.597 404.885 c 128,-1,4
 536.377 404.885 536.377 404.885 576.329 448.377 c 0,5,6
 617.459 493.15 617.459 493.15 617.459 556.973 c 128,-1,7
 617.459 620.784 617.459 620.784 576.329 665.562 c 0,8,9
 536.376 709.055 536.376 709.055 480.597 709.055 c 128,-1,10
 424.816 709.055 424.816 709.055 384.862 665.562 c 0,11,0
 343.732 620.787 343.732 620.787 343.732 556.973 c 128,-1,1
646.086 879.828 m 0,12,13
 759.745 815.616 759.745 815.616 797.671 686.422 c 0,14,15
 829.16 577.055 829.16 577.055 797.93 459.026 c 0,16,17
 770.944 357.044 770.944 357.044 673.371 280.019 c 1,18,19
 774.565 257.236 774.565 257.236 934.534 258.352 c 2,20,-1
 1032.98 259.039 l 1,21,-1
 1032.98 -0.145508 l 1,22,-1
 788.289 -0.766602 l 2,23,24
 634.646 -1.15625 634.646 -1.15625 472.336 105.45 c 1,25,26
 301.449 -0.766602 301.449 -0.766602 145.901 -0.766602 c 2,27,-1
 -60.46 -0.766602 l 1,28,-1
 -60.46 258.353 l 1,29,-1
 44.8838 258.353 l 2,30,31
 181.073 258.355 181.073 258.355 274.029 278.49 c 1,32,33
 182.512 346.895 182.512 346.895 154.426 463.668 c 1,34,35
 130.946 556.331 130.946 556.331 155.213 658.277 c 0,36,37
 193.868 821.261 193.868 821.261 340.281 888.73 c 0,38,39
 403.578 918.417 403.578 918.417 484.181 918.968 c 0,40,41
 575.776 919.55 575.776 919.55 646.086 879.828 c 0,12,13
EndSplineSet
EndChar

StartChar: uni066F.fina
Encoding: 65546 -1 271
Width: 1406
VWidth: 2347
GlyphClass: 2
Flags: W
AnchorPoint: "Anchor-10" 348.271 1029.91 basechar 0
AnchorPoint: "Anchor-7" 436.935 -686.036 basechar 0
LayerCount: 2
Fore
SplineSet
196.54 470.392 m 1,0,-1
 343.277 383.624 l 1,1,-1
 330.657 351.838 l 2,2,3
 217.757 67.4873 217.757 67.4873 284.093 -100.923 c 0,4,5
 352.888 -275.577 352.888 -275.577 636.045 -279.086 c 0,6,7
 862.651 -281.894 862.651 -281.894 983.904 -211.274 c 128,-1,8
 1105.16 -140.654 1105.16 -140.654 1134.89 1.66992 c 1,9,-1
 1019.4 0.800781 l 1,10,11
 820.031 -1.92578 820.031 -1.92578 756.004 102.146 c 0,12,13
 693.808 202.098 693.808 202.098 711.276 356.154 c 0,14,15
 733.771 550.373 733.771 550.373 828.028 652.688 c 0,16,17
 923.26 755.836 923.26 755.836 1059.83 741.758 c 0,18,19
 1139.45 733.871 1139.45 733.871 1199.8 668.744 c 0,20,21
 1302.79 557.425 1302.79 557.425 1325.67 350.433 c 0,22,23
 1329.63 314.541 1329.63 314.541 1331.63 258.641 c 1,24,-1
 1455.98 259.02 l 1,25,-1
 1455.98 -0.0878906 l 1,26,-1
 1330.99 -0.0878906 l 1,27,28
 1328.78 -37.8975 1328.78 -37.8975 1321.38 -73.9805 c 0,29,30
 1275.34 -294.797 1275.34 -294.797 1105.04 -408.986 c 128,-1,31
 934.739 -523.176 934.739 -523.176 652.168 -528.921 c 0,32,33
 291.461 -535.9 291.461 -535.9 140.938 -326.228 c 0,34,35
 21.7393 -161.311 21.7393 -161.311 84.7939 129.589 c 0,36,37
 99.9951 199.717 99.9951 199.717 134.83 300.151 c 0,38,39
 173.818 413.036 173.818 413.036 179.295 426.861 c 2,40,-1
 196.54 470.392 l 1,0,-1
1019.41 528.701 m 0,41,42
 983.692 530.688 983.692 530.688 955.927 495.398 c 128,-1,43
 928.161 460.109 928.161 460.109 910.729 370.065 c 0,44,45
 906.557 347.991 906.557 347.991 906.495 329.692 c 0,46,47
 906.341 283.629 906.341 283.629 931.779 263.235 c 128,-1,48
 957.217 242.843 957.217 242.843 1025.43 242.698 c 0,49,50
 1091.37 242.542 1091.37 242.542 1128.22 243.43 c 1,51,52
 1121.79 328.776 1121.79 328.776 1101.88 400.924 c 0,53,54
 1083.1 468.552 1083.1 468.552 1060.89 497.864 c 128,-1,55
 1038.67 527.176 1038.67 527.176 1019.41 528.701 c 0,41,42
EndSplineSet
EndChar

StartChar: arabic_ring
Encoding: 65549 -1 274
Width: 438
GlyphClass: 2
Flags: W
LayerCount: 2
Fore
SplineSet
316 220 m 4,0,1
 316 260 316 260 288 288 c 4,2,3
 260 317 260 317 219 317 c 132,-1,4
 178 317 178 317 150 289 c 132,-1,5
 122 261 122 261 122 220 c 4,6,7
 122 178 122 178 150 150 c 4,8,9
 178 123 178 123 219 123 c 132,-1,10
 260 123 260 123 288 151 c 132,-1,11
 316 179 316 179 316 220 c 4,0,1
438 220 m 132,-1,13
 438 128 438 128 375 64 c 4,14,15
 311 0 311 0 219 0 c 132,-1,16
 127 0 127 0 64 64 c 4,17,18
 0 128 0 128 0 220 c 132,-1,19
 0 312 0 312 64 376 c 4,20,21
 127 439 127 439 219 439 c 132,-1,22
 311 439 311 439 375 376 c 5,23,12
 438 312 438 312 438 220 c 132,-1,13
EndSplineSet
EndChar

StartChar: arabic_gaf_bar
Encoding: 65550 -1 275
Width: 674
GlyphClass: 2
Flags: W
LayerCount: 2
Fore
SplineSet
621 1647.8 m 9,0,-1
 0 1321 l 1,1,2
 47 1459.8 l 9,3,-1
 666 1782 l 1,4,5
 621 1647.8 l 9,0,-1
EndSplineSet
EndChar

StartChar: uni066E.init.math
Encoding: 65560 -1 285
Width: 909
VWidth: 2333
GlyphClass: 2
Flags: W
LayerCount: 2
Fore
SplineSet
618.719 95.2744 m 0,0,1
 530.128 -9.67969 530.128 -9.67969 343.01 -9.67969 c 2,2,-1
 -63.5381 -9.67969 l 1,3,-1
 -63.5381 240.853 l 1,4,-1
 280.629 240.853 l 2,5,6
 384.25 240.853 384.25 240.853 428.027 284.631 c 0,7,8
 477.476 334.078 477.476 334.078 477.476 445.639 c 2,9,-1
 477.476 712.68 l 1,10,-1
 728.008 712.68 l 1,11,-1
 728.008 445.639 l 2,12,13
 728.008 226.607 728.008 226.607 618.719 95.2744 c 0,0,1
EndSplineSet
EndChar

StartChar: guillemotleft
Encoding: 171 171 286
Width: 1253
Flags: W
LayerCount: 2
Fore
SplineSet
582.859 931.098 m 5,0,-1
 448.889 931.098 l 5,1,-1
 440.057 917.129 l 6,2,3
 367.416 802.234 367.416 802.234 331.08 692.026 c 4,4,5
 294.055 579.72 294.055 579.72 294.055 468.617 c 4,6,7
 294.055 357.089 294.055 357.089 331.07 244.278 c 4,8,9
 367.422 133.541 367.422 133.541 440.08 19.1 c 6,10,-1
 448.918 5.1781 l 5,11,-1
 582.945 5.1781 l 5,12,-1
 557.322 50.0531 l 6,13,14
 498.045 153.868 498.045 153.868 468.502 256.018 c 4,15,16
 438.055 361.295 438.055 361.295 438.055 468.617 c 132,-1,17
 438.055 575.917 438.055 575.917 468.49 680.456 c 4,18,19
 498.045 781.967 498.045 781.967 557.365 886.268 c 6,20,-1
 582.859 931.098 l 5,0,-1
958.859 931.098 m 5,21,-1
 824.889 931.098 l 5,22,-1
 816.057 917.129 l 6,23,24
 743.416 802.234 743.416 802.234 707.08 692.026 c 4,25,26
 670.055 579.72 670.055 579.72 670.055 468.617 c 4,27,28
 670.055 357.089 670.055 357.089 707.07 244.278 c 4,29,30
 743.422 133.541 743.422 133.541 816.08 19.1 c 6,31,-1
 824.918 5.1781 l 5,32,-1
 958.945 5.1781 l 5,33,-1
 933.322 50.0531 l 6,34,35
 874.045 153.868 874.045 153.868 844.502 256.018 c 4,36,37
 814.055 361.295 814.055 361.295 814.055 468.617 c 132,-1,38
 814.055 575.917 814.055 575.917 844.49 680.456 c 4,39,40
 874.045 781.967 874.045 781.967 933.365 886.268 c 6,41,-1
 958.859 931.098 l 5,21,-1
EndSplineSet
EndChar

StartChar: guillemotright
Encoding: 187 187 287
Width: 1253
Flags: W
LayerCount: 2
Fore
SplineSet
670.141 931.098 m 1,0,-1
 804.111 931.098 l 1,1,-1
 812.943 917.129 l 2,2,3
 885.584 802.234 885.584 802.234 921.92 692.026 c 0,4,5
 958.945 579.72 958.945 579.72 958.945 468.617 c 0,6,7
 958.945 357.089 958.945 357.089 921.93 244.278 c 0,8,9
 885.578 133.541 885.578 133.541 812.92 19.1 c 2,10,-1
 804.082 5.1781 l 1,11,-1
 670.055 5.1781 l 1,12,-1
 695.678 50.0531 l 2,13,14
 754.955 153.868 754.955 153.868 784.498 256.018 c 0,15,16
 814.945 361.295 814.945 361.295 814.945 468.617 c 128,-1,17
 814.945 575.917 814.945 575.917 784.51 680.456 c 0,18,19
 754.955 781.967 754.955 781.967 695.635 886.268 c 2,20,-1
 670.141 931.098 l 1,0,-1
294.141 931.098 m 1,21,-1
 428.111 931.098 l 1,22,-1
 436.943 917.129 l 2,23,24
 509.584 802.234 509.584 802.234 545.92 692.026 c 0,25,26
 582.945 579.72 582.945 579.72 582.945 468.617 c 0,27,28
 582.945 357.089 582.945 357.089 545.93 244.278 c 0,29,30
 509.578 133.541 509.578 133.541 436.92 19.1 c 2,31,-1
 428.082 5.1781 l 1,32,-1
 294.055 5.1781 l 1,33,-1
 319.678 50.0531 l 2,34,35
 378.955 153.868 378.955 153.868 408.498 256.018 c 0,36,37
 438.945 361.295 438.945 361.295 438.945 468.617 c 128,-1,38
 438.945 575.917 438.945 575.917 408.51 680.456 c 0,39,40
 378.955 781.967 378.955 781.967 319.635 886.268 c 2,41,-1
 294.141 931.098 l 1,21,-1
EndSplineSet
EndChar

StartChar: NameMe.337
Encoding: 65562 -1 294
Width: 615
VWidth: 2181
Flags: W
LayerCount: 2
Fore
SplineSet
273.32 94.5264 m 6,0,1
 188.675 -4.05053e-07 188.675 -4.05053e-07 80.7002 0 c 6,2,-1
 -20.4004 0 l 5,3,-1
 -20.4004 168.98 l 5,4,-1
 21.8496 168.98 l 6,5,6
 127.746 168.98 127.746 168.98 186.495 221.642 c 4,7,8
 253.047 281.38 253.047 281.38 247.29 400.31 c 6,9,-1
 208.29 1205.96 l 5,10,-1
 365.17 1275.96 l 5,11,-1
 365.17 400.31 l 6,12,13
 365.17 280.933 365.17 280.933 395.729 237.004 c 4,14,15
 443.051 168.98 443.051 168.98 594.61 168.98 c 6,16,-1
 635.86 168.98 l 5,17,-1
 635.86 0 l 5,18,-1
 535.76 0 l 6,19,20
 386.989 -1.40678e-05 386.989 -1.40678e-05 299.987 94.6973 c 6,21,-1
 286.56 109.312 l 5,22,-1
 273.32 94.5264 l 6,0,1
EndSplineSet
EndChar

StartChar: NameMe.338
Encoding: 65563 -1 295
Width: 532
VWidth: 2181
Flags: W
LayerCount: 2
Fore
SplineSet
393.17 436.69 m 2,0,1
 393.17 192.801 393.17 192.801 289.385 90.0967 c 4,2,3
 195.617 0 195.617 0 54.7002 0 c 2,4,-1
 -20.4004 0 l 1,5,-1
 -20.4004 168.98 l 1,6,-1
 12.8496 168.98 l 2,7,8
 152 168.98 152 168.98 215.957 248.894 c 0,9,10
 278.635 327.221 278.635 327.221 273.29 449.53 c 2,11,-1
 235.29 1319.03 l 1,12,-1
 393.17 1389.03 l 1,13,-1
 393.17 436.69 l 2,0,1
EndSplineSet
EndChar

